SplineFontDB: 3.0
FontName: NoNameFixedTerminal-Regular
FullName: NoName Fixed Terminal
FamilyName: NoName Fixed Terminal
Weight: Regular
Copyright: Copyright 2015-2018 Khaled Hosny.\nCopyright 2014 Idris Samawi Hamid (Arabic-Latin Modern Fixed Regular). Derived from Copyright 2003, 2009 B. Jackowski and J. M. Nowacki (Latin Modern Mono Regular 10). Derived from Copyright Donald Knuth 1990 (Computer Modern Mono 10).
Version: 001.001
DefaultBaseFilename: NoNameFixedTerminal
ItalicAngle: 0
UnderlinePosition: -99
UnderlineWidth: 69
Ascent: 750
Descent: 250
sfntRevision: 0x00010000
LayerCount: 2
Layer: 0 0 "Back"  1
Layer: 1 0 "Fore"  0
XUID: [1021 828 32681920 14282292]
FSType: 0
OS2_WeightWidthSlopeOnly: 0
OS2_UseTypoMetrics: 1
CreationTime: 1453226700
PfmFamily: 17
TTFWeight: 400
TTFWidth: 5
LineGap: 0
VLineGap: 0
OS2TypoAscent: 750
OS2TypoAOffset: 0
OS2TypoDescent: -250
OS2TypoDOffset: 0
OS2TypoLinegap: 0
OS2WinAscent: 975
OS2WinAOffset: 0
OS2WinDescent: 565
OS2WinDOffset: 0
HheadAscent: 750
HheadAOffset: 0
HheadDescent: -250
HheadDOffset: 0
OS2Vendor: 'UKWN'
MarkAttachClasses: 1
DEI: 91125
LangName: 1033 "" "" "" "" "" "" "" "" "" "Idris Samawi Hamid" "" "" "http://walayah.org/project/typography" "Arabic-Latin Modern Fixed is licensed under the GUST Font License with one important adjustment: It is requested, AS WELL AS LEGALLY REQUIRED, that derived works be distributed only after changing the names of the fonts comprising this work." "http://www.gust.org.pl/projects/e-foundry/licenses/GUST-FONT-LICENSE.txt/view" 
Encoding: UnicodeBmp
UnicodeInterp: none
NameList: AGL For New Fonts
BeginPrivate: 8
BlueValues 31 [-11 0 431 442 611 622 626 637]
BlueScale 7 0.04546
BlueShift 1 5
BlueFuzz 1 0
StdHW 4 [61]
StdVW 4 [69]
StemSnapH 31 [38 54 60 61 62 63 64 65 70 90]
StemSnapV 33 [35 56 58 62 69 70 89 90 100 154]
EndPrivate
BeginChars: 65547 1834

StartChar: exclam
Encoding: 33 33 1
Width: 525
Flags: HMW
LayerCount: 2
Fore
SplineSet
312 565 m 0
 312 512 308 457 307 405 c 2
 303 232 l 1
 301 192 298 184 262 184 c 0
 249 184 223 184 222 210 c 2
 219 331 l 1
 212 565 l 1
 212 618 253 622 262 622 c 0
 271 622 312 618 312 565 c 0
EndSplineSet
Refer: 371 729 N 1 0 0 1 -1 -505 2
EndChar

StartChar: quotedbl
Encoding: 34 34 2
Width: 525
Flags: MW
LayerCount: 2
Fore
SplineSet
395 567 m 2
 382 363 l 2
 381 346 376 328 351 328 c 0
 323 328 320 349 319 364 c 2
 306 567 l 2
 303 611 332 622 351 622 c 0
 364 622 398 614 395 567 c 2
218 567 m 2
 205 363 l 2
 204 346 199 328 174 328 c 0
 146 328 143 349 142 364 c 2
 129 567 l 2
 126 611 155 622 174 622 c 0
 187 622 221 614 218 567 c 2
EndSplineSet
EndChar

StartChar: numbersign
Encoding: 35 35 3
Width: 525
Flags: MW
LayerCount: 2
Fore
SplineSet
489 198 m 0
 489 163 454 163 442 163 c 2
 366 163 l 1
 350 41 l 2
 348 29 345 0 314 0 c 0
 293 0 279 17 279 35 c 1
 279 35 279 40 295 163 c 1
 192 163 l 1
 176 41 l 2
 174 29 171 0 140 0 c 0
 119 0 105 17 105 35 c 1
 105 35 105 40 121 163 c 1
 82 163 l 2
 70 163 35 163 35 198 c 0
 35 233 70 233 82 233 c 2
 131 233 l 1
 149 379 l 1
 82 379 l 2
 70 379 35 379 35 414 c 0
 35 449 70 449 82 449 c 2
 159 449 l 1
 174 570 l 2
 175 582 179 611 210 611 c 0
 225 611 249 601 244 564 c 2
 230 449 l 1
 333 449 l 1
 348 570 l 2
 349 582 353 611 384 611 c 0
 399 611 423 601 418 564 c 2
 404 449 l 1
 442 449 l 2
 454 449 489 449 489 414 c 0
 489 379 454 379 442 379 c 2
 394 379 l 1
 376 233 l 1
 442 233 l 2
 454 233 489 233 489 198 c 0
323 379 m 1
 220 379 l 1
 202 233 l 1
 305 233 l 1
 323 379 l 1
EndSplineSet
EndChar

StartChar: dollar
Encoding: 36 36 4
Width: 525
Flags: MW
LayerCount: 2
Fore
SplineSet
466 171 m 0
 466 101 415 15 293 -4 c 1
 293 -42 l 2
 293 -58 293 -83 263 -83 c 0
 232 -83 232 -58 232 -42 c 2
 232 -5 l 1
 116 6 58 83 58 166 c 0
 58 212 94 216 103 216 c 0
 123 216 147 199 147 171 c 0
 147 148 137 140 131 136 c 1
 146 85 187 63 232 57 c 1
 232 289 l 1
 64 320 58 428 58 452 c 0
 58 526 122 602 232 615 c 1
 232 653 l 2
 232 669 232 694 263 694 c 0
 293 694 293 669 293 653 c 2
 293 616 l 1
 411 606 466 534 466 457 c 0
 466 420 442 408 421 408 c 0
 394 408 377 429 377 452 c 0
 377 465 382 477 392 485 c 1
 376 536 326 550 293 554 c 1
 293 346 l 1
 438 319 466 220 466 171 c 0
232 359 m 1
 232 554 l 1
 170 544 122 504 122 456 c 0
 122 405 175 369 232 359 c 1
402 167 m 0
 402 218 359 263 293 276 c 1
 293 58 l 1
 357 69 402 116 402 167 c 0
EndSplineSet
EndChar

StartChar: percent
Encoding: 37 37 5
Width: 525
Flags: MW
LayerCount: 2
Fore
SplineSet
209 560 m 0
 209 485 171 427 122 427 c 0
 74 427 35 483 35 561 c 0
 35 636 73 694 122 694 c 0
 170 694 209 638 209 560 c 0
437 659 m 0
 437 652 435 647 431 637 c 2
 157 -54 l 2
 153 -65 146 -83 122 -83 c 0
 103 -83 87 -67 87 -48 c 0
 87 -41 89 -36 93 -26 c 2
 366 663 l 2
 371 675 378 694 402 694 c 0
 422 694 437 677 437 659 c 0
489 50 m 0
 489 -24 452 -83 402 -83 c 0
 352 -83 315 -24 315 50 c 0
 315 124 352 183 402 183 c 0
 452 183 489 124 489 50 c 0
153 561 m 0
 153 602 135 632 122 632 c 0
 109 632 91 602 91 561 c 0
 91 517 110 489 122 489 c 0
 134 489 153 517 153 561 c 0
433 50 m 0
 433 94 414 121 402 121 c 0
 390 121 371 94 371 50 c 0
 371 6 390 -21 402 -21 c 0
 414 -21 433 6 433 50 c 0
EndSplineSet
EndChar

StartChar: ampersand
Encoding: 38 38 6
Width: 525
Flags: MW
LayerCount: 2
Fore
SplineSet
490 400 m 0
 490 370 465 370 450 370 c 2
 419 370 l 1
 359 214 l 2
 349 189 329 143 308 108 c 1
 317 96 355 50 392 50 c 0
 408 50 427 63 431 107 c 0
 431 112 433 138 459 138 c 1
 459 138 487 138 487 105 c 0
 487 57 458 -11 392 -11 c 0
 334 -11 291 40 275 59 c 1
 244 21 203 -11 151 -11 c 0
 75 -11 28 61 28 137 c 0
 28 183 44 218 63 242 c 0
 65 243 123 307 131 315 c 1
 110 378 103 434 103 477 c 0
 103 577 157 622 207 622 c 0
 278 622 299 546 299 485 c 0
 299 462 299 403 198 298 c 1
 218 244 259 181 272 160 c 1
 299 213 332 299 359 370 c 1
 342 370 318 370 318 401 c 0
 318 431 343 431 358 431 c 2
 450 431 l 2
 466 431 490 431 490 400 c 0
243 485 m 0
 243 494 241 561 207 561 c 0
 185 561 159 535 159 477 c 0
 159 469 160 416 175 364 c 1
 225 420 243 456 243 485 c 0
239 108 m 1
 222 132 217 141 195 180 c 0
 181 203 162 236 155 252 c 1
 108 200 97 188 97 140 c 0
 97 113 107 50 152 50 c 0
 166 50 202 55 239 108 c 1
EndSplineSet
EndChar

StartChar: quotesingle
Encoding: 39 39 7
Width: 525
Flags: MW
LayerCount: 2
Fore
SplineSet
306 565 m 2
 293 365 l 2
 292 349 291 328 262 328 c 0
 233 328 232 349 231 365 c 2
 219 557 l 1
 217 577 l 1
 217 602 237 622 262 622 c 0
 286 622 309 607 306 565 c 2
EndSplineSet
EndChar

StartChar: parenleft
Encoding: 40 40 8
Width: 525
Flags: MW
LayerCount: 2
Fore
SplineSet
437 -54 m 0
 437 -62 432 -82 406 -82 c 0
 382 -82 307 -26 254 47 c 1
 219 97 173 187 173 306 c 0
 173 562 377 694 406 694 c 0
 432 694 437 674 437 666 c 0
 437 651 430 647 414 636 c 0
 280 545 242 406 242 306 c 0
 242 194 288 61 412 -23 c 0
 430 -35 437 -39 437 -54 c 0
EndSplineSet
EndChar

StartChar: parenright
Encoding: 41 41 9
Width: 525
Flags: MW
LayerCount: 2
Fore
SplineSet
352 306 m 0
 352 50 148 -82 119 -82 c 0
 94 -82 88 -62 88 -54 c 0
 88 -39 96 -34 111 -24 c 0
 246 67 283 206 283 306 c 0
 283 371 268 532 104 641 c 0
 99 644 88 651 88 666 c 0
 88 674 94 694 119 694 c 0
 143 694 218 638 271 565 c 1
 306 515 352 425 352 306 c 0
EndSplineSet
EndChar

StartChar: asterisk
Encoding: 42 42 10
Width: 525
Flags: MW
LayerCount: 2
Fore
SplineSet
456 214 m 0
 456 199 443 181 423 181 c 0
 415 181 413 181 386 197 c 0
 316 239 353 219 292 253 c 1
 294 227 295 161 295 132 c 0
 295 123 295 90 262 90 c 0
 229 90 229 123 229 132 c 0
 229 161 230 227 232 253 c 1
 108 181 l 1
 68 181 68 210 68 214 c 0
 68 234 81 240 93 247 c 2
 201 306 l 1
 92 365 l 2
 79 372 68 378 68 397 c 0
 68 412 81 430 101 430 c 0
 108 430 110 430 124 421 c 2
 232 358 l 1
 230 384 229 450 229 479 c 0
 229 488 229 521 262 521 c 0
 295 521 295 488 295 479 c 0
 295 450 294 384 292 358 c 1
 416 430 l 1
 456 430 456 401 456 397 c 0
 456 378 443 371 431 364 c 2
 323 305 l 1
 349 291 417 258 442 241 c 0
 444 240 456 231 456 214 c 0
EndSplineSet
EndChar

StartChar: plus
Encoding: 43 43 11
Width: 525
Flags: MW
LayerCount: 2
Fore
SplineSet
486 306 m 0
 486 271 451 271 439 271 c 2
 297 271 l 1
 297 128 l 2
 297 116 297 81 262 81 c 0
 227 81 227 116 227 128 c 2
 227 271 l 1
 85 271 l 2
 73 271 38 271 38 306 c 0
 38 341 73 341 85 341 c 2
 227 341 l 1
 227 484 l 2
 227 496 227 531 262 531 c 0
 297 531 297 496 297 484 c 2
 297 341 l 1
 439 341 l 2
 451 341 486 341 486 306 c 0
EndSplineSet
EndChar

StartChar: comma
Encoding: 44 44 12
Width: 525
Flags: MW
LayerCount: 2
Fore
SplineSet
346 25 m 0
 346 -85 244 -139 212 -139 c 0
 195 -139 180 -122 180 -107 c 0
 180 -87 198 -82 208 -79 c 0
 220 -75 267 -59 282 3 c 1
 275 1 268 0 262 0 c 0
 229 0 200 25 200 63 c 0
 200 95 223 125 263 125 c 0
 307 125 346 86 346 25 c 0
EndSplineSet
EndChar

StartChar: hyphen
Encoding: 45 45 13
Width: 525
Flags: MW
LayerCount: 2
Fore
SplineSet
468 306 m 0
 468 271 433 271 421 271 c 2
 103 271 l 2
 91 271 56 271 56 306 c 0
 56 341 91 341 103 341 c 2
 421 341 l 2
 433 341 468 341 468 306 c 0
EndSplineSet
EndChar

StartChar: period
Encoding: 46 46 14
Width: 525
Flags: MW
LayerCount: 2
Fore
SplineSet
325 62 m 0
 325 31 300 0 262 0 c 0
 230 0 200 26 200 63 c 0
 200 94 225 125 263 125 c 0
 295 125 325 99 325 62 c 0
EndSplineSet
EndChar

StartChar: slash
Encoding: 47 47 15
Width: 525
Flags: MW
LayerCount: 2
Fore
SplineSet
466 659 m 0
 466 651 465 651 458 635 c 2
 128 -55 l 2
 122 -68 115 -83 93 -83 c 0
 73 -83 58 -66 58 -48 c 0
 58 -40 59 -40 66 -24 c 2
 396 666 l 2
 402 679 409 694 431 694 c 0
 451 694 466 677 466 659 c 0
EndSplineSet
EndChar

StartChar: zero
Encoding: 48 48 16
Width: 525
Flags: MW
LayerCount: 2
Fore
SplineSet
474 305 m 0
 474 123 374 -11 262 -11 c 0
 152 -11 50 120 50 306 c 0
 50 488 150 622 262 622 c 0
 372 622 474 491 474 305 c 0
405 316 m 0
 405 463 335 561 262 561 c 0
 188 561 119 462 119 316 c 0
 119 168 184 50 262 50 c 0
 340 50 405 168 405 316 c 0
EndSplineSet
EndChar

StartChar: one
Encoding: 49 49 17
Width: 525
Flags: MW
LayerCount: 2
Fore
SplineSet
442 30 m 0
 442 0 417 0 402 0 c 2
 151 0 l 2
 136 0 111 0 111 30 c 0
 111 61 135 61 151 61 c 2
 242 61 l 1
 242 483 l 1
 198 445 157 439 138 439 c 0
 123 439 105 444 105 469 c 0
 105 497 126 499 142 500 c 0
 161 502 213 513 251 598 c 0
 256 610 262 622 281 622 c 0
 311 622 311 597 311 581 c 2
 311 61 l 1
 402 61 l 2
 418 61 442 61 442 30 c 0
EndSplineSet
EndChar

StartChar: two
Encoding: 50 50 18
Width: 525
Flags: MW
LayerCount: 2
Fore
SplineSet
472 41 m 2
 472 9 465 0 432 0 c 2
 93 0 l 2
 77 0 52 0 52 31 c 0
 52 45 58 50 67 58 c 2
 288 244 l 2
 354 299 403 357 403 427 c 0
 403 515 326 561 244 561 c 0
 189 561 142 530 127 484 c 1
 136 477 141 464 141 452 c 0
 141 424 118 407 97 407 c 0
 80 407 52 418 52 455 c 0
 52 540 131 622 249 622 c 0
 371 622 472 547 472 427 c 0
 472 347 426 283 363 227 c 1
 320 187 224 112 165 61 c 1
 403 61 l 1
 403 89 403 108 438 108 c 0
 472 108 472 86 472 67 c 2
 472 41 l 2
EndSplineSet
EndChar

StartChar: three
Encoding: 51 51 19
Width: 525
Flags: MW
LayerCount: 2
Fore
SplineSet
480 174 m 0
 480 81 395 -11 264 -11 c 0
 141 -11 44 47 44 136 c 0
 44 168 66 183 89 183 c 0
 114 183 133 163 133 139 c 0
 133 119 126 113 121 108 c 1
 147 61 224 50 264 50 c 0
 355 50 411 113 411 174 c 0
 411 232 360 299 261 299 c 2
 215 299 l 2
 199 299 175 299 175 330 c 0
 175 359 190 359 247 363 c 0
 283 365 308 367 340 393 c 0
 367 415 382 450 382 480 c 0
 382 525 332 561 264 561 c 0
 255 561 184 561 153 530 c 1
 156 527 162 517 162 503 c 0
 162 475 139 458 118 458 c 0
 98 458 73 472 73 505 c 0
 73 574 143 622 263 622 c 0
 378 622 451 555 451 481 c 0
 451 427 423 370 367 334 c 1
 433 304 480 245 480 174 c 0
EndSplineSet
EndChar

StartChar: four
Encoding: 52 52 20
Width: 525
Flags: MW
LayerCount: 2
Fore
SplineSet
495 199 m 0
 495 169 470 169 455 169 c 2
 377 169 l 1
 377 61 l 1
 439 61 l 2
 455 61 479 61 479 30 c 0
 479 0 454 0 439 0 c 2
 259 0 l 2
 244 0 219 0 219 30 c 0
 219 61 243 61 259 61 c 2
 321 61 l 1
 321 169 l 1
 69 169 l 2
 38 169 29 176 29 209 c 0
 29 229 29 231 38 244 c 2
 266 602 l 2
 279 622 284 623 308 623 c 2
 336 623 l 2
 370 623 377 615 377 582 c 2
 377 230 l 1
 455 230 l 2
 471 230 495 230 495 199 c 0
321 230 m 1
 321 579 l 1
 99 230 l 1
 321 230 l 1
EndSplineSet
EndChar

StartChar: five
Encoding: 53 53 21
Width: 525
Flags: MW
LayerCount: 2
Fore
SplineSet
472 190 m 0
 472 79 373 -11 248 -11 c 0
 136 -11 52 59 52 142 c 0
 52 181 82 190 97 190 c 0
 118 190 141 174 141 145 c 0
 141 125 133 118 128 113 c 1
 156 58 220 50 248 50 c 0
 332 50 403 110 403 190 c 0
 403 255 358 328 276 328 c 0
 218 328 177 310 150 278 c 0
 142 268 138 263 120 263 c 0
 88 263 88 286 88 304 c 2
 88 570 l 2
 88 602 95 611 128 611 c 2
 397 611 l 2
 413 611 437 611 437 580 c 0
 437 550 412 550 397 550 c 2
 157 550 l 1
 157 360 l 1
 198 382 242 389 277 389 c 0
 395 389 472 291 472 190 c 0
EndSplineSet
EndChar

StartChar: six
Encoding: 54 54 22
Width: 525
Flags: MW
LayerCount: 2
Fore
SplineSet
471 193 m 0
 471 73 373 -11 264 -11 c 0
 165 -11 53 62 53 299 c 0
 53 501 187 622 321 622 c 0
 418 622 454 568 454 519 c 0
 454 489 434 472 409 472 c 0
 383 472 365 492 365 516 c 0
 365 534 370 540 375 545 c 1
 370 550 354 561 320 561 c 0
 232 561 138 479 124 338 c 1
 169 379 221 396 273 396 c 0
 383 396 471 307 471 193 c 0
402 193 m 0
 402 267 349 334 268 334 c 0
 192 334 132 284 132 222 c 0
 132 208 130 184 140 160 c 1
 160 99 199 50 264 50 c 0
 336 50 402 107 402 193 c 0
EndSplineSet
EndChar

StartChar: seven
Encoding: 55 55 23
Width: 525
Flags: MW
LayerCount: 2
Fore
SplineSet
480 580 m 0
 480 566 478 564 458 546 c 0
 397 487 244 313 239 29 c 0
 239 0 222 -11 205 -11 c 0
 170 -11 170 22 170 36 c 0
 170 146 204 366 377 550 c 1
 113 550 l 1
 113 522 113 503 78 503 c 0
 44 503 44 525 44 544 c 2
 44 586 l 2
 44 605 44 627 78 627 c 0
 86 627 104 627 110 611 c 1
 440 611 l 2
 456 611 480 611 480 580 c 0
EndSplineSet
EndChar

StartChar: eight
Encoding: 56 56 24
Width: 525
Flags: MW
LayerCount: 2
Fore
SplineSet
480 174 m 0
 480 77 388 -11 262 -11 c 0
 137 -11 44 77 44 174 c 0
 44 249 108 308 183 329 c 1
 104 355 58 405 58 462 c 0
 58 543 142 622 262 622 c 0
 381 622 466 544 466 462 c 0
 466 405 421 356 341 329 c 1
 415 308 480 249 480 174 c 0
397 461 m 0
 397 513 340 561 262 561 c 0
 183 561 127 513 127 461 c 0
 127 405 189 360 262 360 c 0
 335 360 397 404 397 461 c 0
411 175 m 0
 411 236 354 299 262 299 c 0
 171 299 113 236 113 175 c 0
 113 106 179 50 262 50 c 0
 345 50 411 106 411 175 c 0
EndSplineSet
EndChar

StartChar: nine
Encoding: 57 57 25
Width: 525
Flags: MW
LayerCount: 2
Fore
SplineSet
471 312 m 0
 471 114 348 -11 216 -11 c 0
 88 -11 70 60 70 92 c 0
 70 122 90 139 115 139 c 0
 141 139 159 119 159 95 c 0
 159 78 154 72 150 67 c 1
 171 51 207 50 216 50 c 0
 312 50 390 149 400 273 c 1
 355 232 303 215 251 215 c 0
 141 215 53 304 53 418 c 0
 53 539 154 622 265 622 c 0
 360 622 471 553 471 312 c 0
393 389 m 0
 393 460 384 479 352 518 c 0
 336 538 308 561 265 561 c 0
 193 561 122 505 122 418 c 0
 122 344 175 277 256 277 c 0
 339 277 393 334 393 389 c 0
EndSplineSet
EndChar

StartChar: semicolon
Encoding: 59 59 27
Width: 525
Flags: HMW
LayerCount: 2
Fore
SplineSet
330 27 m 0
 330 -85 234 -139 212 -139 c 0
 195 -139 180 -122 180 -107 c 0
 180 -91 194 -84 200 -81 c 0
 215 -73 253 -54 266 0 c 1
 217 0 200 35 200 63 c 0
 200 97 226 125 262 125 c 0
 300 125 330 93 330 27 c 0
EndSplineSet
Refer: 14 46 N 1 0 0 1 0 306 2
EndChar

StartChar: less
Encoding: 60 60 28
Width: 525
Flags: MW
LayerCount: 2
Fore
SplineSet
468 91 m 0
 468 68 449 56 433 56 c 0
 424 56 421 57 407 66 c 2
 74 275 l 2
 64 282 56 293 56 306 c 0
 56 325 69 333 78 339 c 2
 407 546 l 2
 421 555 424 556 433 556 c 0
 449 556 468 544 468 521 c 0
 468 502 455 494 444 487 c 2
 157 306 l 1
 444 125 l 2
 455 118 468 110 468 91 c 0
EndSplineSet
EndChar

StartChar: equal
Encoding: 61 61 29
Width: 525
Flags: HMW
LayerCount: 2
Fore
SplineSet
486 230 m 0
 486 195 449 195 435 195 c 2
 89 195 l 2
 75 195 38 195 38 230 c 0
 38 265 71 265 83 265 c 2
 441 265 l 2
 453 265 486 265 486 230 c 0
EndSplineSet
Refer: 960 8722 N 1 0 0 1 0 76 2
EndChar

StartChar: greater
Encoding: 62 62 30
Width: 525
Flags: MW
LayerCount: 2
Fore
SplineSet
468 306 m 0
 468 287 455 279 446 273 c 2
 117 66 l 2
 103 57 100 56 91 56 c 0
 75 56 56 68 56 91 c 0
 56 110 69 118 80 125 c 2
 367 306 l 1
 80 487 l 2
 69 494 56 502 56 521 c 0
 56 544 75 556 91 556 c 0
 100 556 103 555 117 546 c 2
 450 337 l 2
 460 330 468 319 468 306 c 0
EndSplineSet
EndChar

StartChar: question
Encoding: 63 63 31
Width: 525
Flags: HMW
LayerCount: 2
Fore
SplineSet
462 493 m 0
 462 441 425 412 396 396 c 0
 303 345 287 288 287 241 c 2
 287 224 l 2
 287 190 277 184 247 184 c 0
 207 184 207 197 207 236 c 0
 207 276 207 365 352 445 c 0
 371 455 393 467 393 493 c 0
 393 524 354 556 252 556 c 0
 213 556 166 549 141 521 c 1
 146 515 151 505 151 493 c 0
 151 465 128 448 107 448 c 0
 86 448 62 463 62 495 c 0
 62 551 111 617 252 617 c 0
 437 617 462 530 462 493 c 0
EndSplineSet
Refer: 371 729 N 1 0 0 1 -16 -505 2
EndChar

StartChar: at
Encoding: 64 64 32
Width: 525
Flags: MW
LayerCount: 2
Fore
SplineSet
480 80 m 0
 480 51 396 -6 306 -6 c 0
 166 -6 44 127 44 306 c 0
 44 486 168 617 304 617 c 0
 480 617 480 386 480 321 c 0
 480 148 384 106 335 106 c 0
 261 106 191 187 191 306 c 0
 191 419 256 505 336 505 c 0
 369 505 397 487 400 485 c 1
 377 546 332 556 304 556 c 0
 201 556 100 454 100 305 c 0
 100 163 197 55 305 55 c 0
 339 55 377 66 412 98 c 0
 422 108 425 108 442 108 c 0
 452 108 480 108 480 80 c 0
424 305 m 0
 424 386 380 444 335 444 c 0
 293 444 247 389 247 305 c 0
 247 227 289 167 336 167 c 0
 379 167 424 224 424 305 c 0
EndSplineSet
EndChar

StartChar: A
Encoding: 65 65 33
Width: 525
Flags: MW
LayerCount: 2
Fore
SplineSet
497 30 m 0
 497 0 471 0 454 0 c 2
 352 0 l 2
 334 0 310 0 310 30 c 0
 310 61 330 61 366 61 c 1
 343 165 l 1
 181 165 l 1
 158 61 l 1
 194 61 214 61 214 30 c 0
 214 0 190 0 172 0 c 2
 70 0 l 2
 53 0 27 0 27 30 c 0
 27 43 33 53 44 59 c 1
 50 61 73 61 87 61 c 1
 208 585 l 2
 217 623 233 623 262 623 c 0
 293 623 307 622 316 584 c 2
 437 61 l 1
 452 61 474 61 480 58 c 0
 492 53 497 43 497 30 c 0
328 226 m 1
 262 540 l 1
 196 226 l 1
 328 226 l 1
EndSplineSet
EndChar

StartChar: B
Encoding: 66 66 34
Width: 525
Flags: MW
LayerCount: 2
Fore
SplineSet
482 167 m 0
 482 89 422 0 309 0 c 2
 63 0 l 2
 49 0 23 0 23 30 c 0
 23 61 48 61 64 61 c 2
 91 61 l 1
 91 550 l 1
 64 550 l 2
 48 550 23 550 23 581 c 0
 23 611 49 611 63 611 c 2
 289 611 l 2
 400 611 461 529 461 456 c 0
 461 394 417 342 353 320 c 1
 434 301 482 236 482 167 c 0
392 455 m 0
 392 488 370 550 285 550 c 2
 160 550 l 1
 160 348 l 1
 263 348 l 2
 360 348 392 414 392 455 c 0
413 169 m 0
 413 214 383 287 298 287 c 2
 160 287 l 1
 160 61 l 1
 287 61 l 2
 374 61 413 120 413 169 c 0
EndSplineSet
EndChar

StartChar: C
Encoding: 67 67 35
Width: 525
Flags: MW
LayerCount: 2
Fore
SplineSet
484 168 m 0
 484 78 398 -11 282 -11 c 0
 152 -11 40 123 40 306 c 0
 40 488 152 622 281 622 c 0
 332 622 378 602 411 574 c 1
 424 599 424 601 426 605 c 0
 431 612 436 622 454 622 c 0
 484 622 484 597 484 581 c 2
 484 442 l 2
 484 422 484 401 449 401 c 0
 419 401 417 417 414 434 c 0
 400 515 345 561 285 561 c 0
 196 561 109 455 109 306 c 0
 109 156 195 50 286 50 c 0
 327 50 408 74 415 172 c 0
 417 201 440 201 449 201 c 0
 460 201 484 201 484 168 c 0
EndSplineSet
EndChar

StartChar: D
Encoding: 68 68 36
Width: 525
Flags: MW
LayerCount: 2
Fore
SplineSet
485 301 m 0
 485 140 397 0 266 0 c 2
 60 0 l 2
 45 0 19 0 19 30 c 0
 19 61 44 61 60 61 c 2
 82 61 l 1
 82 550 l 1
 60 550 l 2
 45 550 19 550 19 580 c 0
 19 611 44 611 60 611 c 2
 266 611 l 2
 399 611 485 461 485 301 c 0
416 301 m 0
 416 417 360 550 247 550 c 2
 151 550 l 1
 151 61 l 1
 247 61 l 2
 358 61 416 184 416 301 c 0
EndSplineSet
EndChar

StartChar: E
Encoding: 69 69 37
Width: 525
Flags: MW
LayerCount: 2
Fore
SplineSet
502 41 m 2
 502 9 495 0 462 0 c 2
 67 0 l 2
 52 0 26 0 26 30 c 0
 26 61 51 61 67 61 c 2
 97 61 l 1
 97 550 l 1
 67 550 l 2
 52 550 26 550 26 581 c 0
 26 611 52 611 67 611 c 2
 440 611 l 2
 474 611 480 601 480 570 c 2
 480 497 l 2
 480 477 480 456 445 456 c 0
 411 456 411 478 411 497 c 2
 411 550 l 1
 166 550 l 1
 166 347 l 1
 297 347 l 1
 297 388 297 404 332 404 c 0
 366 404 366 382 366 363 c 2
 366 270 l 2
 366 251 366 229 332 229 c 0
 297 229 297 245 297 286 c 1
 166 286 l 1
 166 61 l 1
 433 61 l 1
 433 130 l 2
 433 150 433 171 468 171 c 0
 502 171 502 149 502 130 c 2
 502 41 l 2
EndSplineSet
EndChar

StartChar: F
Encoding: 70 70 38
Width: 525
Flags: MW
LayerCount: 2
Fore
SplineSet
490 497 m 2
 490 477 490 456 455 456 c 0
 421 456 421 478 421 497 c 2
 421 550 l 1
 171 550 l 1
 171 336 l 1
 307 336 l 1
 307 377 307 393 342 393 c 0
 376 393 376 371 376 352 c 2
 376 259 l 2
 376 240 376 218 342 218 c 0
 307 218 307 234 307 275 c 1
 171 275 l 1
 171 61 l 1
 223 61 l 2
 239 61 263 61 263 30 c 0
 263 0 238 0 223 0 c 2
 69 0 l 2
 54 0 28 0 28 30 c 0
 28 61 53 61 69 61 c 2
 102 61 l 1
 102 550 l 1
 69 550 l 2
 54 550 28 550 28 580 c 0
 28 611 53 611 69 611 c 2
 450 611 l 2
 484 611 490 601 490 570 c 2
 490 497 l 2
EndSplineSet
EndChar

StartChar: G
Encoding: 71 71 39
Width: 525
Flags: MW
LayerCount: 2
Fore
SplineSet
496 240 m 0
 496 209 473 209 449 209 c 1
 449 41 l 2
 449 22 449 0 415 0 c 0
 380 0 380 20 380 42 c 1
 360 19 318 -11 261 -11 c 0
 142 -11 38 122 38 306 c 0
 38 487 141 622 261 622 c 0
 303 622 343 607 378 577 c 1
 393 611 398 622 419 622 c 0
 449 622 449 597 449 581 c 2
 449 442 l 2
 449 422 449 401 414 401 c 0
 388 401 382 413 380 430 c 0
 363 538 300 561 265 561 c 0
 187 561 107 458 107 305 c 0
 107 158 183 50 264 50 c 0
 317 50 366 97 378 209 c 1
 336 209 l 2
 320 209 296 209 296 240 c 0
 296 270 321 270 336 270 c 2
 455 270 l 2
 470 270 496 270 496 240 c 0
EndSplineSet
EndChar

StartChar: H
Encoding: 72 72 40
Width: 525
Flags: MW
LayerCount: 2
Fore
SplineSet
502 30 m 0
 502 0 477 0 462 0 c 2
 343 0 l 2
 327 0 303 0 303 31 c 0
 303 61 328 61 343 61 c 2
 368 61 l 1
 368 287 l 1
 156 287 l 1
 156 61 l 1
 181 61 l 2
 197 61 221 61 221 30 c 0
 221 0 196 0 181 0 c 2
 62 0 l 2
 47 0 22 0 22 30 c 0
 22 61 46 61 62 61 c 2
 87 61 l 1
 87 550 l 1
 62 550 l 2
 47 550 22 550 22 580 c 0
 22 611 46 611 62 611 c 2
 181 611 l 2
 197 611 221 611 221 580 c 0
 221 550 196 550 181 550 c 2
 156 550 l 1
 156 348 l 1
 368 348 l 1
 368 550 l 1
 343 550 l 2
 327 550 303 550 303 581 c 0
 303 611 328 611 343 611 c 2
 462 611 l 2
 478 611 502 611 502 580 c 0
 502 550 477 550 462 550 c 2
 437 550 l 1
 437 61 l 1
 462 61 l 2
 478 61 502 61 502 30 c 0
EndSplineSet
EndChar

StartChar: I
Encoding: 73 73 41
Width: 525
Flags: MW
LayerCount: 2
Fore
SplineSet
446 30 m 0
 446 0 420 0 405 0 c 2
 120 0 l 2
 105 0 79 0 79 31 c 0
 79 61 105 61 120 61 c 2
 228 61 l 1
 228 550 l 1
 120 550 l 2
 105 550 79 550 79 581 c 0
 79 611 105 611 120 611 c 2
 405 611 l 2
 420 611 446 611 446 580 c 0
 446 550 420 550 405 550 c 2
 297 550 l 1
 297 61 l 1
 405 61 l 2
 420 61 446 61 446 30 c 0
EndSplineSet
EndChar

StartChar: J
Encoding: 74 74 42
Width: 525
Flags: MW
LayerCount: 2
Fore
SplineSet
478 581 m 0
 478 550 453 550 437 550 c 2
 407 550 l 1
 407 134 l 2
 407 43 326 -11 237 -11 c 0
 137 -11 71 36 71 99 c 0
 71 131 93 146 116 146 c 0
 141 146 160 126 160 102 c 0
 160 86 156 81 152 76 c 1
 181 50 229 50 237 50 c 0
 256 50 338 55 338 140 c 2
 338 550 l 1
 256 550 l 2
 241 550 215 550 215 581 c 0
 215 611 241 611 256 611 c 2
 437 611 l 2
 452 611 478 611 478 581 c 0
EndSplineSet
EndChar

StartChar: K
Encoding: 75 75 43
Width: 525
Flags: MW
LayerCount: 2
Fore
SplineSet
495 30 m 0
 495 0 469 0 454 0 c 2
 379 0 l 2
 363 0 338 0 338 31 c 0
 338 61 364 61 378 61 c 1
 238 311 l 1
 145 194 l 1
 145 61 l 1
 167 61 l 2
 183 61 208 61 208 30 c 0
 208 0 182 0 167 0 c 2
 67 0 l 2
 51 0 26 0 26 31 c 0
 26 61 52 61 67 61 c 2
 89 61 l 1
 89 550 l 1
 67 550 l 2
 51 550 26 550 26 581 c 0
 26 611 52 611 67 611 c 2
 167 611 l 2
 183 611 208 611 208 580 c 0
 208 550 182 550 167 550 c 2
 145 550 l 1
 145 284 l 1
 356 550 l 1
 342 550 315 550 315 580 c 0
 315 611 341 611 356 611 c 2
 444 611 l 2
 458 611 485 611 485 581 c 0
 485 550 464 550 428 550 c 1
 276 358 l 1
 436 73 l 2
 437 71 441 65 443 61 c 1
 472 61 495 61 495 30 c 0
EndSplineSet
EndChar

StartChar: L
Encoding: 76 76 44
Width: 525
Flags: MW
LayerCount: 2
Fore
SplineSet
488 41 m 2
 488 9 481 0 448 0 c 2
 72 0 l 2
 57 0 32 0 32 30 c 0
 32 61 56 61 72 61 c 2
 109 61 l 1
 109 550 l 1
 72 550 l 2
 57 550 32 550 32 580 c 0
 32 611 56 611 72 611 c 2
 234 611 l 2
 249 611 275 611 275 580 c 0
 275 550 248 550 234 550 c 2
 178 550 l 1
 178 61 l 1
 419 61 l 1
 419 130 l 2
 419 151 419 171 454 171 c 0
 488 171 488 150 488 130 c 2
 488 41 l 2
EndSplineSet
EndChar

StartChar: M
Encoding: 77 77 45
Width: 525
Flags: MW
LayerCount: 2
Fore
SplineSet
507 30 m 0
 507 0 482 0 467 0 c 2
 385 0 l 2
 370 0 345 0 345 30 c 0
 345 61 366 61 398 61 c 1
 398 538 l 1
 397 538 l 1
 385 485 300 232 297 226 c 0
 289 212 275 204 262 204 c 0
 250 204 238 211 232 219 c 0
 227 226 214 264 206 287 c 0
 202 300 138 492 127 538 c 1
 126 538 l 1
 126 61 l 1
 158 61 179 61 179 30 c 0
 179 0 154 0 139 0 c 2
 57 0 l 2
 42 0 17 0 17 30 c 0
 17 61 38 61 70 61 c 1
 70 550 l 1
 38 550 17 550 17 581 c 0
 17 611 42 611 57 611 c 2
 113 611 l 2
 127 611 152 611 162 587 c 0
 164 581 252 322 262 275 c 1
 263 275 l 1
 269 304 278 333 290 369 c 2
 357 571 l 2
 366 597 370 611 411 611 c 2
 467 611 l 2
 482 611 507 611 507 581 c 0
 507 550 486 550 454 550 c 1
 454 61 l 1
 486 61 507 61 507 30 c 0
EndSplineSet
EndChar

StartChar: N
Encoding: 78 78 46
Width: 525
Flags: MW
LayerCount: 2
Fore
SplineSet
496 580 m 0
 496 550 471 550 456 550 c 2
 431 550 l 1
 431 41 l 2
 431 3 419 0 389 0 c 0
 363 0 347 1 334 36 c 2
 150 536 l 1
 149 536 l 1
 149 61 l 1
 174 61 l 2
 190 61 214 61 214 30 c 0
 214 0 189 0 174 0 c 2
 68 0 l 2
 52 0 28 0 28 31 c 0
 28 61 53 61 68 61 c 2
 93 61 l 1
 93 550 l 1
 68 550 l 2
 52 550 28 550 28 581 c 0
 28 611 53 611 68 611 c 2
 136 611 l 2
 163 611 178 608 190 575 c 2
 374 75 l 1
 375 75 l 1
 375 550 l 1
 350 550 l 2
 335 550 310 550 310 580 c 0
 310 611 334 611 350 611 c 2
 456 611 l 2
 472 611 496 611 496 580 c 0
EndSplineSet
EndChar

StartChar: O
Encoding: 79 79 47
Width: 525
Flags: MW
LayerCount: 2
Fore
SplineSet
468 305 m 0
 468 16 446 -11 262 -11 c 0
 77 -11 56 16 56 305 c 0
 56 595 77 622 262 622 c 0
 447 622 468 594 468 305 c 0
399 314 m 0
 399 375 399 450 387 497 c 0
 372 552 337 561 262 561 c 0
 180 561 149 549 136 490 c 0
 125 444 125 376 125 314 c 0
 125 259 125 172 137 121 c 0
 149 71 174 50 262 50 c 0
 351 50 377 71 388 127 c 0
 399 181 399 252 399 314 c 0
EndSplineSet
EndChar

StartChar: P
Encoding: 80 80 48
Width: 525
Flags: MW
LayerCount: 2
Fore
SplineSet
480 428 m 0
 480 335 407 245 291 245 c 2
 166 245 l 1
 166 61 l 1
 196 61 l 2
 211 61 237 61 237 30 c 0
 237 0 211 0 196 0 c 2
 67 0 l 2
 52 0 26 0 26 30 c 0
 26 61 51 61 67 61 c 2
 97 61 l 1
 97 550 l 1
 67 550 l 2
 52 550 26 550 26 581 c 0
 26 611 52 611 67 611 c 2
 291 611 l 2
 406 611 480 521 480 428 c 0
411 428 m 0
 411 481 368 550 272 550 c 2
 166 550 l 1
 166 306 l 1
 272 306 l 2
 368 306 411 375 411 428 c 0
EndSplineSet
EndChar

StartChar: Q
Encoding: 81 81 49
Width: 525
Flags: MW
LayerCount: 2
Fore
SplineSet
468 305 m 0
 468 259 468 192 462 138 c 0
 453 57 435 22 391 4 c 1
 398 -9 416 -43 424 -56 c 1
 435 -78 455 -114 455 -120 c 0
 455 -139 438 -139 423 -139 c 2
 414 -139 l 2
 398 -139 387 -139 379 -127 c 1
 318 -10 l 1
 307 -11 275 -11 262 -11 c 0
 77 -11 56 16 56 305 c 0
 56 595 77 622 262 622 c 0
 447 622 468 594 468 305 c 0
399 306 m 0
 399 360 399 428 390 479 c 0
 379 544 351 561 262 561 c 0
 170 561 148 541 135 486 c 1
 125 438 125 361 125 305 c 0
 125 251 125 183 134 132 c 0
 144 78 164 50 254 50 c 2
 286 50 l 1
 240 139 l 2
 237 144 236 147 236 152 c 0
 236 171 254 171 268 171 c 2
 279 171 l 2
 299 171 300 170 309 155 c 2
 357 68 l 1
 379 83 399 97 399 306 c 0
EndSplineSet
EndChar

StartChar: R
Encoding: 82 82 50
Width: 525
Flags: MW
LayerCount: 2
Fore
SplineSet
522 93 m 0
 522 55 498 -11 435 -11 c 0
 401 -11 373 5 356 35 c 0
 337 67 337 97 337 162 c 0
 337 204 337 226 315 247 c 1
 283 275 253 275 234 275 c 2
 156 275 l 1
 156 61 l 1
 181 61 l 2
 197 61 221 61 221 30 c 0
 221 0 196 0 181 0 c 2
 62 0 l 2
 47 0 22 0 22 30 c 0
 22 61 46 61 62 61 c 2
 87 61 l 1
 87 550 l 1
 62 550 l 2
 47 550 22 550 22 580 c 0
 22 611 46 611 62 611 c 2
 239 611 l 2
 357 611 433 529 433 443 c 0
 433 402 414 341 348 304 c 1
 362 293 385 272 397 243 c 0
 406 220 406 212 406 149 c 0
 406 96 406 50 434 50 c 0
 451 50 453 87 453 95 c 0
 454 125 477 125 487 125 c 0
 498 125 522 125 522 93 c 0
364 443 m 0
 364 491 320 550 228 550 c 2
 156 550 l 1
 156 336 l 1
 228 336 l 2
 319 336 364 394 364 443 c 0
EndSplineSet
EndChar

StartChar: S
Encoding: 83 83 51
Width: 525
Flags: MW
LayerCount: 2
Fore
SplineSet
472 166 m 0
 472 77 400 -11 284 -11 c 0
 220 -11 159 5 119 35 c 1
 110 3 104 -11 82 -11 c 0
 52 -11 52 14 52 30 c 2
 52 162 l 2
 52 182 52 203 87 203 c 0
 119 203 120 185 121 168 c 0
 122 150 126 108 168 81 c 1
 208 54 257 50 285 50 c 0
 364 50 407 109 407 161 c 0
 407 248 324 268 296 274 c 2
 181 301 l 1
 98 325 52 391 52 458 c 0
 52 543 127 622 238 622 c 0
 283 622 337 610 378 575 c 1
 386 605 391 622 415 622 c 0
 445 622 445 597 445 581 c 2
 445 449 l 2
 445 429 445 408 410 408 c 0
 390 408 379 414 376 436 c 1
 370 467 355 561 237 561 c 0
 166 561 117 513 117 462 c 0
 117 415 155 380 197 368 c 1
 278 350 l 2
 356 332 383 325 424 285 c 0
 436 272 472 230 472 166 c 0
EndSplineSet
EndChar

StartChar: T
Encoding: 84 84 52
Width: 525
Flags: MW
LayerCount: 2
Fore
SplineSet
498 497 m 2
 498 477 498 456 463 456 c 0
 429 456 429 478 429 497 c 2
 429 550 l 1
 297 550 l 1
 297 61 l 1
 349 61 l 2
 365 61 389 61 389 30 c 0
 389 0 364 0 349 0 c 2
 176 0 l 2
 160 0 136 0 136 31 c 0
 136 61 161 61 176 61 c 2
 228 61 l 1
 228 550 l 1
 95 550 l 1
 95 497 l 2
 95 477 95 456 60 456 c 0
 26 456 26 478 26 497 c 2
 26 570 l 2
 26 603 34 611 67 611 c 2
 458 611 l 2
 492 611 498 601 498 570 c 2
 498 497 l 2
EndSplineSet
EndChar

StartChar: U
Encoding: 85 85 53
Width: 525
Flags: MW
LayerCount: 2
Fore
SplineSet
520 581 m 0
 520 550 495 550 479 550 c 2
 449 550 l 1
 449 204 l 2
 449 81 362 -11 262 -11 c 0
 162 -11 75 81 75 204 c 2
 75 550 l 1
 45 550 l 2
 30 550 4 550 4 581 c 0
 4 611 30 611 45 611 c 2
 174 611 l 2
 189 611 215 611 215 581 c 0
 215 550 189 550 174 550 c 2
 144 550 l 1
 144 209 l 2
 144 102 209 50 262 50 c 0
 314 50 380 102 380 209 c 2
 380 550 l 1
 350 550 l 2
 335 550 309 550 309 581 c 0
 309 611 335 611 350 611 c 2
 479 611 l 2
 494 611 520 611 520 581 c 0
EndSplineSet
EndChar

StartChar: V
Encoding: 86 86 54
Width: 525
Flags: MW
LayerCount: 2
Fore
SplineSet
506 581 m 0
 506 550 485 550 449 550 c 1
 317 29 l 2
 308 -8 289 -8 262 -8 c 0
 233 -8 217 -8 207 30 c 2
 75 550 l 1
 39 550 18 550 18 581 c 0
 18 611 44 611 59 611 c 2
 161 611 l 2
 176 611 202 611 202 581 c 0
 202 550 181 550 146 550 c 1
 243 161 l 2
 252 124 256 107 261 72 c 1
 262 72 l 1
 269 115 288 191 301 244 c 2
 378 550 l 1
 343 550 322 550 322 581 c 0
 322 611 348 611 363 611 c 2
 465 611 l 2
 480 611 506 611 506 581 c 0
EndSplineSet
EndChar

StartChar: W
Encoding: 87 87 55
Width: 525
Flags: MW
LayerCount: 2
Fore
SplineSet
513 580 m 0
 513 550 486 550 475 550 c 1
 403 27 l 2
 398 -8 374 -8 362 -8 c 0
 355 -8 329 -8 322 17 c 0
 321 19 267 248 263 293 c 1
 262 293 l 1
 258 253 204 19 201 12 c 0
 191 -8 171 -8 162 -8 c 0
 150 -8 126 -8 121 27 c 2
 49 550 l 1
 48 550 l 2
 39 550 11 550 11 580 c 0
 11 611 37 611 52 611 c 2
 131 611 l 2
 147 611 171 611 171 580 c 0
 171 550 146 550 131 550 c 2
 106 550 l 1
 158 154 l 2
 165 100 166 81 166 76 c 1
 167 76 l 1
 172 138 219 338 222 345 c 0
 232 367 252 367 262 367 c 0
 271 367 294 367 303 344 c 1
 304 338 351 140 357 76 c 1
 358 76 l 1
 359 104 366 156 374 217 c 2
 418 550 l 1
 393 550 l 2
 378 550 353 550 353 580 c 0
 353 611 377 611 393 611 c 2
 472 611 l 2
 487 611 513 611 513 580 c 0
EndSplineSet
EndChar

StartChar: X
Encoding: 88 88 56
Width: 525
Flags: MW
LayerCount: 2
Fore
SplineSet
496 30 m 0
 496 0 470 0 455 0 c 2
 351 0 l 2
 336 0 311 0 311 30 c 0
 311 61 333 61 356 61 c 1
 257 255 l 1
 165 61 l 1
 188 61 212 61 212 30 c 0
 212 0 186 0 171 0 c 2
 67 0 l 2
 52 0 27 0 27 30 c 0
 27 61 51 61 67 61 c 2
 89 61 l 1
 222 325 l 1
 102 550 l 1
 79 550 l 2
 64 550 38 550 38 581 c 0
 38 611 64 611 79 611 c 2
 183 611 l 2
 198 611 223 611 223 581 c 0
 223 550 200 550 180 550 c 1
 257 404 l 1
 328 550 l 1
 305 550 282 550 282 581 c 0
 282 611 307 611 322 611 c 2
 426 611 l 2
 441 611 467 611 467 580 c 0
 467 550 441 550 426 550 c 2
 404 550 l 1
 291 326 l 1
 432 61 l 1
 455 61 l 2
 470 61 496 61 496 30 c 0
EndSplineSet
EndChar

StartChar: Y
Encoding: 89 89 57
Width: 525
Flags: MW
LayerCount: 2
Fore
SplineSet
505 580 m 0
 505 550 480 550 465 550 c 2
 444 550 l 1
 297 244 l 1
 297 61 l 1
 322 61 l 2
 338 61 362 61 362 30 c 0
 362 0 337 0 322 0 c 2
 203 0 l 2
 187 0 163 0 163 31 c 0
 163 61 188 61 203 61 c 2
 228 61 l 1
 228 244 l 1
 80 550 l 1
 59 550 l 2
 43 550 19 550 19 581 c 0
 19 611 44 611 59 611 c 2
 163 611 l 2
 178 611 203 611 203 581 c 0
 203 550 181 550 157 550 c 1
 167 529 248 365 262 314 c 1
 367 550 l 1
 343 550 321 550 321 581 c 0
 321 611 346 611 361 611 c 2
 465 611 l 2
 481 611 505 611 505 580 c 0
EndSplineSet
EndChar

StartChar: Z
Encoding: 90 90 58
Width: 525
Flags: MW
LayerCount: 2
Fore
SplineSet
481 41 m 2
 481 9 474 0 441 0 c 2
 89 0 l 2
 70 0 48 0 48 34 c 0
 48 44 48 50 58 65 c 2
 387 550 l 1
 129 550 l 1
 129 497 l 2
 129 477 129 456 94 456 c 0
 60 456 60 478 60 497 c 2
 60 570 l 2
 60 603 68 611 101 611 c 2
 435 611 l 2
 454 611 476 611 476 577 c 0
 476 567 476 561 466 546 c 2
 137 61 l 1
 412 61 l 1
 412 133 l 2
 412 153 412 174 447 174 c 0
 481 174 481 152 481 133 c 2
 481 41 l 2
EndSplineSet
EndChar

StartChar: bracketleft
Encoding: 91 91 59
Width: 525
Flags: MW
LayerCount: 2
Fore
SplineSet
483 -53 m 0
 483 -83 458 -83 443 -83 c 2
 262 -83 l 2
 228 -83 222 -73 222 -42 c 2
 222 653 l 2
 222 685 229 694 262 694 c 2
 443 694 l 2
 459 694 483 694 483 663 c 0
 483 633 458 633 443 633 c 2
 291 633 l 1
 291 -22 l 1
 443 -22 l 2
 459 -22 483 -22 483 -53 c 0
EndSplineSet
EndChar

StartChar: backslash
Encoding: 92 92 60
Width: 525
Flags: MW
LayerCount: 2
Fore
SplineSet
466 -48 m 0
 466 -66 451 -83 431 -83 c 0
 409 -83 401 -66 396 -56 c 2
 65 635 l 2
 62 641 58 651 58 659 c 0
 58 677 73 694 93 694 c 0
 115 694 123 677 128 667 c 2
 459 -24 l 2
 462 -30 466 -40 466 -48 c 0
EndSplineSet
EndChar

StartChar: bracketright
Encoding: 93 93 61
Width: 525
Flags: MW
LayerCount: 2
Fore
SplineSet
302 -42 m 2
 302 -74 295 -83 262 -83 c 2
 81 -83 l 2
 65 -83 41 -83 41 -52 c 0
 41 -22 66 -22 81 -22 c 2
 233 -22 l 1
 233 633 l 1
 81 633 l 2
 65 633 41 633 41 664 c 0
 41 694 66 694 81 694 c 2
 262 694 l 2
 296 694 302 684 302 653 c 2
 302 -42 l 2
EndSplineSet
EndChar

StartChar: asciicircum
Encoding: 94 94 62
Width: 525
Flags: MW
LayerCount: 2
Fore
SplineSet
437 543 m 2
 472 526 448 474 413 489 c 2
 262 554 l 1
 111 489 l 2
 77 474 53 526 88 543 c 2
 251 622 l 2
 258 625 267 625 274 622 c 2
 437 543 l 2
EndSplineSet
EndChar

StartChar: grave
Encoding: 96 96 64
Width: 525
Flags: MW
LayerCount: 2
Fore
SplineSet
368 528 m 0
 368 520 361 488 335 488 c 0
 328 488 323 490 317 493 c 2
 184 552 l 2
 160 563 156 576 156 587 c 0
 156 607 171 622 191 622 c 1
 191 622 199 622 210 617 c 2
 343 557 l 2
 357 551 368 546 368 528 c 0
EndSplineSet
EndChar

StartChar: a
Encoding: 97 97 65
Width: 525
Flags: MW
LayerCount: 2
Fore
SplineSet
519 31 m 0
 519 0 497 0 469 0 c 0
 431 0 383 1 361 32 c 1
 314 1 252 -6 215 -6 c 0
 113 -6 50 59 50 128 c 0
 50 224 173 274 350 277 c 1
 350 348 298 379 222 379 c 0
 213 379 200 379 186 378 c 0
 166 376 165 375 165 367 c 0
 164 330 136 321 121 321 c 0
 97 321 76 337 76 367 c 0
 76 440 178 440 221 440 c 0
 365 440 419 356 419 285 c 2
 419 69 l 1
 427 66 437 61 479 61 c 0
 494 61 519 61 519 31 c 0
350 134 m 2
 350 218 l 1
 205 214 119 177 119 128 c 0
 119 89 160 55 222 55 c 0
 230 55 275 55 311 72 c 0
 350 90 350 111 350 134 c 2
EndSplineSet
EndChar

StartChar: b
Encoding: 98 98 66
Width: 525
Flags: MW
LayerCount: 2
Fore
SplineSet
488 216 m 0
 488 89 391 -6 282 -6 c 0
 250 -6 207 3 166 45 c 1
 166 20 166 0 132 0 c 0
 97 0 97 21 97 41 c 2
 97 550 l 1
 52 550 l 2
 38 550 12 550 12 580 c 0
 12 611 37 611 53 611 c 2
 126 611 l 2
 160 611 166 601 166 570 c 2
 166 388 l 1
 200 419 245 437 293 437 c 0
 399 437 488 339 488 216 c 0
419 216 m 0
 419 303 361 376 287 376 c 0
 224 376 166 323 166 264 c 2
 166 191 l 2
 166 143 201 55 279 55 c 0
 349 55 419 120 419 216 c 0
EndSplineSet
EndChar

StartChar: c
Encoding: 99 99 67
Width: 525
Flags: MW
LayerCount: 2
Fore
SplineSet
466 109 m 0
 466 92 432 -6 293 -6 c 0
 167 -6 73 96 73 216 c 0
 73 304 133 440 305 440 c 0
 350 440 454 440 454 367 c 0
 454 338 433 321 409 321 c 0
 385 321 366 335 365 370 c 0
 365 379 326 379 305 379 c 0
 170 379 142 264 142 216 c 0
 142 125 214 55 299 55 c 0
 373 55 392 102 398 115 c 1
 405 135 415 137 431 137 c 0
 437 137 466 137 466 109 c 0
EndSplineSet
EndChar

StartChar: d
Encoding: 100 100 68
Width: 525
Flags: MW
LayerCount: 2
Fore
SplineSet
512 31 m 0
 512 0 487 0 471 0 c 2
 398 0 l 2
 358 0 358 14 358 50 c 1
 330 21 288 -6 232 -6 c 0
 126 -6 36 91 36 215 c 0
 36 342 132 437 241 437 c 0
 284 437 325 421 358 392 c 1
 358 550 l 1
 313 550 l 2
 299 550 273 550 273 580 c 0
 273 611 298 611 314 611 c 2
 387 611 l 2
 421 611 427 601 427 570 c 2
 427 61 l 1
 472 61 l 2
 486 61 512 61 512 31 c 0
358 194 m 2
 358 265 l 2
 358 320 309 376 245 376 c 0
 175 376 105 311 105 215 c 0
 105 126 165 55 236 55 c 0
 313 55 358 138 358 194 c 2
EndSplineSet
EndChar

StartChar: e
Encoding: 101 101 69
Width: 525
Flags: MW
LayerCount: 2
Fore
SplineSet
464 109 m 0
 464 84 417 -6 285 -6 c 0
 156 -6 55 95 55 217 c 0
 55 340 151 440 270 440 c 0
 400 440 464 342 464 228 c 0
 464 191 445 191 424 191 c 2
 126 191 l 1
 142 105 217 55 292 55 c 0
 320 55 374 64 396 115 c 1
 403 134 411 137 429 137 c 0
 435 137 464 137 464 109 c 0
393 251 m 1
 384 354 322 379 270 379 c 0
 200 379 141 324 127 251 c 1
 393 251 l 1
EndSplineSet
EndChar

StartChar: f
Encoding: 102 102 70
Width: 525
Flags: MW
LayerCount: 2
Fore
SplineSet
437 557 m 0
 437 529 414 513 394 513 c 0
 359 513 350 552 350 556 c 1
 320 556 253 556 253 478 c 2
 253 431 l 1
 375 431 l 2
 391 431 415 431 415 400 c 0
 415 370 390 370 375 370 c 2
 253 370 l 1
 253 61 l 1
 354 61 l 2
 369 61 395 61 395 30 c 0
 395 0 369 0 354 0 c 2
 83 0 l 2
 68 0 42 0 42 31 c 0
 42 61 68 61 83 61 c 2
 184 61 l 1
 184 370 l 1
 83 370 l 2
 68 370 43 370 43 400 c 0
 43 431 68 431 84 431 c 2
 184 431 l 1
 184 484 l 2
 184 571 261 617 341 617 c 0
 357 617 437 617 437 557 c 0
EndSplineSet
EndChar

StartChar: g
Encoding: 103 103 71
Width: 525
Flags: MW
LayerCount: 2
Fore
SplineSet
509 388 m 0
 509 359 486 347 469 347 c 0
 459 347 436 354 430 381 c 1
 417 380 393 376 372 364 c 1
 389 336 398 307 398 277 c 0
 398 188 325 116 233 116 c 0
 184 116 146 139 143 141 c 1
 139 131 137 117 137 113 c 1
 137 113 138 91 149 77 c 0
 161 63 167 63 182 63 c 1
 190 61 203 61 211 61 c 2
 281 61 l 2
 371 61 413 39 426 32 c 0
 477 5 495 -45 495 -82 c 0
 495 -167 390 -229 262 -229 c 0
 134 -229 29 -168 29 -82 c 0
 29 -71 29 -3 103 42 c 1
 94 54 80 79 80 114 c 0
 80 144 89 166 100 182 c 1
 85 201 68 234 68 277 c 0
 68 362 139 437 233 437 c 0
 279 437 314 418 330 407 c 1
 376 441 425 442 436 442 c 0
 490 442 509 411 509 388 c 0
329 277 m 0
 329 330 287 377 233 377 c 0
 181 377 137 333 137 276 c 0
 137 223 179 176 233 176 c 0
 285 176 329 220 329 277 c 0
437 -82 m 0
 437 4 324 4 235 4 c 0
 162 4 153 4 128 -12 c 0
 96 -32 87 -64 87 -82 c 0
 87 -126 162 -169 262 -169 c 0
 362 -169 437 -126 437 -82 c 0
EndSplineSet
EndChar

StartChar: h
Encoding: 104 104 72
Width: 525
Flags: MW
LayerCount: 2
Fore
SplineSet
512 30 m 0
 512 0 486 0 472 0 c 2
 319 0 l 2
 305 0 278 0 278 30 c 0
 278 61 303 61 319 61 c 2
 358 61 l 1
 358 288 l 2
 358 348 344 376 291 376 c 0
 240 376 166 338 166 238 c 2
 166 61 l 1
 210 61 l 2
 226 61 251 61 251 30 c 0
 251 0 225 0 211 0 c 2
 52 0 l 2
 38 0 12 0 12 30 c 0
 12 61 37 61 53 61 c 2
 97 61 l 1
 97 550 l 1
 52 550 l 2
 38 550 12 550 12 580 c 0
 12 611 37 611 53 611 c 2
 126 611 l 2
 160 611 166 601 166 570 c 2
 166 384 l 1
 185 403 230 437 297 437 c 0
 376 437 427 394 427 293 c 2
 427 61 l 1
 471 61 l 2
 487 61 512 61 512 30 c 0
EndSplineSet
EndChar

StartChar: k
Encoding: 107 107 75
Width: 525
Flags: MW
LayerCount: 2
Fore
SplineSet
508 30 m 0
 508 0 482 0 467 0 c 2
 349 0 l 2
 334 0 309 0 309 30 c 0
 309 61 329 61 365 61 c 1
 246 216 l 1
 166 142 l 1
 166 61 l 1
 215 61 l 2
 231 61 255 61 255 30 c 0
 255 0 230 0 215 0 c 2
 61 0 l 2
 45 0 21 0 21 31 c 0
 21 61 46 61 61 61 c 2
 110 61 l 1
 110 550 l 1
 61 550 l 2
 45 550 21 550 21 581 c 0
 21 611 46 611 61 611 c 2
 126 611 l 2
 160 611 166 601 166 570 c 2
 166 218 l 1
 328 370 l 1
 291 370 l 2
 276 370 251 370 251 400 c 0
 251 431 275 431 291 431 c 2
 445 431 l 2
 460 431 486 431 486 400 c 0
 486 370 460 370 445 370 c 2
 410 370 l 1
 287 255 l 1
 436 61 l 1
 467 61 l 2
 482 61 508 61 508 30 c 0
EndSplineSet
EndChar

StartChar: l
Encoding: 108 108 76
Width: 525
Flags: MW
LayerCount: 2
Fore
SplineSet
467 30 m 0
 467 0 442 0 427 0 c 2
 98 0 l 2
 84 0 58 0 58 30 c 0
 58 61 83 61 99 61 c 2
 228 61 l 1
 228 550 l 1
 98 550 l 2
 84 550 58 550 58 580 c 0
 58 611 83 611 99 611 c 2
 257 611 l 2
 291 611 297 601 297 570 c 2
 297 61 l 1
 427 61 l 2
 443 61 467 61 467 30 c 0
EndSplineSet
EndChar

StartChar: m
Encoding: 109 109 77
Width: 525
Flags: MW
LayerCount: 2
Fore
SplineSet
516 30 m 0
 516 0 490 0 475 0 c 2
 400 0 l 2
 386 0 359 0 359 30 c 0
 359 61 384 61 403 61 c 1
 403 294 l 2
 403 359 389 376 366 376 c 0
 325 376 284 329 284 240 c 2
 284 61 l 1
 320 61 341 61 341 30 c 0
 341 0 315 0 300 0 c 2
 225 0 l 2
 211 0 184 0 184 30 c 0
 184 61 209 61 228 61 c 1
 228 294 l 2
 228 359 214 376 191 376 c 0
 150 376 109 329 109 240 c 2
 109 61 l 1
 145 61 166 61 166 30 c 0
 166 0 140 0 125 0 c 2
 37 0 l 2
 23 0 -4 0 -4 30 c 0
 -4 61 17 61 53 61 c 1
 53 370 l 1
 17 370 -4 370 -4 401 c 0
 -4 431 22 431 37 431 c 2
 69 431 l 2
 87 431 107 431 109 401 c 1
 133 423 163 437 195 437 c 0
 228 437 256 419 271 385 c 1
 299 424 340 437 370 437 c 0
 459 437 459 323 459 303 c 2
 459 61 l 1
 495 61 516 61 516 30 c 0
EndSplineSet
EndChar

StartChar: n
Encoding: 110 110 78
Width: 525
Flags: MW
LayerCount: 2
Fore
SplineSet
512 30 m 0
 512 0 486 0 472 0 c 2
 319 0 l 2
 305 0 278 0 278 30 c 0
 278 61 303 61 319 61 c 2
 358 61 l 1
 358 288 l 2
 358 348 344 376 291 376 c 0
 240 376 166 338 166 238 c 2
 166 61 l 1
 210 61 l 2
 226 61 251 61 251 30 c 0
 251 0 225 0 211 0 c 2
 52 0 l 2
 38 0 12 0 12 30 c 0
 12 61 37 61 53 61 c 2
 97 61 l 1
 97 370 l 1
 52 370 l 2
 38 370 12 370 12 400 c 0
 12 431 37 431 53 431 c 2
 126 431 l 2
 166 431 166 416 166 384 c 1
 185 403 230 437 297 437 c 0
 376 437 427 394 427 293 c 2
 427 61 l 1
 471 61 l 2
 487 61 512 61 512 30 c 0
EndSplineSet
EndChar

StartChar: o
Encoding: 111 111 79
Width: 525
Flags: MW
LayerCount: 2
Fore
SplineSet
467 216 m 0
 467 90 372 -6 262 -6 c 0
 152 -6 57 89 57 216 c 0
 57 341 150 440 262 440 c 0
 374 440 467 341 467 216 c 0
398 223 m 0
 398 314 334 379 262 379 c 0
 191 379 126 314 126 223 c 0
 126 130 188 55 262 55 c 0
 336 55 398 130 398 223 c 0
EndSplineSet
EndChar

StartChar: p
Encoding: 112 112 80
Width: 525
Flags: MW
LayerCount: 2
Fore
SplineSet
488 216 m 0
 488 89 391 -6 282 -6 c 0
 250 -6 207 3 166 45 c 1
 166 -161 l 1
 210 -161 l 2
 226 -161 251 -161 251 -192 c 0
 251 -222 225 -222 211 -222 c 2
 52 -222 l 2
 38 -222 12 -222 12 -192 c 0
 12 -161 37 -161 53 -161 c 2
 97 -161 l 1
 97 370 l 1
 52 370 l 2
 38 370 12 370 12 400 c 0
 12 431 37 431 53 431 c 2
 126 431 l 2
 164 431 166 417 166 388 c 1
 200 419 245 437 293 437 c 0
 399 437 488 339 488 216 c 0
419 216 m 0
 419 303 361 376 287 376 c 0
 224 376 166 323 166 264 c 2
 166 191 l 2
 166 143 201 55 279 55 c 0
 349 55 419 120 419 216 c 0
EndSplineSet
EndChar

StartChar: q
Encoding: 113 113 81
Width: 525
Flags: MW
LayerCount: 2
Fore
SplineSet
537 -192 m 0
 537 -222 512 -222 497 -222 c 2
 330 -222 l 2
 314 -222 290 -222 290 -191 c 0
 290 -161 315 -161 330 -161 c 2
 379 -161 l 1
 379 54 l 1
 358 31 312 -6 244 -6 c 0
 134 -6 40 91 40 215 c 0
 40 342 142 437 254 437 c 0
 311 437 352 411 379 382 c 1
 379 420 379 437 414 437 c 0
 448 437 448 415 448 396 c 2
 448 -161 l 1
 497 -161 l 2
 513 -161 537 -161 537 -192 c 0
379 194 m 2
 379 233 l 2
 379 299 334 376 259 376 c 0
 179 376 109 307 109 215 c 0
 109 125 174 55 248 55 c 0
 330 55 379 137 379 194 c 2
EndSplineSet
EndChar

StartChar: r
Encoding: 114 114 82
Width: 525
Flags: MW
LayerCount: 2
Fore
SplineSet
487 375 m 0
 487 348 467 332 445 332 c 0
 420 332 403 352 402 376 c 1
 281 376 222 280 222 186 c 2
 222 61 l 1
 333 61 l 2
 348 61 374 61 374 30 c 0
 374 0 348 0 333 0 c 2
 72 0 l 2
 56 0 32 0 32 31 c 0
 32 61 57 61 72 61 c 2
 153 61 l 1
 153 370 l 1
 72 370 l 2
 56 370 32 370 32 401 c 0
 32 431 57 431 72 431 c 2
 182 431 l 2
 216 431 222 421 222 390 c 2
 222 356 l 1
 277 419 341 437 392 437 c 0
 475 437 487 395 487 375 c 0
EndSplineSet
EndChar

StartChar: s
Encoding: 115 115 83
Width: 525
Flags: MW
LayerCount: 2
Fore
SplineSet
459 125 m 0
 459 77 427 -6 269 -6 c 0
 241 -6 188 -4 139 32 c 1
 127 -5 111 -6 102 -6 c 0
 72 -6 72 19 72 35 c 2
 72 132 l 2
 72 152 72 173 107 173 c 0
 133 173 137 162 142 144 c 0
 167 66 223 55 270 55 c 0
 361 55 398 88 398 125 c 0
 398 178 318 191 269 199 c 0
 177 213 72 230 72 322 c 0
 72 358 95 440 262 440 c 0
 281 440 325 440 369 419 c 1
 371 426 375 440 399 440 c 0
 429 440 429 415 429 399 c 2
 429 330 l 2
 429 310 429 289 394 289 c 0
 363 289 361 306 360 323 c 0
 357 349 343 379 260 379 c 0
 165 379 133 348 133 322 c 0
 133 283 201 271 230 267 c 1
 298 255 l 2
 330 250 459 229 459 125 c 0
EndSplineSet
EndChar

StartChar: t
Encoding: 116 116 84
Width: 525
Flags: MW
LayerCount: 2
Fore
SplineSet
449 126 m 0
 449 37 368 -6 294 -6 c 0
 221 -6 153 30 153 126 c 2
 153 370 l 1
 65 370 l 2
 50 370 25 370 25 400 c 0
 25 431 50 431 66 431 c 2
 153 431 l 1
 153 513 l 2
 153 533 153 554 188 554 c 0
 222 554 222 532 222 513 c 2
 222 431 l 1
 386 431 l 2
 402 431 426 431 426 400 c 0
 426 370 401 370 386 370 c 2
 222 370 l 1
 222 132 l 2
 222 107 222 55 299 55 c 0
 322 55 379 65 380 127 c 0
 380 144 381 165 414 165 c 0
 449 165 449 144 449 126 c 0
EndSplineSet
EndChar

StartChar: u
Encoding: 117 117 85
Width: 525
Flags: MW
LayerCount: 2
Fore
SplineSet
512 31 m 0
 512 0 487 0 471 0 c 2
 398 0 l 2
 380 0 359 0 358 32 c 1
 321 4 280 -6 239 -6 c 0
 166 -6 97 18 97 114 c 2
 97 370 l 1
 52 370 l 2
 38 370 12 370 12 400 c 0
 12 431 37 431 53 431 c 2
 126 431 l 2
 160 431 166 421 166 390 c 2
 166 120 l 2
 166 88 166 55 245 55 c 0
 277 55 358 67 358 157 c 2
 358 370 l 1
 313 370 l 2
 299 370 273 370 273 400 c 0
 273 431 298 431 314 431 c 2
 387 431 l 2
 421 431 427 421 427 390 c 2
 427 61 l 1
 472 61 l 2
 486 61 512 61 512 31 c 0
EndSplineSet
EndChar

StartChar: v
Encoding: 118 118 86
Width: 525
Flags: MW
LayerCount: 2
Fore
SplineSet
500 400 m 0
 500 370 475 370 460 370 c 2
 430 370 l 1
 315 29 l 2
 304 -4 281 -4 262 -4 c 0
 241 -4 221 -4 209 30 c 2
 94 370 l 1
 64 370 l 2
 49 370 24 370 24 400 c 0
 24 431 48 431 64 431 c 2
 181 431 l 2
 197 431 221 431 221 400 c 0
 221 370 196 370 181 370 c 2
 153 370 l 1
 262 48 l 1
 371 370 l 1
 343 370 l 2
 327 370 303 370 303 401 c 0
 303 431 328 431 343 431 c 2
 460 431 l 2
 476 431 500 431 500 400 c 0
EndSplineSet
EndChar

StartChar: w
Encoding: 119 119 87
Width: 525
Flags: MW
LayerCount: 2
Fore
SplineSet
508 401 m 0
 508 370 487 370 457 370 c 1
 397 34 l 2
 393 12 390 -4 353 -4 c 0
 341 -4 323 -4 311 13 c 1
 307 21 270 138 265 190 c 1
 264 190 l 1
 261 168 260 154 235 66 c 0
 217 5 214 -4 174 -4 c 0
 134 -4 131 11 127 34 c 2
 67 370 l 1
 37 370 16 370 16 401 c 0
 16 431 40 431 58 431 c 2
 173 431 l 2
 192 431 215 431 215 400 c 0
 215 370 191 370 173 370 c 2
 124 370 l 1
 176 72 l 1
 177 72 l 1
 181 92 221 230 224 237 c 0
 235 259 254 259 264 259 c 0
 299 259 302 248 320 185 c 0
 332 144 345 98 349 72 c 1
 350 72 l 1
 400 370 l 1
 351 370 l 2
 332 370 309 370 309 401 c 0
 309 431 333 431 351 431 c 2
 466 431 l 2
 484 431 508 431 508 401 c 0
EndSplineSet
EndChar

StartChar: x
Encoding: 120 120 88
Width: 525
Flags: MW
LayerCount: 2
Fore
SplineSet
496 30 m 0
 496 0 469 0 455 0 c 2
 338 0 l 2
 323 0 298 0 298 30 c 0
 298 61 320 61 348 61 c 1
 259 184 l 1
 173 61 l 1
 204 61 225 61 225 30 c 0
 225 0 200 0 185 0 c 2
 68 0 l 2
 54 0 27 0 27 30 c 0
 27 61 53 61 68 61 c 2
 108 61 l 1
 232 222 l 1
 114 370 l 1
 74 370 l 2
 60 370 33 370 33 400 c 0
 33 431 59 431 74 431 c 2
 191 431 l 2
 206 431 231 431 231 401 c 0
 231 370 209 370 183 370 c 1
 259 269 l 1
 333 370 l 1
 306 370 284 370 284 401 c 0
 284 431 309 431 324 431 c 2
 441 431 l 2
 456 431 482 431 482 400 c 0
 482 370 455 370 441 370 c 2
 401 370 l 1
 287 222 l 1
 415 61 l 1
 455 61 l 2
 470 61 496 61 496 30 c 0
EndSplineSet
EndChar

StartChar: y
Encoding: 121 121 89
Width: 525
Flags: MW
LayerCount: 2
Fore
SplineSet
500 400 m 0
 500 370 475 370 460 370 c 2
 430 370 l 1
 275 -85 l 2
 271 -96 226 -228 126 -228 c 0
 77 -228 43 -188 43 -146 c 0
 43 -120 60 -102 87 -102 c 0
 112 -102 130 -120 130 -145 c 0
 130 -158 125 -167 125 -167 c 1
 140 -166 176 -164 205 -109 c 0
 218 -84 243 0 243 0 c 1
 243 0 243 3 239 13 c 2
 97 370 l 1
 66 370 l 2
 51 370 26 370 26 400 c 0
 26 431 50 431 66 431 c 2
 183 431 l 2
 199 431 223 431 223 400 c 0
 223 370 198 370 183 370 c 2
 158 370 l 1
 251 130 l 2
 258 111 267 90 272 71 c 1
 273 71 l 1
 280 102 286 120 299 157 c 2
 371 370 l 1
 343 370 l 2
 327 370 303 370 303 401 c 0
 303 431 328 431 343 431 c 2
 460 431 l 2
 476 431 500 431 500 400 c 0
EndSplineSet
EndChar

StartChar: z
Encoding: 122 122 90
Width: 525
Flags: MW
LayerCount: 2
Fore
SplineSet
475 41 m 2
 475 26 475 6 453 0 c 1
 74 0 l 2
 55 0 33 0 33 34 c 0
 33 51 34 54 55 74 c 2
 367 370 l 1
 118 370 l 1
 118 344 l 2
 118 324 118 303 83 303 c 0
 49 303 49 325 49 344 c 2
 49 390 l 2
 49 423 57 431 90 431 c 2
 430 431 l 2
 449 431 471 431 471 397 c 0
 471 380 470 377 449 357 c 2
 137 61 l 1
 406 61 l 1
 406 99 l 2
 406 119 406 140 441 140 c 0
 475 140 475 118 475 99 c 2
 475 41 l 2
EndSplineSet
EndChar

StartChar: braceleft
Encoding: 123 123 91
Width: 525
Flags: MW
LayerCount: 2
Fore
SplineSet
467 -52 m 0
 467 -83 443 -83 425 -83 c 0
 377 -83 322 -76 280 -53 c 0
 228 -24 228 21 228 51 c 2
 228 217 l 1
 226 271 117 274 91 275 c 0
 81 275 57 276 57 306 c 0
 57 330 77 336 83 336 c 0
 106 336 156 337 192 352 c 0
 228 368 228 383 228 419 c 2
 228 509 l 2
 228 537 228 587 229 593 c 0
 246 681 355 694 425 694 c 0
 443 694 467 694 467 663 c 0
 467 639 447 633 441 633 c 0
 406 633 318 631 300 593 c 0
 297 585 297 545 297 520 c 2
 297 388 l 1
 296 363 281 330 239 305 c 1
 294 275 297 234 297 209 c 2
 297 48 l 2
 297 17 297 -19 433 -22 c 0
 442 -22 467 -23 467 -52 c 0
EndSplineSet
EndChar

StartChar: bar
Encoding: 124 124 92
Width: 525
Flags: MW
LayerCount: 2
Fore
SplineSet
297 -36 m 2
 297 -48 297 -83 262 -83 c 0
 227 -83 227 -48 227 -36 c 2
 227 647 l 2
 227 659 227 694 262 694 c 0
 297 694 297 659 297 647 c 2
 297 -36 l 2
EndSplineSet
EndChar

StartChar: braceright
Encoding: 125 125 93
Width: 525
Flags: MW
LayerCount: 2
Fore
SplineSet
467 305 m 0
 467 281 447 275 441 275 c 0
 417 275 369 274 333 259 c 0
 297 243 297 228 297 192 c 2
 297 102 l 2
 297 74 297 24 296 18 c 0
 281 -63 186 -83 99 -83 c 0
 82 -83 57 -83 57 -52 c 0
 57 -28 77 -22 83 -22 c 0
 228 -20 228 16 228 45 c 2
 228 223 l 2
 228 227 230 274 286 306 c 1
 243 329 228 361 228 401 c 2
 228 562 l 2
 228 595 228 631 90 633 c 0
 76 633 57 637 57 663 c 0
 57 694 82 694 99 694 c 0
 134 694 197 690 245 664 c 0
 297 635 297 590 297 562 c 2
 297 395 l 1
 299 339 409 337 433 336 c 0
 443 336 467 335 467 305 c 0
EndSplineSet
EndChar

StartChar: asciitilde
Encoding: 126 126 94
Width: 525
Flags: MW
LayerCount: 2
Fore
SplineSet
438 334 m 0
 438 316 409 294 389 279 c 0
 366 262 338 246 311 246 c 0
 277 246 257 267 244 280 c 0
 231 292 223 301 213 301 c 0
 199 301 173 285 143 257 c 0
 136 251 130 246 119 246 c 0
 103 246 88 262 88 278 c 0
 88 296 117 318 137 333 c 0
 160 350 188 366 215 366 c 0
 249 366 269 345 282 332 c 0
 295 320 303 311 313 311 c 0
 327 311 353 327 383 355 c 0
 390 361 396 366 407 366 c 0
 423 366 438 350 438 334 c 0
EndSplineSet
EndChar

StartChar: exclamdown
Encoding: 161 161 96
Width: 525
Flags: HMW
LayerCount: 2
Fore
SplineSet
312 -176 m 1
 312 -229 271 -233 262 -233 c 0
 253 -233 212 -229 212 -176 c 0
 212 -123 216 -68 217 -16 c 2
 221 157 l 1
 223 197 227 205 262 205 c 0
 274 205 301 205 302 180 c 2
 305 58 l 1
 312 -176 l 1
EndSplineSet
Refer: 371 729 N 1 0 0 1 -1 -216 2
EndChar

StartChar: cent
Encoding: 162 162 97
Width: 525
Flags: MW
LayerCount: 2
Fore
SplineSet
466 109 m 0
 466 93 436 7 320 -5 c 1
 320 -62 l 2
 320 -79 306 -93 289 -93 c 0
 272 -93 258 -79 258 -62 c 2
 258 -3 l 1
 150 14 73 107 73 216 c 0
 73 295 122 414 258 436 c 1
 258 493 l 2
 258 510 272 524 289 524 c 0
 306 524 320 510 320 493 c 2
 320 440 l 1
 369 439 454 433 454 367 c 0
 454 338 433 321 409 321 c 0
 385 321 366 335 365 370 c 0
 365 377 340 379 320 379 c 1
 320 56 l 1
 377 64 393 103 398 115 c 0
 405 135 415 137 431 137 c 0
 437 137 466 137 466 109 c 0
258 61 m 1
 258 374 l 1
 163 350 142 258 142 216 c 0
 142 140 192 79 258 61 c 1
EndSplineSet
EndChar

StartChar: sterling
Encoding: 163 163 98
Width: 525
Flags: MW
LayerCount: 2
Fore
SplineSet
507 144 m 0
 507 65 465 -11 394 -11 c 0
 341 -11 299 25 257 56 c 1
 231 14 174 -11 114 -11 c 0
 61 -11 18 30 18 82 c 0
 18 141 80 176 144 176 c 0
 162 176 178 172 193 166 c 1
 183 202 165 236 148 271 c 1
 83 271 l 2
 64 271 48 286 48 306 c 0
 48 325 64 341 83 341 c 2
 115 341 l 1
 104 369 96 399 96 431 c 0
 96 530 176 611 276 611 c 0
 371 611 455 543 455 451 c 0
 455 427 435 407 411 407 c 0
 387 407 367 427 367 451 c 0
 367 463 372 473 379 481 c 1
 364 518 321 541 276 541 c 0
 215 541 166 491 166 431 c 0
 166 399 174 369 185 341 c 1
 346 341 l 2
 365 341 381 325 381 306 c 0
 381 286 365 271 346 271 c 2
 218 271 l 1
 243 221 269 171 271 116 c 1
 309 87 346 59 394 59 c 0
 429 59 437 103 437 144 c 0
 437 163 453 179 472 179 c 0
 492 179 507 163 507 144 c 0
199 93 m 1
 182 101 164 106 144 106 c 0
 118 106 88 105 88 82 c 0
 88 69 100 59 114 59 c 0
 150 59 188 68 199 93 c 1
EndSplineSet
EndChar

StartChar: currency
Encoding: 164 164 99
Width: 525
Flags: MW
LayerCount: 2
Fore
SplineSet
421 147 m 0
 396 122 372 147 363 155 c 2
 340 179 l 1
 317 165 291 157 263 157 c 0
 234 157 207 165 185 179 c 1
 162 156 l 2
 153 148 128 123 104 148 c 1
 79 172 104 197 112 206 c 2
 135 229 l 1
 122 251 114 278 114 306 c 0
 114 334 122 361 135 383 c 1
 111 407 l 2
 103 416 78 440 103 465 c 0
 128 490 152 465 161 457 c 2
 185 433 l 1
 207 447 234 455 263 455 c 0
 291 455 317 447 340 433 c 1
 362 456 l 2
 371 464 396 489 420 464 c 1
 445 440 420 415 412 406 c 2
 389 384 l 1
 403 361 411 335 411 306 c 0
 411 277 403 251 389 228 c 1
 413 205 l 2
 421 196 446 172 421 147 c 0
341 306 m 0
 341 349 306 385 263 385 c 0
 219 385 184 349 184 306 c 0
 184 263 219 227 263 227 c 0
 306 227 341 263 341 306 c 0
EndSplineSet
EndChar

StartChar: yen
Encoding: 165 165 100
Width: 525
Flags: MW
LayerCount: 2
Fore
SplineSet
505 580 m 0
 505 550 480 550 465 550 c 2
 444 550 l 1
 381 419 l 1
 420 419 l 2
 439 419 455 403 455 384 c 0
 455 364 439 349 420 349 c 2
 347 349 l 1
 306 263 l 1
 420 263 l 2
 439 263 455 248 455 228 c 0
 455 209 439 193 420 193 c 2
 297 193 l 1
 297 61 l 1
 322 61 l 2
 338 61 362 61 362 30 c 0
 362 0 337 0 322 0 c 2
 203 0 l 2
 187 0 163 0 163 31 c 0
 163 61 188 61 203 61 c 2
 228 61 l 1
 228 193 l 1
 105 193 l 2
 86 193 70 209 70 228 c 0
 70 248 86 263 105 263 c 2
 219 263 l 1
 177 349 l 1
 105 349 l 2
 86 349 70 364 70 384 c 0
 70 403 86 419 105 419 c 2
 143 419 l 1
 80 550 l 1
 59 550 l 2
 43 550 19 550 19 581 c 0
 19 611 44 611 59 611 c 2
 163 611 l 2
 178 611 203 611 203 581 c 0
 203 550 181 550 157 550 c 1
 219 419 l 1
 309 419 l 1
 367 550 l 1
 343 550 321 550 321 581 c 0
 321 611 346 611 361 611 c 2
 465 611 l 2
 481 611 505 611 505 580 c 0
278 349 m 1
 250 349 l 1
 255 335 260 323 262 314 c 1
 278 349 l 1
EndSplineSet
EndChar

StartChar: brokenbar
Encoding: 166 166 101
Width: 525
Flags: MW
LayerCount: 2
Fore
SplineSet
297 407 m 2
 297 389 281 376 262 376 c 0
 243 376 227 389 227 407 c 2
 227 647 l 2
 227 659 227 694 262 694 c 0
 297 694 297 659 297 647 c 2
 297 407 l 2
297 -36 m 2
 297 -48 297 -83 262 -83 c 0
 227 -83 227 -48 227 -36 c 2
 227 204 l 2
 227 222 243 235 262 235 c 0
 281 235 297 222 297 204 c 2
 297 -36 l 2
EndSplineSet
EndChar

StartChar: section
Encoding: 167 167 102
Width: 525
Flags: MW
LayerCount: 2
Fore
SplineSet
490 194 m 0
 490 151 467 114 433 92 c 1
 447 73 456 50 456 25 c 0
 456 -66 362 -122 263 -122 c 0
 167 -122 70 -80 70 5 c 0
 70 29 90 49 114 49 c 0
 138 49 158 29 158 5 c 0
 158 -5 154 -15 149 -22 c 1
 168 -48 218 -52 263 -52 c 0
 324 -52 386 -28 386 25 c 0
 386 71 333 89 286 105 c 2
 183 140 l 2
 104 167 36 226 36 306 c 0
 36 348 59 386 93 407 c 1
 79 427 70 449 70 475 c 0
 70 566 164 622 263 622 c 0
 359 622 456 580 456 495 c 0
 456 471 436 451 412 451 c 0
 388 451 368 471 368 495 c 0
 368 505 372 515 377 522 c 1
 358 548 308 552 263 552 c 0
 202 552 140 528 140 475 c 0
 140 429 193 411 240 395 c 2
 343 360 l 2
 422 333 490 274 490 194 c 0
420 194 m 0
 420 245 371 276 320 294 c 2
 217 329 l 2
 192 337 168 348 146 361 c 1
 122 355 106 331 106 306 c 0
 106 255 155 224 206 206 c 2
 309 171 l 2
 334 162 358 151 380 138 c 1
 404 145 420 168 420 194 c 0
EndSplineSet
EndChar

StartChar: dieresis
Encoding: 168 168 103
Width: 525
Flags: MW
LayerCount: 2
Fore
SplineSet
225 555 m 0
 225 530 205 510 180 510 c 0
 155 510 135 530 135 555 c 0
 135 581 155 600 180 600 c 0
 205 600 225 581 225 555 c 0
390 555 m 0
 390 530 370 510 345 510 c 0
 320 510 300 530 300 555 c 0
 300 581 320 600 345 600 c 0
 370 600 390 581 390 555 c 0
EndSplineSet
EndChar

StartChar: copyright
Encoding: 169 169 104
Width: 525
Flags: MW
LayerCount: 2
Fore
SplineSet
525 263 m 0
 525 118 407 0 263 0 c 0
 118 0 0 118 0 263 c 0
 0 407 118 525 263 525 c 0
 407 525 525 407 525 263 c 0
487 263 m 0
 487 386 386 487 263 487 c 0
 139 487 38 386 38 263 c 0
 38 139 139 38 263 38 c 0
 386 38 487 139 487 263 c 0
362 188 m 0
 362 140 316 92 253 92 c 0
 183 92 123 164 123 263 c 0
 123 361 183 433 253 433 c 0
 280 433 305 423 323 407 c 1
 330 421 330 422 331 424 c 0
 334 428 336 433 346 433 c 0
 362 433 362 420 362 411 c 2
 362 336 l 2
 362 325 362 314 343 314 c 0
 327 314 326 323 325 332 c 0
 317 376 287 400 255 400 c 0
 207 400 160 343 160 263 c 0
 160 182 206 125 255 125 c 0
 278 125 321 138 325 190 c 0
 326 206 339 206 343 206 c 0
 349 206 362 206 362 188 c 0
EndSplineSet
EndChar

StartChar: ordfeminine
Encoding: 170 170 105
Width: 525
Flags: MW
LayerCount: 2
Fore
SplineSet
427 336 m 0
 427 314 411 314 392 314 c 0
 365 314 331 315 316 337 c 1
 283 315 240 310 214 310 c 0
 142 310 98 355 98 404 c 0
 98 471 184 506 308 508 c 1
 308 558 272 579 219 579 c 2
 194 579 l 1
 180 577 179 577 179 571 c 0
 178 545 159 539 148 539 c 0
 131 539 117 550 117 571 c 0
 117 622 188 622 218 622 c 0
 319 622 357 563 357 514 c 2
 357 362 l 1
 362 360 369 357 399 357 c 0
 409 357 427 357 427 336 c 0
396 258 m 0
 396 246 382 237 365 237 c 2
 160 237 l 2
 143 237 129 246 129 258 c 0
 129 270 143 280 160 280 c 2
 365 280 l 2
 382 280 396 270 396 258 c 0
308 408 m 2
 308 467 l 1
 207 464 147 438 147 404 c 0
 147 376 175 353 219 353 c 0
 224 353 256 353 281 365 c 0
 308 377 308 392 308 408 c 2
EndSplineSet
EndChar

StartChar: guillemotleft
Encoding: 171 171 106
Width: 525
Flags: HMW
LayerCount: 2
Fore
SplineSet
316 113 m 0
 316 92 305 81 294 81 c 0
 289 81 286 82 276 90 c 2
 58 278 l 2
 52 284 47 294 47 306 c 0
 47 323 55 330 61 336 c 2
 276 522 l 2
 286 530 289 531 294 531 c 0
 305 531 316 520 316 499 c 0
 316 482 308 475 301 469 c 2
 113 306 l 1
 301 143 l 2
 308 137 316 130 316 113 c 0
EndSplineSet
Refer: 931 8249 N 1 0 0 1 81 0 2
EndChar

StartChar: logicalnot
Encoding: 172 172 107
Width: 525
Flags: MW
LayerCount: 2
Fore
SplineSet
486 230 m 2
 486 211 470 195 451 195 c 0
 432 195 416 211 416 230 c 2
 416 347 l 1
 73 347 l 2
 54 347 38 363 38 382 c 0
 38 401 54 417 73 417 c 2
 451 417 l 2
 470 417 486 401 486 382 c 2
 486 230 l 2
EndSplineSet
EndChar

StartChar: registered
Encoding: 174 174 109
Width: 525
Flags: MW
LayerCount: 2
Fore
SplineSet
525 263 m 0
 525 118 407 0 263 0 c 0
 118 0 0 118 0 263 c 0
 0 407 118 525 263 525 c 0
 407 525 525 407 525 263 c 0
487 263 m 0
 487 386 386 487 263 487 c 0
 139 487 38 386 38 263 c 0
 38 139 139 38 263 38 c 0
 386 38 487 139 487 263 c 0
412 151 m 0
 412 130 399 95 365 95 c 0
 347 95 332 103 323 119 c 0
 313 137 313 153 313 188 c 0
 313 211 313 223 301 234 c 0
 283 249 267 249 257 249 c 2
 215 249 l 1
 215 134 l 1
 228 134 l 2
 237 134 250 134 250 117 c 0
 250 101 236 101 228 101 c 2
 164 101 l 2
 156 101 143 101 143 117 c 0
 143 134 156 134 164 134 c 2
 178 134 l 1
 178 397 l 1
 164 397 l 2
 156 397 143 397 143 414 c 0
 143 430 156 430 164 430 c 2
 260 430 l 2
 323 430 364 386 364 340 c 0
 364 318 354 285 319 265 c 1
 326 259 338 247 345 232 c 0
 350 219 350 215 350 181 c 0
 350 152 350 128 365 128 c 0
 374 128 375 148 375 152 c 0
 376 168 388 168 394 168 c 0
 399 168 412 168 412 151 c 0
327 340 m 0
 327 366 303 397 254 397 c 2
 215 397 l 1
 215 282 l 1
 254 282 l 2
 303 282 327 313 327 340 c 0
EndSplineSet
EndChar

StartChar: macron
Encoding: 175 175 110
Width: 525
Flags: MW
LayerCount: 2
Fore
SplineSet
452 555 m 0
 452 524 428 524 412 524 c 2
 115 524 l 2
 98 524 74 524 74 556 c 0
 74 587 98 587 114 587 c 2
 412 587 l 2
 429 587 452 587 452 555 c 0
EndSplineSet
EndChar

StartChar: degree
Encoding: 176 176 111
Width: 525
Flags: MW
LayerCount: 2
Fore
SplineSet
408 465 m 0
 408 385 343 319 263 319 c 0
 182 319 117 385 117 465 c 0
 117 546 182 611 263 611 c 0
 343 611 408 546 408 465 c 0
338 465 m 0
 338 507 304 541 263 541 c 0
 221 541 187 507 187 465 c 0
 187 423 221 389 263 389 c 0
 304 389 338 423 338 465 c 0
EndSplineSet
EndChar

StartChar: plusminus
Encoding: 177 177 112
Width: 525
Flags: MW
LayerCount: 2
Fore
SplineSet
486 35 m 0
 486 0 451 0 439 0 c 2
 85 0 l 2
 73 0 38 0 38 35 c 0
 38 70 73 70 85 70 c 2
 227 70 l 1
 227 190 l 1
 85 190 l 2
 73 190 38 190 38 225 c 0
 38 260 73 260 85 260 c 2
 227 260 l 1
 227 403 l 2
 227 415 227 450 262 450 c 0
 297 450 297 415 297 403 c 2
 297 260 l 1
 439 260 l 2
 451 260 486 260 486 225 c 0
 486 190 451 190 439 190 c 2
 297 190 l 1
 297 70 l 1
 439 70 l 2
 451 70 486 70 486 35 c 0
EndSplineSet
EndChar

StartChar: two.superior
Encoding: 178 178 113
Width: 525
Flags: MW
LayerCount: 2
Fore
SplineSet
368 332 m 2
 368 316 364 311 348 311 c 2
 178 311 l 2
 170 311 158 311 158 327 c 0
 158 334 161 336 165 340 c 2
 276 433 l 2
 309 461 333 490 333 525 c 0
 333 569 295 592 254 592 c 0
 226 592 203 576 195 553 c 1
 200 550 202 543 202 537 c 0
 202 523 191 515 180 515 c 0
 172 515 158 520 158 539 c 0
 158 581 197 622 256 622 c 0
 317 622 368 585 368 525 c 0
 368 485 345 453 313 425 c 1
 292 405 244 367 214 342 c 1
 333 342 l 1
 333 356 333 365 351 365 c 0
 368 365 368 354 368 345 c 2
 368 332 l 2
EndSplineSet
EndChar

StartChar: three.superior
Encoding: 179 179 114
Width: 525
Flags: MW
LayerCount: 2
Fore
SplineSet
372 398 m 0
 372 352 329 306 264 306 c 0
 202 306 154 335 154 379 c 0
 154 395 165 403 176 403 c 0
 189 403 198 393 198 381 c 0
 198 371 195 368 192 365 c 1
 205 342 244 336 264 336 c 0
 309 336 337 368 337 398 c 0
 337 427 312 461 262 461 c 2
 239 461 l 2
 231 461 219 461 219 476 c 0
 219 491 227 491 255 493 c 0
 273 494 286 495 302 508 c 0
 315 519 323 536 323 551 c 0
 323 574 298 592 264 592 c 0
 259 592 224 592 208 576 c 1
 210 575 213 570 213 563 c 0
 213 549 201 540 191 540 c 0
 181 540 168 547 168 564 c 0
 168 598 203 622 263 622 c 0
 321 622 357 589 357 552 c 0
 357 525 343 496 315 478 c 1
 348 463 372 434 372 398 c 0
EndSplineSet
EndChar

StartChar: acute
Encoding: 180 180 115
Width: 525
Flags: MW
LayerCount: 2
Fore
SplineSet
369 587 m 0
 369 576 365 563 341 552 c 2
 208 493 l 2
 202 490 197 488 190 488 c 0
 164 488 157 520 157 528 c 0
 157 546 168 551 182 557 c 2
 315 617 l 2
 326 622 334 622 334 622 c 1
 354 622 369 607 369 587 c 0
EndSplineSet
EndChar

StartChar: uni00B5
Encoding: 181 181 116
Width: 525
Flags: MW
LayerCount: 2
Fore
SplineSet
513 30 m 0
 513 0 487 0 470 0 c 2
 401 0 l 2
 383 0 359 0 357 31 c 1
 326 8 290 -6 239 -6 c 0
 228 -6 195 -6 166 5 c 1
 166 -161 l 1
 208 -161 l 2
 226 -161 251 -161 251 -192 c 0
 251 -222 225 -222 208 -222 c 2
 54 -222 l 2
 36 -222 11 -222 11 -191 c 0
 11 -161 37 -161 54 -161 c 2
 96 -161 l 1
 96 369 l 1
 54 369 l 2
 36 369 11 369 11 400 c 0
 11 430 37 430 54 430 c 2
 123 430 l 2
 159 430 166 422 166 387 c 2
 166 121 l 2
 166 87 166 55 245 55 c 0
 259 55 293 55 326 81 c 0
 358 107 358 137 358 158 c 2
 358 369 l 1
 316 369 l 2
 298 369 273 369 273 400 c 0
 273 430 299 430 316 430 c 2
 385 430 l 2
 421 430 428 422 428 387 c 2
 428 61 l 1
 470 61 l 2
 488 61 513 61 513 30 c 0
EndSplineSet
EndChar

StartChar: paragraph
Encoding: 182 182 117
Width: 525
Flags: MW
LayerCount: 2
Fore
SplineSet
500 674 m 0
 500 654 484 654 472 654 c 2
 429 654 l 1
 429 -161 l 2
 429 -175 429 -194 412 -194 c 0
 394 -194 394 -175 394 -161 c 2
 394 654 l 1
 334 654 l 1
 334 -161 l 2
 334 -175 334 -194 317 -194 c 0
 300 -194 300 -175 300 -161 c 2
 300 230 l 1
 190 235 48 306 48 463 c 0
 48 589 143 694 263 694 c 2
 472 694 l 2
 484 694 500 694 500 674 c 0
EndSplineSet
EndChar

StartChar: cedilla
Encoding: 184 184 119
Width: 525
Flags: MW
LayerCount: 2
Fore
SplineSet
428 -106 m 0
 428 -208 288 -208 193 -208 c 0
 178 -208 162 -200 162 -177 c 0
 162 -146 184 -146 222 -146 c 0
 260 -146 359 -146 359 -106 c 0
 359 -86 336 -68 292 -66 c 0
 260 -64 260 -44 260 -24 c 2
 260 3 l 2
 260 23 260 45 295 45 c 0
 329 45 329 28 329 -9 c 1
 400 -23 428 -67 428 -106 c 0
EndSplineSet
EndChar

StartChar: one.superior
Encoding: 185 185 120
Width: 525
Flags: MW
LayerCount: 2
Fore
SplineSet
347 326 m 0
 347 311 334 311 327 311 c 2
 201 311 l 2
 194 311 181 311 181 326 c 0
 181 342 193 342 201 342 c 2
 247 342 l 1
 247 553 l 1
 225 534 204 531 195 531 c 0
 187 531 178 533 178 546 c 0
 178 560 189 561 197 561 c 0
 206 562 232 568 251 610 c 0
 254 616 257 622 266 622 c 0
 281 622 281 610 281 602 c 2
 281 342 l 1
 327 342 l 2
 335 342 347 342 347 326 c 0
EndSplineSet
EndChar

StartChar: ordmasculine
Encoding: 186 186 121
Width: 525
Flags: MW
LayerCount: 2
Fore
SplineSet
406 465 m 0
 406 377 339 310 263 310 c 0
 186 310 119 376 119 465 c 0
 119 553 184 622 263 622 c 0
 341 622 406 553 406 465 c 0
375 258 m 0
 375 246 361 237 344 237 c 2
 181 237 l 2
 164 237 150 246 150 258 c 0
 150 270 164 280 181 280 c 2
 344 280 l 2
 361 280 375 270 375 258 c 0
358 470 m 0
 358 534 313 579 263 579 c 0
 213 579 167 534 167 470 c 0
 167 405 211 353 263 353 c 0
 314 353 358 405 358 470 c 0
EndSplineSet
EndChar

StartChar: guillemotright
Encoding: 187 187 122
Width: 525
Flags: HMW
LayerCount: 2
Fore
SplineSet
315 306 m 0
 315 294 310 284 304 278 c 2
 86 90 l 2
 76 82 74 81 68 81 c 0
 57 81 46 92 46 113 c 0
 46 130 54 137 61 143 c 2
 249 306 l 1
 61 469 l 2
 54 475 46 482 46 499 c 0
 46 520 57 531 68 531 c 0
 74 531 76 530 86 522 c 2
 301 336 l 2
 307 330 315 323 315 306 c 0
EndSplineSet
Refer: 932 8250 N 1 0 0 1 80 0 2
EndChar

StartChar: onequarter
Encoding: 188 188 123
Width: 525
Flags: HMW
LayerCount: 2
Fore
SplineSet
499 100 m 0
 499 85 487 85 479 85 c 2
 440 85 l 1
 440 31 l 1
 471 31 l 2
 479 31 491 31 491 15 c 0
 491 0 479 0 471 0 c 2
 381 0 l 2
 374 0 361 0 361 15 c 0
 361 31 373 31 381 31 c 2
 412 31 l 1
 412 85 l 1
 286 85 l 2
 271 85 266 88 266 105 c 0
 266 115 266 116 271 122 c 2
 385 301 l 2
 391 311 394 312 406 312 c 2
 420 312 l 2
 437 312 440 308 440 291 c 2
 440 115 l 1
 479 115 l 2
 487 115 499 115 499 100 c 0
481 591 m 0
 481 585 480 579 477 574 c 2
 162 3 l 2
 156 -8 144 -15 131 -15 c 0
 112 -15 96 1 96 20 c 0
 96 26 98 32 101 37 c 2
 416 608 l 2
 422 619 433 626 446 626 c 0
 466 626 481 610 481 591 c 0
412 115 m 1
 412 290 l 1
 301 115 l 1
 412 115 l 1
EndSplineSet
Refer: 120 185 N 1 0 0 1 -152 0 2
EndChar

StartChar: onehalf
Encoding: 189 189 124
Width: 525
Flags: HMW
LayerCount: 2
Fore
SplineSet
499 21 m 2
 499 5 496 0 479 0 c 2
 310 0 l 2
 302 0 289 0 289 16 c 0
 289 23 292 25 297 29 c 2
 407 122 l 2
 440 150 465 179 465 214 c 0
 465 258 426 281 385 281 c 0
 358 281 334 265 327 242 c 1
 331 239 334 232 334 226 c 0
 334 212 322 204 312 204 c 0
 303 204 289 209 289 228 c 0
 289 270 329 311 388 311 c 0
 449 311 499 274 499 214 c 0
 499 174 476 142 445 114 c 0
 423 94 375 56 346 31 c 1
 465 31 l 1
 465 45 465 54 482 54 c 0
 499 54 499 43 499 34 c 2
 499 21 l 2
455 591 m 0
 455 585 453 579 451 574 c 2
 136 3 l 2
 130 -8 118 -15 105 -15 c 0
 86 -15 70 1 70 20 c 0
 70 26 72 32 74 37 c 2
 389 608 l 2
 395 619 407 626 420 626 c 0
 439 626 455 610 455 591 c 0
EndSplineSet
Refer: 120 185 N 1 0 0 1 -152 0 2
EndChar

StartChar: threequarters
Encoding: 190 190 125
Width: 525
Flags: MW
LayerCount: 2
Fore
SplineSet
240 398 m 0
 240 352 198 306 132 306 c 0
 71 306 22 335 22 379 c 0
 22 395 33 403 45 403 c 0
 57 403 67 393 67 381 c 0
 67 371 63 368 61 365 c 1
 74 342 112 336 132 336 c 0
 178 336 206 368 206 398 c 0
 206 427 180 461 131 461 c 2
 108 461 l 2
 100 461 88 461 88 476 c 0
 88 491 95 491 124 493 c 0
 142 494 154 495 170 508 c 0
 184 519 191 536 191 551 c 0
 191 574 166 592 132 592 c 0
 128 592 92 592 77 576 c 1
 78 575 81 570 81 563 c 0
 81 549 70 540 59 540 c 0
 49 540 37 547 37 564 c 0
 37 598 72 622 132 622 c 0
 189 622 226 589 226 552 c 0
 226 525 212 496 184 478 c 1
 217 463 240 434 240 398 c 0
499 100 m 0
 499 85 487 85 479 85 c 2
 440 85 l 1
 440 31 l 1
 471 31 l 2
 479 31 491 31 491 15 c 0
 491 0 479 0 471 0 c 2
 381 0 l 2
 374 0 361 0 361 15 c 0
 361 31 373 31 381 31 c 2
 412 31 l 1
 412 85 l 1
 286 85 l 2
 271 85 266 88 266 105 c 0
 266 115 266 116 271 122 c 2
 385 301 l 2
 391 311 394 312 406 312 c 2
 420 312 l 2
 437 312 440 308 440 291 c 2
 440 115 l 1
 479 115 l 2
 487 115 499 115 499 100 c 0
481 591 m 0
 481 585 480 579 477 574 c 2
 162 3 l 2
 156 -8 144 -15 131 -15 c 0
 112 -15 96 1 96 20 c 0
 96 26 98 32 101 37 c 2
 416 608 l 2
 422 619 433 626 446 626 c 0
 466 626 481 610 481 591 c 0
412 115 m 1
 412 290 l 1
 301 115 l 1
 412 115 l 1
EndSplineSet
EndChar

StartChar: questiondown
Encoding: 191 191 126
Width: 525
Flags: HMW
LayerCount: 2
Fore
SplineSet
462 -106 m 0
 462 -228 280 -228 248 -228 c 0
 70 -228 62 -128 62 -104 c 0
 62 -46 104 -18 121 -6 c 0
 203 49 207 115 207 147 c 2
 207 164 l 2
 207 200 217 205 247 205 c 0
 287 205 287 192 287 153 c 0
 287 113 287 28 162 -56 c 0
 150 -64 131 -77 131 -104 c 0
 131 -167 229 -167 249 -167 c 0
 265 -167 348 -167 382 -133 c 1
 375 -125 373 -114 373 -104 c 0
 373 -76 396 -59 417 -59 c 0
 438 -59 462 -74 462 -106 c 0
EndSplineSet
Refer: 371 729 N 1 0 0 1 -16 -216 2
EndChar

StartChar: Acircumflex
Encoding: 194 194 129
Width: 525
Flags: HMW
LayerCount: 2
Fore
SplineSet
391 721 m 2
 426 708 408 654 372 665 c 2
 263 698 l 1
 154 665 l 2
 118 654 100 708 136 721 c 2
 254 764 l 2
 260 766 267 766 273 764 c 2
 391 721 l 2
EndSplineSet
Refer: 33 65 N 1 0 0 1 0 0 2
EndChar

StartChar: Adieresis
Encoding: 196 196 131
Width: 525
Flags: HMW
LayerCount: 2
Fore
SplineSet
210 708 m 0
 210 683 190 663 165 663 c 0
 140 663 120 683 120 708 c 0
 120 734 140 753 165 753 c 0
 190 753 210 734 210 708 c 0
405 708 m 0
 405 683 385 663 360 663 c 0
 335 663 315 683 315 708 c 0
 315 734 335 753 360 753 c 0
 385 753 405 734 405 708 c 0
EndSplineSet
Refer: 33 65 N 1 0 0 1 0 0 2
EndChar

StartChar: AE
Encoding: 198 198 133
Width: 525
Flags: MW
LayerCount: 2
Fore
SplineSet
499 41 m 2
 499 9 492 0 459 0 c 2
 265 0 l 2
 249 0 224 0 224 31 c 0
 224 61 250 61 264 61 c 1
 264 183 l 1
 153 183 l 1
 128 61 l 1
 151 61 174 61 174 30 c 0
 174 0 149 0 134 0 c 2
 63 0 l 2
 48 0 23 0 23 30 c 0
 23 61 45 61 71 61 c 1
 170 550 l 1
 154 550 130 550 130 581 c 0
 130 611 155 611 170 611 c 2
 451 611 l 2
 485 611 491 601 491 570 c 2
 491 497 l 2
 491 483 491 456 463 456 c 0
 435 456 435 483 435 497 c 2
 435 550 l 1
 320 550 l 1
 320 347 l 1
 435 347 l 2
 451 347 475 347 475 316 c 0
 475 286 450 286 435 286 c 2
 320 286 l 1
 320 61 l 1
 443 61 l 1
 443 130 l 2
 443 144 443 171 471 171 c 0
 499 171 499 144 499 130 c 2
 499 41 l 2
264 244 m 1
 264 550 l 1
 227 550 l 1
 165 244 l 1
 264 244 l 1
EndSplineSet
EndChar

StartChar: Ccedilla
Encoding: 199 199 134
Width: 525
Flags: MW
LayerCount: 2
Fore
SplineSet
484 168 m 0
 484 94 427 21 342 -3 c 1
 342 -9 l 1
 413 -23 441 -67 441 -106 c 0
 441 -208 301 -208 206 -208 c 0
 191 -208 175 -200 175 -177 c 0
 175 -146 197 -146 235 -146 c 0
 273 -146 372 -146 372 -106 c 0
 372 -86 349 -68 305 -66 c 0
 273 -64 273 -44 273 -24 c 2
 273 -11 l 1
 147 -5 40 127 40 306 c 0
 40 488 152 622 281 622 c 0
 332 622 378 602 411 574 c 1
 424 599 424 601 426 605 c 0
 431 612 436 622 454 622 c 0
 484 622 484 597 484 581 c 2
 484 442 l 2
 484 422 484 401 449 401 c 0
 419 401 417 417 414 434 c 0
 400 515 345 561 285 561 c 0
 196 561 109 455 109 306 c 0
 109 156 195 50 286 50 c 0
 327 50 408 74 415 172 c 0
 417 201 440 201 449 201 c 0
 460 201 484 201 484 168 c 0
EndSplineSet
EndChar

StartChar: Ecircumflex
Encoding: 202 202 137
Width: 525
Flags: HMW
LayerCount: 2
Fore
SplineSet
391 721 m 2
 426 708 408 654 372 665 c 2
 263 698 l 1
 154 665 l 2
 118 654 100 708 136 721 c 2
 254 764 l 2
 260 766 267 766 273 764 c 2
 391 721 l 2
EndSplineSet
Refer: 37 69 N 1 0 0 1 0 0 2
EndChar

StartChar: Edieresis
Encoding: 203 203 138
Width: 525
Flags: HMW
LayerCount: 2
Fore
SplineSet
210 708 m 0
 210 683 190 663 165 663 c 0
 140 663 120 683 120 708 c 0
 120 734 140 753 165 753 c 0
 190 753 210 734 210 708 c 0
405 708 m 0
 405 683 385 663 360 663 c 0
 335 663 315 683 315 708 c 0
 315 734 335 753 360 753 c 0
 385 753 405 734 405 708 c 0
EndSplineSet
Refer: 37 69 N 1 0 0 1 0 0 2
EndChar

StartChar: Icircumflex
Encoding: 206 206 141
Width: 525
Flags: HMW
LayerCount: 2
Fore
SplineSet
391 721 m 2
 426 708 408 654 372 665 c 2
 263 698 l 1
 154 665 l 2
 118 654 100 708 136 721 c 2
 254 764 l 2
 260 766 267 766 273 764 c 2
 391 721 l 2
EndSplineSet
Refer: 41 73 N 1 0 0 1 0 0 2
EndChar

StartChar: Idieresis
Encoding: 207 207 142
Width: 525
Flags: HMW
LayerCount: 2
Fore
SplineSet
210 708 m 0
 210 683 190 663 165 663 c 0
 140 663 120 683 120 708 c 0
 120 734 140 753 165 753 c 0
 190 753 210 734 210 708 c 0
405 708 m 0
 405 683 385 663 360 663 c 0
 335 663 315 683 315 708 c 0
 315 734 335 753 360 753 c 0
 385 753 405 734 405 708 c 0
EndSplineSet
Refer: 41 73 N 1 0 0 1 0 0 2
EndChar

StartChar: Eth
Encoding: 208 208 143
Width: 525
Flags: MW
LayerCount: 2
Fore
SplineSet
485 301 m 0
 485 140 397 0 266 0 c 2
 60 0 l 2
 45 0 19 0 19 30 c 0
 19 61 44 61 60 61 c 2
 82 61 l 1
 82 275 l 1
 54 275 l 2
 37 275 23 288 23 306 c 0
 23 323 37 337 54 337 c 2
 82 337 l 1
 82 550 l 1
 60 550 l 2
 45 550 19 550 19 580 c 0
 19 611 44 611 60 611 c 2
 266 611 l 2
 399 611 485 461 485 301 c 0
416 301 m 0
 416 417 360 550 247 550 c 2
 151 550 l 1
 151 337 l 1
 210 337 l 2
 227 337 241 323 241 306 c 0
 241 288 227 275 210 275 c 2
 151 275 l 1
 151 61 l 1
 247 61 l 2
 358 61 416 184 416 301 c 0
EndSplineSet
EndChar

StartChar: Ocircumflex
Encoding: 212 212 147
Width: 525
Flags: HMW
LayerCount: 2
Fore
SplineSet
391 721 m 2
 426 708 408 654 372 665 c 2
 263 698 l 1
 154 665 l 2
 118 654 100 708 136 721 c 2
 254 764 l 2
 260 766 267 766 273 764 c 2
 391 721 l 2
EndSplineSet
Refer: 47 79 N 1 0 0 1 0 0 2
EndChar

StartChar: Odieresis
Encoding: 214 214 149
Width: 525
Flags: HMW
LayerCount: 2
Fore
SplineSet
210 708 m 0
 210 683 190 663 165 663 c 0
 140 663 120 683 120 708 c 0
 120 734 140 753 165 753 c 0
 190 753 210 734 210 708 c 0
405 708 m 0
 405 683 385 663 360 663 c 0
 335 663 315 683 315 708 c 0
 315 734 335 753 360 753 c 0
 385 753 405 734 405 708 c 0
EndSplineSet
Refer: 47 79 N 1 0 0 1 0 0 2
EndChar

StartChar: multiply
Encoding: 215 215 150
Width: 525
Flags: MW
LayerCount: 2
Fore
SplineSet
421 147 m 0
 396 122 372 147 363 155 c 2
 262 257 l 1
 162 156 l 2
 153 148 128 123 104 148 c 1
 79 172 104 197 112 206 c 2
 213 306 l 1
 111 407 l 2
 103 416 78 440 103 465 c 0
 128 490 152 465 161 457 c 2
 262 355 l 1
 362 456 l 2
 371 464 396 489 420 464 c 1
 445 440 420 415 412 406 c 2
 311 306 l 1
 413 205 l 2
 421 196 446 172 421 147 c 0
EndSplineSet
EndChar

StartChar: Oslash
Encoding: 216 216 151
Width: 525
Flags: MW
LayerCount: 2
Fore
SplineSet
468 305 m 0
 468 16 446 -11 262 -11 c 0
 239 -11 218 -11 192 -9 c 1
 177 -55 l 2
 173 -68 168 -85 147 -85 c 1
 147 -85 115 -83 115 -55 c 1
 115 -55 115 -47 132 4 c 1
 82 26 69 69 61 147 c 0
 56 195 56 260 56 305 c 0
 56 595 77 622 262 622 c 0
 285 622 306 622 332 620 c 1
 347 666 l 2
 351 679 356 696 377 696 c 1
 377 696 409 694 409 666 c 1
 409 666 409 658 392 607 c 1
 457 579 468 510 468 305 c 0
412 306 m 0
 412 509 391 524 370 540 c 1
 212 53 l 1
 212 53 218 51 223 51 c 0
 234 50 236 50 262 50 c 0
 341 50 382 57 399 117 c 0
 412 165 412 245 412 306 c 0
312 558 m 1
 312 558 306 560 301 560 c 0
 290 561 288 561 262 561 c 0
 183 561 142 554 125 494 c 0
 112 446 112 366 112 305 c 0
 112 102 133 87 154 71 c 1
 312 558 l 1
EndSplineSet
EndChar

StartChar: Ucircumflex
Encoding: 219 219 154
Width: 525
Flags: HMW
LayerCount: 2
Fore
SplineSet
391 721 m 2
 426 708 408 654 372 665 c 2
 263 698 l 1
 154 665 l 2
 118 654 100 708 136 721 c 2
 254 764 l 2
 260 766 267 766 273 764 c 2
 391 721 l 2
EndSplineSet
Refer: 53 85 N 1 0 0 1 0 0 2
EndChar

StartChar: Udieresis
Encoding: 220 220 155
Width: 525
Flags: HMW
LayerCount: 2
Fore
SplineSet
210 708 m 0
 210 683 190 663 165 663 c 0
 140 663 120 683 120 708 c 0
 120 734 140 753 165 753 c 0
 190 753 210 734 210 708 c 0
405 708 m 0
 405 683 385 663 360 663 c 0
 335 663 315 683 315 708 c 0
 315 734 335 753 360 753 c 0
 385 753 405 734 405 708 c 0
EndSplineSet
Refer: 53 85 N 1 0 0 1 0 0 2
EndChar

StartChar: Thorn
Encoding: 222 222 157
Width: 525
Flags: MW
LayerCount: 2
Fore
SplineSet
476 333 m 0
 476 249 410 159 293 159 c 2
 178 159 l 1
 178 61 l 1
 196 61 229 61 233 60 c 0
 255 55 255 35 255 30 c 0
 255 0 230 0 212 0 c 2
 74 0 l 2
 56 0 31 0 31 30 c 0
 31 58 54 60 56 61 c 1
 108 61 l 1
 108 550 l 1
 90 550 57 550 53 551 c 0
 31 556 31 576 31 581 c 0
 31 611 56 611 74 611 c 2
 212 611 l 2
 230 611 255 611 255 581 c 0
 255 553 232 551 230 550 c 1
 178 550 l 1
 178 507 l 1
 292 507 l 2
 413 507 476 415 476 333 c 0
406 333 m 0
 406 376 374 446 278 446 c 2
 178 446 l 1
 178 220 l 1
 268 220 l 2
 367 220 406 286 406 333 c 0
EndSplineSet
EndChar

StartChar: germandbls
Encoding: 223 223 158
Width: 525
Flags: MW
LayerCount: 2
Fore
SplineSet
495 175 m 0
 495 65 404 -6 312 -6 c 0
 244 -6 210 32 210 69 c 0
 210 96 230 111 251 111 c 0
 264 111 276 104 283 95 c 0
 290 85 290 83 290 59 c 1
 296 56 305 55 312 55 c 0
 365 55 426 98 426 175 c 0
 426 230 397 362 262 370 c 1
 262 370 238 375 238 400 c 0
 238 423 254 430 266 431 c 0
 368 434 397 485 397 507 c 0
 397 531 350 556 288 556 c 0
 262 556 237 552 214 542 c 0
 180 527 180 514 180 494 c 2
 180 41 l 2
 180 9 173 0 140 0 c 2
 57 0 l 2
 42 0 17 0 17 30 c 0
 17 61 41 61 57 61 c 2
 111 61 l 1
 111 370 l 1
 57 370 l 2
 42 370 17 370 17 400 c 0
 17 431 41 431 57 431 c 2
 111 431 l 1
 111 501 l 2
 111 594 225 617 289 617 c 0
 385 617 466 573 466 508 c 0
 466 478 452 432 383 395 c 1
 480 327 495 224 495 175 c 0
EndSplineSet
EndChar

StartChar: ae
Encoding: 230 230 165
Width: 525
Flags: MW
LayerCount: 2
Fore
SplineSet
504 109 m 0
 504 89 474 -6 389 -6 c 0
 324 -6 283 53 276 63 c 1
 250 19 197 -6 147 -6 c 0
 75 -6 33 59 33 118 c 0
 33 201 122 247 234 248 c 1
 234 281 l 2
 234 344 203 379 154 379 c 0
 142 379 128 379 128 375 c 0
 128 372 129 369 129 366 c 0
 126 324 93 321 85 321 c 0
 61 321 40 337 40 367 c 0
 40 400 65 440 157 440 c 0
 211 440 248 411 272 368 c 1
 302 420 344 440 379 440 c 0
 451 440 504 366 504 233 c 0
 504 202 500 191 464 191 c 2
 292 191 l 1
 300 106 350 55 394 55 c 0
 416 55 438 73 448 112 c 0
 450 118 454 137 476 137 c 0
 492 137 504 124 504 109 c 0
447 251 m 1
 442 347 409 379 379 379 c 0
 336 379 298 315 292 251 c 1
 447 251 l 1
234 189 m 1
 155 186 89 162 89 119 c 0
 89 89 112 55 153 55 c 0
 160 55 188 57 211 76 c 0
 233 94 233 115 233 134 c 0
 233 163 233 178 234 189 c 1
EndSplineSet
EndChar

StartChar: ccedilla
Encoding: 231 231 166
Width: 525
Flags: MW
LayerCount: 2
Fore
SplineSet
466 109 m 0
 466 94 440 18 342 -1 c 1
 342 -9 l 1
 413 -23 441 -67 441 -106 c 0
 441 -208 301 -208 206 -208 c 0
 191 -208 175 -200 175 -177 c 0
 175 -146 197 -146 235 -146 c 0
 273 -146 372 -146 372 -106 c 0
 372 -86 349 -68 305 -66 c 0
 273 -64 273 -44 273 -24 c 2
 273 -5 l 1
 157 5 73 102 73 216 c 0
 73 304 133 440 305 440 c 0
 350 440 454 440 454 367 c 0
 454 338 433 321 409 321 c 0
 385 321 366 335 365 370 c 0
 365 379 326 379 305 379 c 0
 170 379 142 264 142 216 c 0
 142 125 214 55 299 55 c 0
 373 55 392 102 398 115 c 1
 405 135 415 137 431 137 c 0
 437 137 466 137 466 109 c 0
EndSplineSet
EndChar

StartChar: eth
Encoding: 240 240 175
Width: 525
Flags: MW
LayerCount: 2
Fore
SplineSet
467 231 m 0
 467 196 467 130 414 67 c 0
 369 14 311 -6 262 -6 c 0
 151 -6 57 91 57 215 c 0
 57 341 151 439 262 439 c 0
 297 439 325 428 331 426 c 1
 311 453 282 478 264 491 c 1
 249 500 l 1
 161 464 l 2
 156 462 151 461 146 461 c 0
 128 461 114 474 114 490 c 0
 114 504 124 516 138 522 c 2
 173 536 l 1
 159 540 145 544 131 546 c 0
 117 548 105 549 95 549 c 0
 64 550 64 577 64 577 c 1
 64 589 76 611 106 611 c 0
 160 611 213 597 261 572 c 1
 351 608 l 2
 356 610 361 611 366 611 c 0
 384 611 398 599 398 583 c 0
 398 569 388 556 374 551 c 2
 323 530 l 1
 467 413 467 276 467 231 c 0
398 219 m 0
 398 299 341 378 263 378 c 0
 192 378 128 313 128 223 c 0
 128 129 190 55 263 55 c 0
 341 55 398 137 398 219 c 0
EndSplineSet
EndChar

StartChar: oslash
Encoding: 248 248 183
Width: 525
Flags: MW
LayerCount: 2
Fore
SplineSet
481 541 m 0
 481 538 481 532 474 520 c 2
 399 390 l 1
 448 345 479 283 479 216 c 0
 479 92 380 -6 262 -6 c 0
 244 -6 213 -4 179 11 c 1
 102 -121 l 2
 98 -129 91 -140 75 -140 c 0
 63 -140 43 -130 43 -110 c 0
 43 -102 53 -84 60 -72 c 2
 126 42 l 1
 67 93 45 158 45 216 c 0
 45 338 141 440 262 440 c 0
 302 440 330 429 347 422 c 1
 422 552 l 2
 427 561 433 571 449 571 c 0
 461 571 481 561 481 541 c 0
423 216 m 0
 423 252 410 301 368 338 c 1
 210 63 l 1
 229 57 235 55 262 55 c 0
 350 55 423 126 423 216 c 0
316 370 m 1
 296 377 290 379 262 379 c 0
 174 379 101 306 101 216 c 0
 101 181 112 135 156 94 c 1
 316 370 l 1
EndSplineSet
EndChar

StartChar: thorn
Encoding: 254 254 189
Width: 525
Flags: MW
LayerCount: 2
Fore
SplineSet
488 216 m 0
 488 89 391 -6 282 -6 c 0
 250 -6 207 3 166 45 c 1
 166 -161 l 1
 210 -161 l 2
 226 -161 251 -161 251 -192 c 0
 251 -222 225 -222 211 -222 c 2
 52 -222 l 2
 38 -222 12 -222 12 -192 c 0
 12 -161 37 -161 53 -161 c 2
 97 -161 l 1
 97 550 l 1
 52 550 l 2
 38 550 12 550 12 580 c 0
 12 611 37 611 53 611 c 2
 126 611 l 2
 160 611 166 601 166 570 c 2
 166 388 l 1
 200 419 245 437 293 437 c 0
 399 437 488 339 488 216 c 0
419 216 m 0
 419 303 361 376 287 376 c 0
 224 376 166 323 166 264 c 2
 166 191 l 2
 166 143 201 55 279 55 c 0
 349 55 419 120 419 216 c 0
EndSplineSet
EndChar

StartChar: Aogonek
Encoding: 260 260 195
Width: 525
Flags: MW
LayerCount: 2
Fore
SplineSet
497 30 m 0
 497 0 471 0 454 0 c 2
 433 0 l 1
 380 -31 346 -67 346 -110 c 0
 346 -134 372 -149 390 -149 c 0
 410 -149 433 -128 444 -112 c 1
 450 -106 472 -102 481 -107 c 1
 489 -114 493 -135 486 -144 c 0
 462 -177 424 -203 386 -203 c 0
 323 -203 287 -151 287 -108 c 0
 287 -61 313 -25 352 0 c 1
 334 0 310 0 310 30 c 0
 310 61 330 61 366 61 c 1
 343 165 l 1
 181 165 l 1
 158 61 l 1
 194 61 214 61 214 30 c 0
 214 0 190 0 172 0 c 2
 70 0 l 2
 53 0 27 0 27 30 c 0
 27 43 33 53 44 59 c 1
 50 61 73 61 87 61 c 1
 208 585 l 2
 217 623 233 623 262 623 c 0
 293 623 307 622 316 584 c 2
 437 61 l 1
 452 61 474 61 480 58 c 0
 492 53 497 43 497 30 c 0
328 226 m 1
 262 540 l 1
 196 226 l 1
 328 226 l 1
EndSplineSet
EndChar

StartChar: aogonek
Encoding: 261 261 196
Width: 525
Flags: MW
LayerCount: 2
Fore
SplineSet
519 31 m 0
 519 0 497 0 469 0 c 1
 416 -31 377 -67 377 -110 c 0
 377 -134 403 -149 421 -149 c 0
 441 -149 464 -128 475 -112 c 1
 481 -106 503 -102 512 -107 c 1
 520 -114 524 -135 517 -144 c 0
 493 -177 455 -203 417 -203 c 0
 354 -203 318 -151 318 -108 c 0
 318 -61 355 -16 394 9 c 1
 381 13 369 21 361 32 c 1
 314 1 252 -6 215 -6 c 0
 113 -6 50 59 50 128 c 0
 50 224 173 274 350 277 c 1
 350 348 298 379 222 379 c 0
 213 379 200 379 186 378 c 0
 166 376 165 375 165 367 c 0
 164 330 136 321 121 321 c 0
 97 321 76 337 76 367 c 0
 76 440 178 440 221 440 c 0
 365 440 419 356 419 285 c 2
 419 69 l 1
 427 66 437 61 479 61 c 0
 494 61 519 61 519 31 c 0
350 134 m 2
 350 218 l 1
 205 214 119 177 119 128 c 0
 119 89 160 55 222 55 c 0
 230 55 275 55 311 72 c 0
 350 90 350 111 350 134 c 2
EndSplineSet
EndChar

StartChar: Ccircumflex
Encoding: 264 264 199
Width: 525
Flags: HMW
LayerCount: 2
Fore
SplineSet
418 721 m 2
 453 708 435 654 399 665 c 2
 290 698 l 1
 181 665 l 2
 145 654 127 708 163 721 c 2
 281 764 l 2
 287 766 294 766 300 764 c 2
 418 721 l 2
EndSplineSet
Refer: 35 67 N 1 0 0 1 0 0 2
EndChar

StartChar: Ccaron
Encoding: 268 268 203
Width: 525
Flags: HMW
LayerCount: 2
Fore
SplineSet
417 708 m 2
 299 665 l 2
 293 663 286 663 280 665 c 2
 162 708 l 2
 127 721 145 775 181 764 c 2
 290 731 l 1
 399 764 l 2
 435 775 453 721 417 708 c 2
EndSplineSet
Refer: 35 67 N 1 0 0 1 0 0 2
EndChar

StartChar: Dcaron
Encoding: 270 270 205
Width: 525
Flags: HMW
LayerCount: 2
Fore
SplineSet
327 708 m 2
 209 665 l 2
 203 663 196 663 190 665 c 2
 72 708 l 2
 37 721 55 775 91 764 c 2
 200 731 l 1
 309 764 l 2
 345 775 363 721 327 708 c 2
EndSplineSet
Refer: 36 68 N 1 0 0 1 0 0 2
EndChar

StartChar: dcroat
Encoding: 273 273 208
Width: 525
Flags: MW
LayerCount: 2
Fore
SplineSet
512 31 m 0
 512 0 487 0 471 0 c 2
 398 0 l 2
 358 0 358 14 358 50 c 1
 330 21 288 -6 232 -6 c 0
 126 -6 36 91 36 215 c 0
 36 342 132 437 241 437 c 0
 284 437 325 421 358 392 c 1
 358 459 l 1
 210 459 l 2
 193 459 179 473 179 490 c 0
 179 507 193 521 210 521 c 2
 358 521 l 1
 358 550 l 1
 313 550 l 2
 299 550 273 550 273 580 c 0
 273 611 298 611 314 611 c 2
 387 611 l 2
 421 611 427 601 427 570 c 2
 427 521 l 1
 477 521 l 2
 494 521 508 507 508 490 c 0
 508 473 494 459 477 459 c 2
 427 459 l 1
 427 61 l 1
 472 61 l 2
 486 61 512 61 512 31 c 0
358 194 m 2
 358 265 l 2
 358 320 309 376 245 376 c 0
 175 376 105 311 105 215 c 0
 105 126 165 55 236 55 c 0
 313 55 358 138 358 194 c 2
EndSplineSet
EndChar

StartChar: Eogonek
Encoding: 280 280 215
Width: 525
Flags: MW
LayerCount: 2
Fore
SplineSet
502 41 m 2
 502 9 495 0 462 0 c 2
 433 0 l 1
 380 -31 346 -67 346 -110 c 0
 346 -134 372 -149 390 -149 c 0
 410 -149 433 -128 444 -112 c 1
 450 -106 472 -102 481 -107 c 1
 489 -114 493 -135 486 -144 c 0
 462 -177 424 -203 386 -203 c 0
 323 -203 287 -151 287 -108 c 0
 287 -61 313 -25 352 0 c 1
 67 0 l 2
 52 0 26 0 26 30 c 0
 26 61 51 61 67 61 c 2
 97 61 l 1
 97 550 l 1
 67 550 l 2
 52 550 26 550 26 581 c 0
 26 611 52 611 67 611 c 2
 440 611 l 2
 474 611 480 601 480 570 c 2
 480 497 l 2
 480 477 480 456 445 456 c 0
 411 456 411 478 411 497 c 2
 411 550 l 1
 166 550 l 1
 166 347 l 1
 297 347 l 1
 297 388 297 404 332 404 c 0
 366 404 366 382 366 363 c 2
 366 270 l 2
 366 251 366 229 332 229 c 0
 297 229 297 245 297 286 c 1
 166 286 l 1
 166 61 l 1
 433 61 l 1
 433 130 l 2
 433 150 433 171 468 171 c 0
 502 171 502 149 502 130 c 2
 502 41 l 2
EndSplineSet
EndChar

StartChar: eogonek
Encoding: 281 281 216
Width: 525
Flags: MW
LayerCount: 2
Fore
SplineSet
464 109 m 0
 464 89 434 28 353 4 c 1
 300 -27 266 -67 266 -110 c 0
 266 -134 292 -149 310 -149 c 0
 330 -149 353 -128 364 -112 c 1
 370 -106 392 -102 401 -107 c 1
 409 -114 413 -135 406 -144 c 0
 382 -177 344 -203 306 -203 c 0
 243 -203 207 -151 207 -108 c 0
 207 -61 225 -30 264 -5 c 1
 145 5 55 102 55 217 c 0
 55 340 151 440 270 440 c 0
 400 440 464 342 464 228 c 0
 464 191 445 191 424 191 c 2
 126 191 l 1
 142 105 217 55 292 55 c 0
 320 55 374 64 396 115 c 1
 403 134 411 137 429 137 c 0
 435 137 464 137 464 109 c 0
393 251 m 1
 384 354 322 379 270 379 c 0
 200 379 141 324 127 251 c 1
 393 251 l 1
EndSplineSet
EndChar

StartChar: Ecaron
Encoding: 282 282 217
Width: 525
Flags: HMW
LayerCount: 2
Fore
SplineSet
390 708 m 2
 272 665 l 2
 266 663 259 663 253 665 c 2
 135 708 l 2
 100 721 118 775 154 764 c 2
 263 731 l 1
 372 764 l 2
 408 775 426 721 390 708 c 2
EndSplineSet
Refer: 37 69 N 1 0 0 1 0 0 2
EndChar

StartChar: Gcircumflex
Encoding: 284 284 219
Width: 525
Flags: HMW
LayerCount: 2
Fore
SplineSet
391 721 m 2
 426 708 408 654 372 665 c 2
 263 698 l 1
 154 665 l 2
 118 654 100 708 136 721 c 2
 254 764 l 2
 260 766 267 766 273 764 c 2
 391 721 l 2
EndSplineSet
Refer: 39 71 N 1 0 0 1 0 0 2
EndChar

StartChar: gcommaaccent
Encoding: 291 291 226
Width: 525
Flags: HMW
LayerCount: 2
Fore
SplineSet
289 641 m 0
 289 626 275 622 268 620 c 0
 259 617 223 605 212 558 c 1
 217 560 223 561 227 561 c 0
 252 561 274 542 274 513 c 0
 274 489 256 467 226 467 c 0
 193 467 164 496 164 542 c 0
 164 624 241 665 265 665 c 0
 277 665 289 652 289 641 c 0
EndSplineSet
Refer: 71 103 N 1 0 0 1 0 0 2
EndChar

StartChar: Hcircumflex
Encoding: 292 292 227
Width: 525
Flags: HMW
LayerCount: 2
Fore
SplineSet
391 721 m 2
 426 708 408 654 372 665 c 2
 263 698 l 1
 154 665 l 2
 118 654 100 708 136 721 c 2
 254 764 l 2
 260 766 267 766 273 764 c 2
 391 721 l 2
EndSplineSet
Refer: 40 72 N 1 0 0 1 0 0 2
EndChar

StartChar: hcircumflex
Encoding: 293 293 228
Width: 525
Flags: HMW
LayerCount: 2
Fore
SplineSet
391 721 m 2
 426 708 408 654 372 665 c 2
 263 698 l 1
 154 665 l 2
 118 654 100 708 136 721 c 2
 254 764 l 2
 260 766 267 766 273 764 c 2
 391 721 l 2
EndSplineSet
Refer: 72 104 N 1 0 0 1 0 0 2
EndChar

StartChar: Hbar
Encoding: 294 294 229
Width: 525
Flags: MW
LayerCount: 2
Fore
SplineSet
502 30 m 0
 502 0 477 0 462 0 c 2
 343 0 l 2
 327 0 303 0 303 31 c 0
 303 61 328 61 343 61 c 2
 368 61 l 1
 368 287 l 1
 156 287 l 1
 156 61 l 1
 181 61 l 2
 197 61 221 61 221 30 c 0
 221 0 196 0 181 0 c 2
 62 0 l 2
 47 0 22 0 22 30 c 0
 22 61 46 61 62 61 c 2
 87 61 l 1
 87 427 l 1
 57 427 l 2
 40 427 26 441 26 458 c 0
 26 475 40 489 57 489 c 2
 87 489 l 1
 87 550 l 1
 62 550 l 2
 47 550 22 550 22 580 c 0
 22 611 46 611 62 611 c 2
 181 611 l 2
 197 611 221 611 221 580 c 0
 221 550 196 550 181 550 c 2
 156 550 l 1
 156 489 l 1
 368 489 l 1
 368 550 l 1
 343 550 l 2
 327 550 303 550 303 581 c 0
 303 611 328 611 343 611 c 2
 462 611 l 2
 478 611 502 611 502 580 c 0
 502 550 477 550 462 550 c 2
 437 550 l 1
 437 489 l 1
 467 489 l 2
 484 489 498 475 498 458 c 0
 498 441 484 427 467 427 c 2
 437 427 l 1
 437 61 l 1
 462 61 l 2
 478 61 502 61 502 30 c 0
368 348 m 1
 368 427 l 1
 156 427 l 1
 156 348 l 1
 368 348 l 1
EndSplineSet
EndChar

StartChar: hbar
Encoding: 295 295 230
Width: 525
Flags: MW
LayerCount: 2
Fore
SplineSet
512 30 m 0
 512 0 486 0 472 0 c 2
 319 0 l 2
 305 0 278 0 278 30 c 0
 278 61 303 61 319 61 c 2
 358 61 l 1
 358 288 l 2
 358 348 344 376 291 376 c 0
 240 376 166 338 166 238 c 2
 166 61 l 1
 210 61 l 2
 226 61 251 61 251 30 c 0
 251 0 225 0 211 0 c 2
 52 0 l 2
 38 0 12 0 12 30 c 0
 12 61 37 61 53 61 c 2
 97 61 l 1
 97 459 l 1
 47 459 l 2
 30 459 16 473 16 490 c 0
 16 507 30 521 47 521 c 2
 97 521 l 1
 97 550 l 1
 52 550 l 2
 38 550 12 550 12 580 c 0
 12 611 37 611 53 611 c 2
 126 611 l 2
 160 611 166 601 166 570 c 2
 166 521 l 1
 263 521 l 2
 280 521 294 507 294 490 c 0
 294 473 280 459 263 459 c 2
 166 459 l 1
 166 384 l 1
 185 403 230 437 297 437 c 0
 376 437 427 394 427 293 c 2
 427 61 l 1
 471 61 l 2
 487 61 512 61 512 30 c 0
EndSplineSet
EndChar

StartChar: Iogonek
Encoding: 302 302 237
Width: 525
Flags: MW
LayerCount: 2
Fore
SplineSet
446 30 m 0
 446 0 420 0 405 0 c 2
 297 0 l 1
 258 -22 232 -63 232 -110 c 0
 232 -134 258 -149 276 -149 c 0
 296 -149 319 -128 330 -112 c 1
 336 -106 358 -102 367 -107 c 1
 375 -114 379 -135 372 -144 c 0
 348 -177 310 -203 272 -203 c 0
 209 -203 173 -151 173 -108 c 0
 173 -66 203 -26 237 0 c 1
 120 0 l 2
 105 0 79 0 79 31 c 0
 79 61 105 61 120 61 c 2
 228 61 l 1
 228 550 l 1
 120 550 l 2
 105 550 79 550 79 581 c 0
 79 611 105 611 120 611 c 2
 405 611 l 2
 420 611 446 611 446 580 c 0
 446 550 420 550 405 550 c 2
 297 550 l 1
 297 61 l 1
 405 61 l 2
 420 61 446 61 446 30 c 0
EndSplineSet
EndChar

StartChar: iogonek
Encoding: 303 303 238
Width: 525
Flags: HMW
LayerCount: 2
Fore
SplineSet
455 30 m 0
 455 0 429 0 414 0 c 2
 285 0 l 1
 246 -22 220 -63 220 -110 c 0
 220 -134 246 -149 264 -149 c 0
 284 -149 307 -128 318 -112 c 1
 324 -106 346 -102 355 -107 c 1
 363 -114 367 -135 360 -144 c 0
 336 -177 298 -203 260 -203 c 0
 197 -203 161 -151 161 -108 c 0
 161 -66 190 -26 224 0 c 1
 119 0 l 2
 104 0 78 0 78 30 c 0
 78 61 103 61 119 61 c 2
 240 61 l 1
 240 370 l 1
 127 370 l 2
 112 370 86 370 86 401 c 0
 86 431 112 431 127 431 c 2
 269 431 l 2
 303 431 309 421 309 390 c 2
 309 61 l 1
 414 61 l 2
 429 61 455 61 455 30 c 0
EndSplineSet
Refer: 371 729 N 1 0 0 1 -4 7 2
EndChar

StartChar: dotlessi
Encoding: 305 305 240
Width: 525
Flags: MW
LayerCount: 2
Fore
SplineSet
455 30 m 0
 455 0 429 0 414 0 c 2
 119 0 l 2
 104 0 78 0 78 30 c 0
 78 61 103 61 119 61 c 2
 240 61 l 1
 240 370 l 1
 127 370 l 2
 112 370 86 370 86 401 c 0
 86 431 112 431 127 431 c 2
 269 431 l 2
 303 431 309 421 309 390 c 2
 309 61 l 1
 414 61 l 2
 429 61 455 61 455 30 c 0
EndSplineSet
EndChar

StartChar: Jcircumflex
Encoding: 308 308 241
Width: 525
Flags: HMW
LayerCount: 2
Fore
SplineSet
476 721 m 2
 511 708 493 654 457 665 c 2
 348 698 l 1
 239 665 l 2
 203 654 185 708 221 721 c 2
 339 764 l 2
 345 766 352 766 358 764 c 2
 476 721 l 2
EndSplineSet
Refer: 42 74 N 1 0 0 1 0 0 2
EndChar

StartChar: Lslash
Encoding: 321 321 253
Width: 525
Flags: MW
LayerCount: 2
Fore
SplineSet
488 41 m 2
 488 9 481 0 448 0 c 2
 72 0 l 2
 57 0 32 0 32 30 c 0
 32 61 56 61 72 61 c 2
 109 61 l 1
 109 262 l 1
 74 238 l 2
 60 228 42 232 34 245 c 1
 33 245 l 1
 24 259 28 277 41 286 c 2
 109 333 l 1
 109 550 l 1
 72 550 l 2
 57 550 32 550 32 580 c 0
 32 611 56 611 72 611 c 2
 234 611 l 2
 249 611 275 611 275 580 c 0
 275 550 248 550 234 550 c 2
 178 550 l 1
 178 380 l 1
 347 495 l 2
 360 504 378 500 387 487 c 1
 387 486 l 1
 397 472 393 454 380 445 c 2
 178 309 l 1
 178 61 l 1
 419 61 l 1
 419 130 l 2
 419 151 419 171 454 171 c 0
 488 171 488 150 488 130 c 2
 488 41 l 2
EndSplineSet
EndChar

StartChar: lslash
Encoding: 322 322 254
Width: 525
Flags: MW
LayerCount: 2
Fore
SplineSet
467 30 m 0
 467 0 442 0 427 0 c 2
 98 0 l 2
 84 0 58 0 58 30 c 0
 58 61 83 61 99 61 c 2
 228 61 l 1
 228 307 l 1
 126 238 l 2
 111 228 94 232 86 245 c 1
 85 245 l 1
 76 259 80 277 93 286 c 2
 228 378 l 1
 228 550 l 1
 98 550 l 2
 84 550 58 550 58 580 c 0
 58 611 83 611 99 611 c 2
 257 611 l 2
 291 611 297 601 297 570 c 2
 297 426 l 1
 399 495 l 2
 412 504 430 500 439 487 c 1
 439 486 l 1
 449 472 445 454 432 445 c 2
 297 354 l 1
 297 61 l 1
 427 61 l 2
 443 61 467 61 467 30 c 0
EndSplineSet
EndChar

StartChar: Ncaron
Encoding: 327 327 259
Width: 525
Flags: HMW
LayerCount: 2
Fore
SplineSet
390 708 m 2
 272 665 l 2
 266 663 259 663 253 665 c 2
 135 708 l 2
 100 721 118 775 154 764 c 2
 263 731 l 1
 372 764 l 2
 408 775 426 721 390 708 c 2
EndSplineSet
Refer: 46 78 N 1 0 0 1 0 0 2
EndChar

StartChar: Eng
Encoding: 330 330 261
Width: 525
Flags: MW
LayerCount: 2
Fore
SplineSet
490 306 m 0
 490 156 478 -11 350 -11 c 0
 326 -11 306 9 306 33 c 0
 306 57 326 77 350 77 c 0
 360 77 370 74 377 68 c 1
 420 99 420 212 420 306 c 0
 420 425 391 552 289 552 c 0
 223 552 174 496 166 428 c 1
 166 61 l 1
 210 61 l 2
 226 61 251 61 251 30 c 0
 251 0 225 0 211 0 c 2
 52 0 l 2
 38 0 12 0 12 30 c 0
 12 61 37 61 53 61 c 2
 97 61 l 1
 97 550 l 1
 52 550 l 2
 38 550 12 550 12 580 c 0
 12 611 37 611 53 611 c 2
 126 611 l 2
 159 611 166 601 166 572 c 1
 199 603 241 622 289 622 c 0
 427 622 490 463 490 306 c 0
EndSplineSet
EndChar

StartChar: eng
Encoding: 331 331 262
Width: 525
Flags: MW
LayerCount: 2
Fore
SplineSet
462 61 m 2
 462 -9 457 -82 438 -138 c 0
 418 -195 384 -233 324 -233 c 0
 304 -233 289 -218 289 -198 c 0
 289 -179 304 -163 324 -163 c 0
 393 -163 393 -40 393 61 c 2
 393 288 l 2
 393 348 379 376 326 376 c 0
 275 376 201 338 201 238 c 2
 201 61 l 1
 245 61 l 2
 261 61 286 61 286 30 c 0
 286 0 260 0 246 0 c 2
 87 0 l 2
 73 0 47 0 47 30 c 0
 47 61 72 61 88 61 c 2
 132 61 l 1
 132 370 l 1
 87 370 l 2
 73 370 47 370 47 400 c 0
 47 431 72 431 88 431 c 2
 161 431 l 2
 201 431 201 416 201 384 c 1
 220 403 265 437 332 437 c 0
 411 437 462 394 462 293 c 2
 462 61 l 2
EndSplineSet
EndChar

StartChar: OE
Encoding: 338 338 269
Width: 525
Flags: MW
LayerCount: 2
Fore
SplineSet
502 41 m 2
 502 9 495 0 462 0 c 2
 297 0 l 2
 288 0 274 0 254 -4 c 0
 220 -11 213 -11 193 -11 c 0
 83 -11 56 20 43 81 c 0
 29 144 29 225 29 306 c 0
 29 432 32 484 44 537 c 0
 59 602 100 622 193 622 c 0
 210 622 221 622 250 616 c 0
 274 611 285 611 297 611 c 2
 455 611 l 2
 489 611 495 601 495 570 c 2
 495 497 l 2
 495 483 495 456 467 456 c 0
 439 456 439 483 439 497 c 2
 439 550 l 1
 318 550 l 1
 318 347 l 1
 440 347 l 2
 456 347 480 347 480 316 c 0
 480 286 455 286 440 286 c 2
 318 286 l 1
 318 61 l 1
 446 61 l 1
 446 130 l 2
 446 144 446 171 474 171 c 0
 502 171 502 144 502 130 c 2
 502 41 l 2
262 172 m 2
 262 439 l 2
 262 546 245 561 197 561 c 0
 85 561 85 507 85 314 c 0
 85 111 85 50 199 50 c 0
 246 50 262 69 262 172 c 2
EndSplineSet
EndChar

StartChar: oe
Encoding: 339 339 270
Width: 525
Flags: MW
LayerCount: 2
Fore
SplineSet
505 108 m 0
 505 90 479 -6 398 -6 c 0
 338 -6 299 46 281 83 c 1
 262 45 223 -6 164 -6 c 0
 85 -6 19 88 19 217 c 0
 19 346 85 440 164 440 c 0
 227 440 265 382 280 353 c 1
 301 396 336 440 388 440 c 0
 456 440 505 366 505 233 c 0
 505 202 500 191 465 191 c 2
 310 191 l 1
 317 114 359 55 402 55 c 0
 424 55 441 76 449 112 c 0
 450 117 455 137 477 137 c 0
 491 137 505 126 505 108 c 0
448 251 m 1
 443 352 411 379 388 379 c 0
 354 379 318 322 311 251 c 1
 448 251 l 1
253 223 m 0
 253 317 207 379 164 379 c 0
 121 379 75 318 75 223 c 0
 75 127 120 55 164 55 c 0
 208 55 253 127 253 223 c 0
EndSplineSet
EndChar

StartChar: Rcaron
Encoding: 344 344 275
Width: 525
Flags: HMW
LayerCount: 2
Fore
SplineSet
390 708 m 2
 272 665 l 2
 266 663 259 663 253 665 c 2
 135 708 l 2
 100 721 118 775 154 764 c 2
 263 731 l 1
 372 764 l 2
 408 775 426 721 390 708 c 2
EndSplineSet
Refer: 50 82 N 1 0 0 1 0 0 2
EndChar

StartChar: Scircumflex
Encoding: 348 348 279
Width: 525
Flags: HMW
LayerCount: 2
Fore
SplineSet
391 721 m 2
 426 708 408 654 372 665 c 2
 263 698 l 1
 154 665 l 2
 118 654 100 708 136 721 c 2
 254 764 l 2
 260 766 267 766 273 764 c 2
 391 721 l 2
EndSplineSet
Refer: 51 83 N 1 0 0 1 0 0 2
EndChar

StartChar: Scedilla
Encoding: 350 350 281
Width: 525
Flags: MW
LayerCount: 2
Fore
SplineSet
472 166 m 0
 472 85 413 6 316 -9 c 1
 316 -20 l 1
 387 -34 415 -78 415 -117 c 0
 415 -219 275 -219 180 -219 c 0
 165 -219 149 -211 149 -188 c 0
 149 -157 171 -157 209 -157 c 0
 247 -157 346 -157 346 -117 c 0
 346 -97 323 -79 279 -77 c 0
 247 -75 247 -55 247 -35 c 2
 247 -9 l 1
 197 -4 151 11 119 35 c 1
 110 3 104 -11 82 -11 c 0
 52 -11 52 14 52 30 c 2
 52 162 l 2
 52 182 52 203 87 203 c 0
 119 203 120 185 121 168 c 0
 122 150 126 108 168 81 c 1
 208 54 257 50 285 50 c 0
 364 50 407 109 407 161 c 0
 407 248 324 268 296 274 c 2
 181 301 l 1
 98 325 52 391 52 458 c 0
 52 543 127 622 238 622 c 0
 283 622 337 610 378 575 c 1
 386 605 391 622 415 622 c 0
 445 622 445 597 445 581 c 2
 445 449 l 2
 445 429 445 408 410 408 c 0
 390 408 379 414 376 436 c 1
 370 467 355 561 237 561 c 0
 166 561 117 513 117 462 c 0
 117 415 155 380 197 368 c 1
 278 350 l 2
 356 332 383 325 424 285 c 0
 436 272 472 230 472 166 c 0
EndSplineSet
EndChar

StartChar: scedilla
Encoding: 351 351 282
Width: 525
Flags: MW
LayerCount: 2
Fore
SplineSet
459 125 m 0
 459 82 434 12 316 -3 c 1
 316 -9 l 1
 387 -23 415 -67 415 -106 c 0
 415 -208 275 -208 180 -208 c 0
 165 -208 149 -200 149 -177 c 0
 149 -146 171 -146 209 -146 c 0
 247 -146 346 -146 346 -106 c 0
 346 -86 323 -68 279 -66 c 0
 247 -64 247 -44 247 -24 c 2
 247 -5 l 1
 218 -3 177 4 139 32 c 1
 127 -5 111 -6 102 -6 c 0
 72 -6 72 19 72 35 c 2
 72 132 l 2
 72 152 72 173 107 173 c 0
 133 173 137 162 142 144 c 0
 167 66 223 55 270 55 c 0
 361 55 398 88 398 125 c 0
 398 178 318 191 269 199 c 0
 177 213 72 230 72 322 c 0
 72 358 95 440 262 440 c 0
 281 440 325 440 369 419 c 1
 371 426 375 440 399 440 c 0
 429 440 429 415 429 399 c 2
 429 330 l 2
 429 310 429 289 394 289 c 0
 363 289 361 306 360 323 c 0
 357 349 343 379 260 379 c 0
 165 379 133 348 133 322 c 0
 133 283 201 271 230 267 c 1
 298 255 l 2
 330 250 459 229 459 125 c 0
EndSplineSet
EndChar

StartChar: Scaron
Encoding: 352 352 283
Width: 525
Flags: HMW
LayerCount: 2
Fore
SplineSet
390 708 m 2
 272 665 l 2
 266 663 259 663 253 665 c 2
 135 708 l 2
 100 721 118 775 154 764 c 2
 263 731 l 1
 372 764 l 2
 408 775 426 721 390 708 c 2
EndSplineSet
Refer: 51 83 N 1 0 0 1 0 0 2
EndChar

StartChar: Tcedilla
Encoding: 354 354 285
Width: 525
Flags: MW
LayerCount: 2
Fore
SplineSet
498 497 m 2
 498 477 498 456 463 456 c 0
 429 456 429 478 429 497 c 2
 429 550 l 1
 297 550 l 1
 297 61 l 1
 349 61 l 2
 365 61 389 61 389 30 c 0
 389 0 364 0 349 0 c 2
 296 0 l 1
 297 -12 l 1
 368 -26 396 -70 396 -109 c 0
 396 -211 256 -211 161 -211 c 0
 146 -211 130 -203 130 -180 c 0
 130 -149 152 -149 190 -149 c 0
 228 -149 327 -149 327 -109 c 0
 327 -89 304 -71 260 -69 c 0
 228 -67 228 -47 228 -27 c 2
 228 0 l 1
 176 0 l 2
 160 0 136 0 136 31 c 0
 136 61 161 61 176 61 c 2
 228 61 l 1
 228 550 l 1
 95 550 l 1
 95 497 l 2
 95 477 95 456 60 456 c 0
 26 456 26 478 26 497 c 2
 26 570 l 2
 26 603 34 611 67 611 c 2
 458 611 l 2
 492 611 498 601 498 570 c 2
 498 497 l 2
EndSplineSet
EndChar

StartChar: tcedilla
Encoding: 355 355 286
Width: 525
Flags: MW
LayerCount: 2
Fore
SplineSet
449 126 m 0
 449 51 392 9 330 -3 c 1
 330 -12 l 1
 401 -26 429 -70 429 -109 c 0
 429 -211 289 -211 194 -211 c 0
 179 -211 163 -203 163 -180 c 0
 163 -149 185 -149 223 -149 c 0
 261 -149 360 -149 360 -109 c 0
 360 -89 337 -71 293 -69 c 0
 261 -67 261 -47 261 -27 c 2
 261 -3 l 1
 202 6 153 45 153 126 c 2
 153 370 l 1
 65 370 l 2
 50 370 25 370 25 400 c 0
 25 431 50 431 66 431 c 2
 153 431 l 1
 153 513 l 2
 153 533 153 554 188 554 c 0
 222 554 222 532 222 513 c 2
 222 431 l 1
 386 431 l 2
 402 431 426 431 426 400 c 0
 426 370 401 370 386 370 c 2
 222 370 l 1
 222 132 l 2
 222 107 222 55 299 55 c 0
 322 55 379 65 380 127 c 0
 380 144 381 165 414 165 c 0
 449 165 449 144 449 126 c 0
EndSplineSet
EndChar

StartChar: Tcaron
Encoding: 356 356 287
Width: 525
Flags: HMW
LayerCount: 2
Fore
SplineSet
390 708 m 2
 272 665 l 2
 266 663 259 663 253 665 c 2
 135 708 l 2
 100 721 118 775 154 764 c 2
 263 731 l 1
 372 764 l 2
 408 775 426 721 390 708 c 2
EndSplineSet
Refer: 52 84 N 1 0 0 1 0 0 2
EndChar

StartChar: Uogonek
Encoding: 370 370 299
Width: 525
Flags: MW
LayerCount: 2
Fore
SplineSet
520 581 m 0
 520 550 495 550 479 550 c 2
 449 550 l 1
 449 204 l 2
 449 96 381 11 297 -7 c 1
 264 -30 244 -68 244 -110 c 0
 244 -134 270 -149 288 -149 c 0
 308 -149 331 -128 342 -112 c 1
 348 -106 370 -102 379 -107 c 1
 387 -114 391 -135 384 -144 c 0
 360 -177 322 -203 284 -203 c 0
 221 -203 185 -151 185 -108 c 0
 185 -71 208 -35 237 -9 c 1
 148 5 75 91 75 204 c 2
 75 550 l 1
 45 550 l 2
 30 550 4 550 4 581 c 0
 4 611 30 611 45 611 c 2
 174 611 l 2
 189 611 215 611 215 581 c 0
 215 550 189 550 174 550 c 2
 144 550 l 1
 144 209 l 2
 144 102 209 50 262 50 c 0
 314 50 380 102 380 209 c 2
 380 550 l 1
 350 550 l 2
 335 550 309 550 309 581 c 0
 309 611 335 611 350 611 c 2
 479 611 l 2
 494 611 520 611 520 581 c 0
EndSplineSet
EndChar

StartChar: uogonek
Encoding: 371 371 300
Width: 525
Flags: MW
LayerCount: 2
Fore
SplineSet
528 -144 m 0
 504 -177 466 -203 428 -203 c 0
 365 -203 329 -151 329 -108 c 0
 329 -66 359 -26 393 0 c 1
 376 0 359 3 358 32 c 1
 321 4 280 -6 239 -6 c 0
 166 -6 97 18 97 114 c 2
 97 370 l 1
 52 370 l 2
 38 370 12 370 12 400 c 0
 12 431 37 431 53 431 c 2
 126 431 l 2
 160 431 166 421 166 390 c 2
 166 120 l 2
 166 88 166 55 245 55 c 0
 277 55 358 67 358 157 c 2
 358 370 l 1
 313 370 l 2
 299 370 273 370 273 400 c 0
 273 431 298 431 314 431 c 2
 387 431 l 2
 421 431 427 421 427 390 c 2
 427 61 l 1
 472 61 l 2
 486 61 512 61 512 31 c 0
 512 0 487 0 471 0 c 2
 453 0 l 1
 414 -22 388 -63 388 -110 c 0
 388 -134 414 -149 432 -149 c 0
 452 -149 475 -128 486 -112 c 1
 492 -106 514 -102 523 -107 c 1
 531 -114 535 -135 528 -144 c 0
EndSplineSet
EndChar

StartChar: Wcircumflex
Encoding: 372 372 301
Width: 525
Flags: HMW
LayerCount: 2
Fore
SplineSet
391 721 m 2
 426 708 408 654 372 665 c 2
 263 698 l 1
 154 665 l 2
 118 654 100 708 136 721 c 2
 254 764 l 2
 260 766 267 766 273 764 c 2
 391 721 l 2
EndSplineSet
Refer: 55 87 N 1 0 0 1 0 0 2
EndChar

StartChar: Ycircumflex
Encoding: 374 374 303
Width: 525
Flags: HMW
LayerCount: 2
Fore
SplineSet
391 721 m 2
 426 708 408 654 372 665 c 2
 263 698 l 1
 154 665 l 2
 118 654 100 708 136 721 c 2
 254 764 l 2
 260 766 267 766 273 764 c 2
 391 721 l 2
EndSplineSet
Refer: 57 89 N 1 0 0 1 0 0 2
EndChar

StartChar: Ydieresis
Encoding: 376 376 305
Width: 525
Flags: HMW
LayerCount: 2
Fore
SplineSet
210 708 m 0
 210 683 190 663 165 663 c 0
 140 663 120 683 120 708 c 0
 120 734 140 753 165 753 c 0
 190 753 210 734 210 708 c 0
405 708 m 0
 405 683 385 663 360 663 c 0
 335 663 315 683 315 708 c 0
 315 734 335 753 360 753 c 0
 385 753 405 734 405 708 c 0
EndSplineSet
Refer: 57 89 N 1 0 0 1 0 0 2
EndChar

StartChar: Zcaron
Encoding: 381 381 310
Width: 525
Flags: HMW
LayerCount: 2
Fore
SplineSet
390 708 m 2
 272 665 l 2
 266 663 259 663 253 665 c 2
 135 708 l 2
 100 721 118 775 154 764 c 2
 263 731 l 1
 372 764 l 2
 408 775 426 721 390 708 c 2
EndSplineSet
Refer: 58 90 N 1 0 0 1 0 0 2
EndChar

StartChar: longs
Encoding: 383 383 312
Width: 525
Flags: MW
LayerCount: 2
Fore
SplineSet
437 557 m 0
 437 529 414 513 394 513 c 0
 359 513 350 552 350 556 c 1
 320 556 253 556 253 478 c 2
 253 61 l 1
 354 61 l 2
 369 61 395 61 395 30 c 0
 395 0 369 0 354 0 c 2
 83 0 l 2
 68 0 42 0 42 31 c 0
 42 61 68 61 83 61 c 2
 184 61 l 1
 184 370 l 1
 83 370 l 2
 68 370 43 370 43 400 c 0
 43 431 68 431 84 431 c 2
 184 431 l 1
 184 484 l 2
 184 571 261 617 341 617 c 0
 357 617 437 617 437 557 c 0
EndSplineSet
EndChar

StartChar: Ereversed
Encoding: 398 398 313
Width: 525
Flags: MW
LayerCount: 2
Fore
SplineSet
502 30 m 0
 502 0 476 0 461 0 c 2
 66 0 l 2
 33 0 26 9 26 41 c 2
 26 130 l 2
 26 149 26 171 60 171 c 0
 95 171 95 150 95 130 c 2
 95 61 l 1
 362 61 l 1
 362 286 l 1
 231 286 l 1
 231 245 231 229 196 229 c 0
 162 229 162 251 162 270 c 2
 162 363 l 2
 162 382 162 404 196 404 c 0
 231 404 231 388 231 347 c 1
 362 347 l 1
 362 550 l 1
 117 550 l 1
 117 497 l 2
 117 478 117 456 83 456 c 0
 48 456 48 477 48 497 c 2
 48 570 l 2
 48 601 54 611 88 611 c 2
 461 611 l 2
 476 611 502 611 502 581 c 0
 502 550 476 550 461 550 c 2
 431 550 l 1
 431 61 l 1
 461 61 l 2
 477 61 502 61 502 30 c 0
EndSplineSet
EndChar

StartChar: Ohorn
Encoding: 416 416 315
Width: 525
Flags: MW
LayerCount: 2
Fore
SplineSet
495 643 m 0
 495 604 477 566 445 548 c 1
 467 489 467 385 467 305 c 0
 467 214 467 90 434 39 c 0
 401 -11 327 -11 261 -11 c 0
 196 -11 121 -11 89 39 c 0
 56 90 56 214 56 305 c 0
 56 397 56 521 89 572 c 0
 121 622 196 622 261 622 c 0
 312 622 368 622 406 599 c 1
 414 600 421 605 427 614 c 1
 407 621 395 640 395 661 c 0
 395 686 415 710 445 711 c 1
 483 710 495 673 495 643 c 0
397 318 m 0
 397 388 397 484 376 522 c 0
 355 560 306 561 261 561 c 0
 217 561 168 560 147 522 c 0
 125 484 125 388 125 318 c 0
 125 241 125 135 147 93 c 0
 167 54 216 50 261 50 c 0
 306 50 356 54 376 93 c 0
 397 135 397 241 397 318 c 0
EndSplineSet
EndChar

StartChar: ohorn
Encoding: 417 417 316
Width: 525
Flags: MW
LayerCount: 2
Fore
SplineSet
466 215 m 0
 466 157 445 101 406 59 c 0
 369 19 317 -6 261 -6 c 0
 206 -6 154 19 117 59 c 0
 78 101 57 157 57 215 c 0
 57 274 77 330 117 373 c 0
 154 414 206 439 261 439 c 0
 295 439 327 430 356 413 c 1
 360 416 366 418 371 418 c 0
 380 418 388 424 394 434 c 1
 374 441 362 460 362 480 c 0
 362 506 382 529 412 530 c 1
 451 530 462 493 462 463 c 0
 462 423 443 384 411 367 c 1
 447 325 466 271 466 215 c 0
397 224 m 0
 397 264 383 303 357 333 c 0
 333 360 298 378 261 378 c 0
 225 378 190 360 166 333 c 0
 140 303 126 264 126 224 c 0
 126 181 139 138 166 105 c 0
 190 75 224 56 261 56 c 0
 299 56 333 75 357 105 c 0
 384 138 397 181 397 224 c 0
EndSplineSet
EndChar

StartChar: Uhorn
Encoding: 431 431 317
Width: 525
Flags: MW
LayerCount: 2
Fore
SplineSet
525 644 m 0
 525 597 492 559 449 546 c 1
 449 204 l 2
 449 148 431 95 395 53 c 0
 361 14 313 -11 261 -11 c 0
 210 -11 161 14 127 53 c 1
 92 95 74 148 74 204 c 2
 74 550 l 1
 32 550 l 2
 16 550 4 562 4 578 c 2
 4 583 l 2
 4 598 16 611 32 611 c 2
 186 611 l 2
 202 611 214 598 214 583 c 2
 214 578 l 2
 214 562 202 550 186 550 c 2
 144 550 l 1
 144 204 l 2
 144 162 156 123 180 93 c 0
 202 66 231 50 261 50 c 0
 292 50 321 66 343 93 c 0
 367 123 379 162 379 204 c 2
 379 550 l 1
 337 550 l 2
 321 550 309 562 309 578 c 2
 309 583 l 2
 309 598 321 611 337 611 c 2
 421 611 l 2
 426 611 432 609 436 606 c 1
 442 609 447 612 452 616 c 1
 435 625 425 642 425 661 c 0
 425 686 445 710 475 711 c 1
 513 710 525 674 525 644 c 0
EndSplineSet
EndChar

StartChar: uhorn
Encoding: 432 432 318
Width: 525
Flags: MW
LayerCount: 2
Fore
SplineSet
512 28 m 2
 512 13 499 0 483 0 c 2
 386 0 l 2
 370 0 357 13 357 28 c 2
 357 32 l 1
 326 8 286 -6 243 -6 c 0
 201 -6 166 -1 136 21 c 0
 108 42 96 75 96 110 c 2
 96 369 l 1
 39 369 l 2
 24 369 11 382 11 397 c 2
 11 402 l 2
 11 418 24 430 39 430 c 2
 137 430 l 2
 153 430 165 418 165 402 c 2
 165 110 l 2
 165 91 171 77 181 70 c 0
 196 59 216 56 248 56 c 0
 309 56 357 96 357 146 c 2
 357 369 l 1
 301 369 l 2
 285 369 273 382 273 397 c 2
 273 402 l 2
 273 418 285 430 301 430 c 2
 399 430 l 2
 405 430 411 428 415 425 c 1
 423 428 430 432 435 436 c 1
 419 445 409 462 409 480 c 0
 409 506 429 530 459 530 c 0
 497 530 509 493 509 464 c 0
 509 414 473 378 427 365 c 1
 427 61 l 1
 483 61 l 2
 499 61 512 49 512 33 c 2
 512 28 l 2
EndSplineSet
EndChar

StartChar: Acaron
Encoding: 461 461 319
Width: 525
Flags: HMW
LayerCount: 2
Fore
SplineSet
390 708 m 2
 272 665 l 2
 266 663 259 663 253 665 c 2
 135 708 l 2
 100 721 118 775 154 764 c 2
 263 731 l 1
 372 764 l 2
 408 775 426 721 390 708 c 2
EndSplineSet
Refer: 33 65 N 1 0 0 1 0 0 2
EndChar

StartChar: Icaron
Encoding: 463 463 321
Width: 525
Flags: HMW
LayerCount: 2
Fore
SplineSet
390 708 m 2
 272 665 l 2
 266 663 259 663 253 665 c 2
 135 708 l 2
 100 721 118 775 154 764 c 2
 263 731 l 1
 372 764 l 2
 408 775 426 721 390 708 c 2
EndSplineSet
Refer: 41 73 N 1 0 0 1 0 0 2
EndChar

StartChar: Ocaron
Encoding: 465 465 323
Width: 525
Flags: HMW
LayerCount: 2
Fore
SplineSet
390 708 m 2
 272 665 l 2
 266 663 259 663 253 665 c 2
 135 708 l 2
 100 721 118 775 154 764 c 2
 263 731 l 1
 372 764 l 2
 408 775 426 721 390 708 c 2
EndSplineSet
Refer: 47 79 N 1 0 0 1 0 0 2
EndChar

StartChar: Ucaron
Encoding: 467 467 325
Width: 525
Flags: HMW
LayerCount: 2
Fore
SplineSet
390 708 m 2
 272 665 l 2
 266 663 259 663 253 665 c 2
 135 708 l 2
 100 721 118 775 154 764 c 2
 263 731 l 1
 372 764 l 2
 408 775 426 721 390 708 c 2
EndSplineSet
Refer: 53 85 N 1 0 0 1 0 0 2
EndChar

StartChar: Udieresiscaron
Encoding: 473 473 329
Width: 525
Flags: HMW
LayerCount: 2
Fore
SplineSet
390 849 m 2
 272 806 l 2
 266 804 259 804 253 806 c 2
 135 849 l 2
 100 862 118 916 154 905 c 2
 263 872 l 1
 372 905 l 2
 408 916 426 862 390 849 c 2
EndSplineSet
Refer: 155 220 N 1 0 0 1 0 0 2
EndChar

StartChar: udieresiscaron
Encoding: 474 474 330
Width: 525
Flags: HMW
LayerCount: 2
Fore
SplineSet
390 708 m 2
 272 665 l 2
 266 663 259 663 253 665 c 2
 135 708 l 2
 100 721 118 775 154 764 c 2
 263 731 l 1
 372 764 l 2
 408 775 426 721 390 708 c 2
EndSplineSet
Refer: 187 252 N 1 0 0 1 0 0 2
EndChar

StartChar: eturned
Encoding: 477 477 333
Width: 525
Flags: MW
LayerCount: 2
Fore
SplineSet
464 217 m 0
 464 94 368 -6 249 -6 c 0
 119 -6 55 92 55 206 c 0
 55 243 74 243 95 243 c 2
 393 243 l 1
 377 329 302 379 227 379 c 0
 199 379 145 370 123 319 c 1
 116 300 108 297 90 297 c 0
 84 297 55 297 55 325 c 0
 55 350 102 440 234 440 c 0
 363 440 464 339 464 217 c 0
392 183 m 1
 126 183 l 1
 135 80 197 55 249 55 c 0
 319 55 378 110 392 183 c 1
EndSplineSet
EndChar

StartChar: Gcaron
Encoding: 486 486 334
Width: 525
Flags: HMW
LayerCount: 2
Fore
SplineSet
390 708 m 2
 272 665 l 2
 266 663 259 663 253 665 c 2
 135 708 l 2
 100 721 118 775 154 764 c 2
 263 731 l 1
 372 764 l 2
 408 775 426 721 390 708 c 2
EndSplineSet
Refer: 39 71 N 1 0 0 1 0 0 2
EndChar

StartChar: Oogonek
Encoding: 490 490 336
Width: 525
Flags: MW
LayerCount: 2
Fore
SplineSet
468 305 m 0
 468 28 448 -8 284 -11 c 1
 255 -34 236 -70 236 -110 c 0
 236 -134 262 -149 280 -149 c 0
 300 -149 323 -128 334 -112 c 1
 340 -106 362 -102 371 -107 c 1
 379 -114 383 -135 376 -144 c 0
 352 -177 314 -203 276 -203 c 0
 213 -203 177 -151 177 -108 c 0
 177 -72 199 -36 227 -11 c 1
 74 -6 56 35 56 305 c 0
 56 595 77 622 262 622 c 0
 447 622 468 594 468 305 c 0
399 314 m 0
 399 375 399 450 387 497 c 0
 372 552 337 561 262 561 c 0
 180 561 149 549 136 490 c 0
 125 444 125 376 125 314 c 0
 125 259 125 172 137 121 c 0
 149 71 174 50 262 50 c 0
 351 50 377 71 388 127 c 0
 399 181 399 252 399 314 c 0
EndSplineSet
EndChar

StartChar: oogonek
Encoding: 491 491 337
Width: 525
Flags: MW
LayerCount: 2
Fore
SplineSet
467 216 m 0
 467 100 387 10 289 -4 c 1
 253 -27 231 -66 231 -110 c 0
 231 -134 257 -149 275 -149 c 0
 295 -149 318 -128 329 -112 c 1
 335 -106 357 -102 366 -107 c 1
 374 -114 378 -135 371 -144 c 0
 347 -177 309 -203 271 -203 c 0
 208 -203 172 -151 172 -108 c 0
 172 -68 199 -29 231 -3 c 1
 135 13 57 101 57 216 c 0
 57 341 150 440 262 440 c 0
 374 440 467 341 467 216 c 0
398 223 m 0
 398 314 334 379 262 379 c 0
 191 379 126 314 126 223 c 0
 126 130 188 55 262 55 c 0
 336 55 398 130 398 223 c 0
EndSplineSet
EndChar

StartChar: Adblgrave
Encoding: 512 512 347
Width: 525
Flags: HMW
LayerCount: 2
Fore
SplineSet
395 685 m 0
 382 670 360 669 345 682 c 2
 268 752 l 2
 254 765 252 787 265 801 c 0
 278 816 300 817 315 804 c 2
 392 734 l 2
 406 721 408 699 395 685 c 0
201 685 m 0
 188 670 166 669 151 682 c 2
 74 752 l 2
 60 765 58 787 71 801 c 0
 84 816 106 817 121 804 c 2
 198 734 l 2
 212 721 214 699 201 685 c 0
EndSplineSet
Refer: 33 65 N 1 0 0 1 0 0 2
EndChar

StartChar: adblgrave
Encoding: 513 513 348
Width: 525
Flags: HMW
LayerCount: 2
Fore
SplineSet
424 497 m 0
 411 482 389 481 374 494 c 2
 297 564 l 2
 283 577 281 599 294 613 c 0
 307 628 329 629 344 616 c 2
 421 546 l 2
 435 533 437 511 424 497 c 0
230 497 m 0
 217 482 195 481 180 494 c 2
 103 564 l 2
 89 577 87 599 100 613 c 0
 113 628 135 629 150 616 c 2
 227 546 l 2
 241 533 243 511 230 497 c 0
EndSplineSet
Refer: 65 97 N 1 0 0 1 0 0 2
EndChar

StartChar: Edblgrave
Encoding: 516 516 349
Width: 525
Flags: HMW
LayerCount: 2
Fore
SplineSet
424 685 m 0
 411 670 389 669 374 682 c 2
 297 752 l 2
 283 765 281 787 294 801 c 0
 307 816 329 817 344 804 c 2
 421 734 l 2
 435 721 437 699 424 685 c 0
230 685 m 0
 217 670 195 669 180 682 c 2
 103 752 l 2
 89 765 87 787 100 801 c 0
 113 816 135 817 150 804 c 2
 227 734 l 2
 241 721 243 699 230 685 c 0
EndSplineSet
Refer: 37 69 N 1 0 0 1 0 0 2
EndChar

StartChar: edblgrave
Encoding: 517 517 350
Width: 525
Flags: HMW
LayerCount: 2
Fore
SplineSet
424 497 m 0
 411 482 389 481 374 494 c 2
 297 564 l 2
 283 577 281 599 294 613 c 0
 307 628 329 629 344 616 c 2
 421 546 l 2
 435 533 437 511 424 497 c 0
230 497 m 0
 217 482 195 481 180 494 c 2
 103 564 l 2
 89 577 87 599 100 613 c 0
 113 628 135 629 150 616 c 2
 227 546 l 2
 241 533 243 511 230 497 c 0
EndSplineSet
Refer: 69 101 N 1 0 0 1 0 0 2
EndChar

StartChar: Idblgrave
Encoding: 520 520 351
Width: 525
Flags: HMW
LayerCount: 2
Fore
SplineSet
424 685 m 0
 411 670 389 669 374 682 c 2
 297 752 l 2
 283 765 281 787 294 801 c 0
 307 816 329 817 344 804 c 2
 421 734 l 2
 435 721 437 699 424 685 c 0
230 685 m 0
 217 670 195 669 180 682 c 2
 103 752 l 2
 89 765 87 787 100 801 c 0
 113 816 135 817 150 804 c 2
 227 734 l 2
 241 721 243 699 230 685 c 0
EndSplineSet
Refer: 41 73 N 1 0 0 1 0 0 2
EndChar

StartChar: idblgrave
Encoding: 521 521 352
Width: 525
Flags: HMW
LayerCount: 2
Fore
SplineSet
424 497 m 0
 411 482 389 481 374 494 c 2
 297 564 l 2
 283 577 281 599 294 613 c 0
 307 628 329 629 344 616 c 2
 421 546 l 2
 435 533 437 511 424 497 c 0
230 497 m 0
 217 482 195 481 180 494 c 2
 103 564 l 2
 89 577 87 599 100 613 c 0
 113 628 135 629 150 616 c 2
 227 546 l 2
 241 533 243 511 230 497 c 0
EndSplineSet
Refer: 240 305 N 1 0 0 1 0 0 2
EndChar

StartChar: Odblgrave
Encoding: 524 524 353
Width: 525
Flags: HMW
LayerCount: 2
Fore
SplineSet
424 685 m 0
 411 670 389 669 374 682 c 2
 297 752 l 2
 283 765 281 787 294 801 c 0
 307 816 329 817 344 804 c 2
 421 734 l 2
 435 721 437 699 424 685 c 0
230 685 m 0
 217 670 195 669 180 682 c 2
 103 752 l 2
 89 765 87 787 100 801 c 0
 113 816 135 817 150 804 c 2
 227 734 l 2
 241 721 243 699 230 685 c 0
EndSplineSet
Refer: 47 79 N 1 0 0 1 0 0 2
EndChar

StartChar: odblgrave
Encoding: 525 525 354
Width: 525
Flags: HMW
LayerCount: 2
Fore
SplineSet
424 497 m 0
 411 482 389 481 374 494 c 2
 297 564 l 2
 283 577 281 599 294 613 c 0
 307 628 329 629 344 616 c 2
 421 546 l 2
 435 533 437 511 424 497 c 0
230 497 m 0
 217 482 195 481 180 494 c 2
 103 564 l 2
 89 577 87 599 100 613 c 0
 113 628 135 629 150 616 c 2
 227 546 l 2
 241 533 243 511 230 497 c 0
EndSplineSet
Refer: 79 111 N 1 0 0 1 0 0 2
EndChar

StartChar: Rdblgrave
Encoding: 528 528 355
Width: 525
Flags: HMW
LayerCount: 2
Fore
SplineSet
395 685 m 0
 382 670 360 669 345 682 c 2
 268 752 l 2
 254 765 252 787 265 801 c 0
 278 816 300 817 315 804 c 2
 392 734 l 2
 406 721 408 699 395 685 c 0
201 685 m 0
 188 670 166 669 151 682 c 2
 74 752 l 2
 60 765 58 787 71 801 c 0
 84 816 106 817 121 804 c 2
 198 734 l 2
 212 721 214 699 201 685 c 0
EndSplineSet
Refer: 50 82 N 1 0 0 1 0 0 2
EndChar

StartChar: rdblgrave
Encoding: 529 529 356
Width: 525
Flags: HMW
LayerCount: 2
Fore
SplineSet
424 497 m 0
 411 482 389 481 374 494 c 2
 297 564 l 2
 283 577 281 599 294 613 c 0
 307 628 329 629 344 616 c 2
 421 546 l 2
 435 533 437 511 424 497 c 0
230 497 m 0
 217 482 195 481 180 494 c 2
 103 564 l 2
 89 577 87 599 100 613 c 0
 113 628 135 629 150 616 c 2
 227 546 l 2
 241 533 243 511 230 497 c 0
EndSplineSet
Refer: 82 114 N 1 0 0 1 0 0 2
EndChar

StartChar: Udblgrave
Encoding: 532 532 357
Width: 525
Flags: HMW
LayerCount: 2
Fore
SplineSet
424 685 m 0
 411 670 389 669 374 682 c 2
 297 752 l 2
 283 765 281 787 294 801 c 0
 307 816 329 817 344 804 c 2
 421 734 l 2
 435 721 437 699 424 685 c 0
230 685 m 0
 217 670 195 669 180 682 c 2
 103 752 l 2
 89 765 87 787 100 801 c 0
 113 816 135 817 150 804 c 2
 227 734 l 2
 241 721 243 699 230 685 c 0
EndSplineSet
Refer: 53 85 N 1 0 0 1 0 0 2
EndChar

StartChar: udblgrave
Encoding: 533 533 358
Width: 525
Flags: HMW
LayerCount: 2
Fore
SplineSet
424 497 m 0
 411 482 389 481 374 494 c 2
 297 564 l 2
 283 577 281 599 294 613 c 0
 307 628 329 629 344 616 c 2
 421 546 l 2
 435 533 437 511 424 497 c 0
230 497 m 0
 217 482 195 481 180 494 c 2
 103 564 l 2
 89 577 87 599 100 613 c 0
 113 628 135 629 150 616 c 2
 227 546 l 2
 241 533 243 511 230 497 c 0
EndSplineSet
Refer: 85 117 N 1 0 0 1 0 0 2
EndChar

StartChar: uni0237
Encoding: 567 567 363
Width: 525
Flags: MW
LayerCount: 2
Fore
SplineSet
368 -44 m 2
 368 -108 332 -228 187 -228 c 0
 146 -228 48 -228 48 -152 c 0
 48 -123 70 -106 93 -106 c 0
 114 -106 137 -123 137 -151 c 0
 137 -158 137 -160 136 -163 c 1
 151 -165 163 -167 192 -167 c 0
 215 -167 246 -167 273 -129 c 0
 299 -94 299 -56 299 -39 c 2
 299 370 l 1
 169 370 l 2
 154 370 129 370 129 400 c 0
 129 431 154 431 170 431 c 2
 328 431 l 2
 362 431 368 421 368 390 c 2
 368 -44 l 2
EndSplineSet
EndChar

StartChar: ereversed
Encoding: 600 600 364
Width: 525
Flags: MW
LayerCount: 2
Fore
SplineSet
464 217 m 0
 464 95 363 -6 234 -6 c 0
 102 -6 55 84 55 109 c 0
 55 137 84 137 90 137 c 0
 108 137 116 134 123 115 c 1
 145 64 199 55 227 55 c 0
 302 55 377 105 393 191 c 1
 95 191 l 2
 74 191 55 191 55 228 c 0
 55 342 119 440 249 440 c 0
 368 440 464 340 464 217 c 0
392 251 m 1
 378 324 319 379 249 379 c 0
 197 379 135 354 126 251 c 1
 392 251 l 1
EndSplineSet
EndChar

StartChar: ringhalfright
Encoding: 702 702 366
Width: 525
Flags: MW
LayerCount: 2
Fore
SplineSet
410 390 m 0
 410 324 365 223 237 223 c 0
 202 223 124 225 124 281 c 0
 124 306 142 320 162 320 c 0
 183 320 199 309 200 279 c 0
 200 274 224 279 237 279 c 0
 329 279 348 357 348 390 c 0
 348 452 299 500 241 500 c 0
 193 500 180 469 176 460 c 0
 169 443 161 441 146 441 c 0
 141 441 115 441 115 467 c 0
 115 480 140 555 246 555 c 0
 340 555 410 479 410 390 c 0
EndSplineSet
EndChar

StartChar: ringhalfleft
Encoding: 703 703 367
Width: 525
Flags: MW
LayerCount: 2
Fore
SplineSet
410 311 m 0
 410 298 385 223 279 223 c 0
 185 223 115 299 115 388 c 0
 115 454 160 555 288 555 c 0
 323 555 401 553 401 497 c 0
 401 472 383 458 363 458 c 0
 342 458 326 469 325 499 c 0
 325 504 301 499 288 499 c 0
 196 499 177 421 177 388 c 0
 177 326 226 278 284 278 c 0
 332 278 345 309 349 318 c 0
 356 335 364 337 379 337 c 0
 384 337 410 337 410 311 c 0
EndSplineSet
EndChar

StartChar: circumflex
Encoding: 710 710 368
Width: 525
Flags: MW
LayerCount: 2
Fore
SplineSet
397 542 m 2
 430 521 399 473 366 493 c 2
 263 555 l 1
 160 493 l 2
 127 473 96 522 129 543 c 2
 247 618 l 2
 256 624 268 624 277 618 c 2
 397 542 l 2
EndSplineSet
EndChar

StartChar: caron
Encoding: 711 711 369
Width: 525
Flags: MW
LayerCount: 2
Fore
SplineSet
397 567 m 2
 279 492 l 2
 270 486 258 486 249 492 c 2
 129 568 l 2
 96 589 127 637 160 617 c 2
 263 555 l 1
 366 617 l 2
 399 637 430 588 397 567 c 2
EndSplineSet
EndChar

StartChar: breve
Encoding: 728 728 370
Width: 525
Flags: MW
LayerCount: 2
Fore
SplineSet
439 581 m 0
 439 499 329 499 263 499 c 0
 197 499 87 499 87 581 c 0
 87 600 99 612 118 612 c 0
 142 612 146 595 148 583 c 0
 153 563 220 563 263 563 c 0
 305 563 373 563 378 583 c 0
 380 595 384 612 408 612 c 0
 428 612 439 600 439 581 c 0
EndSplineSet
EndChar

StartChar: dotaccent
Encoding: 729 729 371
Width: 525
Flags: MW
LayerCount: 2
Fore
SplineSet
313 555 m 0
 313 527 291 505 263 505 c 0
 235 505 213 527 213 555 c 0
 213 583 235 605 263 605 c 0
 291 605 313 583 313 555 c 0
EndSplineSet
EndChar

StartChar: ring
Encoding: 730 730 372
Width: 525
Flags: MW
LayerCount: 2
Fore
SplineSet
310 564 m 0
 310 583 286 598 263 598 c 0
 240 598 216 583 216 564 c 0
 216 545 240 530 263 530 c 0
 286 530 310 545 310 564 c 0
360 564 m 0
 360 527 319 492 263 492 c 0
 207 492 166 527 166 564 c 0
 166 601 207 636 263 636 c 0
 319 636 360 601 360 564 c 0
EndSplineSet
EndChar

StartChar: ogonek
Encoding: 731 731 373
Width: 525
Flags: MW
LayerCount: 2
Fore
SplineSet
360 -144 m 0
 336 -177 298 -203 260 -203 c 0
 197 -203 161 -151 161 -108 c 0
 161 -61 198 -16 237 9 c 1
 312 11 l 1
 258 -4 220 -54 220 -110 c 0
 220 -134 246 -149 264 -149 c 0
 284 -149 307 -128 318 -112 c 1
 324 -106 346 -102 355 -107 c 1
 363 -114 367 -135 360 -144 c 0
EndSplineSet
EndChar

StartChar: hungarumlaut
Encoding: 733 733 375
Width: 525
Flags: MW
LayerCount: 2
Fore
SplineSet
231 613 m 0
 244 599 242 577 228 564 c 2
 151 494 l 2
 136 481 114 482 101 497 c 0
 88 511 90 533 104 546 c 2
 181 616 l 2
 196 629 218 628 231 613 c 0
425 613 m 0
 438 599 436 577 422 564 c 2
 345 494 l 2
 330 481 308 482 295 497 c 0
 282 511 284 533 298 546 c 2
 375 616 l 2
 390 629 412 628 425 613 c 0
EndSplineSet
EndChar

StartChar: uni0309
Encoding: 777 777 384
Width: 525
Flags: HMW
LayerCount: 2
Fore
SplineSet
361 590 m 0
 361 566 346 544 326 533 c 0
 297 517 283 501 283 486 c 2
 283 468 l 2
 283 453 270 440 255 440 c 0
 239 440 227 453 227 468 c 2
 227 486 l 2
 227 530 259 560 299 582 c 0
 303 585 305 590 305 590 c 1
 305 596 302 602 297 605 c 0
 288 611 274 614 255 614 c 0
 237 614 225 606 222 596 c 1
 222 590 l 2
 222 583 219 576 214 570 c 2
 213 569 l 2
 208 564 200 561 193 561 c 0
 186 561 179 564 173 569 c 1
 173 570 l 1
 168 575 164 582 164 590 c 0
 165 638 208 670 255 670 c 2
 257 670 l 2
 283 670 307 666 328 652 c 0
 349 638 361 614 361 590 c 0
EndSplineSet
EndChar

StartChar: uni0326
Encoding: 806 806 391
Width: 525
Flags: HMW
LayerCount: 2
Fore
SplineSet
325 -108 m 0
 325 -190 248 -231 224 -231 c 0
 212 -231 200 -218 200 -207 c 0
 200 -192 214 -188 221 -186 c 0
 230 -183 266 -171 277 -124 c 1
 272 -126 266 -127 262 -127 c 0
 237 -127 215 -108 215 -79 c 0
 215 -55 233 -33 263 -33 c 0
 296 -33 325 -62 325 -108 c 0
EndSplineSet
EndChar

StartChar: Gamma
Encoding: 915 915 399
Width: 525
Flags: MW
LayerCount: 2
Fore
SplineSet
488 497 m 2
 488 477 488 456 453 456 c 0
 419 456 419 478 419 497 c 2
 419 550 l 1
 178 550 l 1
 178 61 l 1
 234 61 l 2
 249 61 275 61 275 30 c 0
 275 0 248 0 234 0 c 2
 72 0 l 2
 57 0 32 0 32 30 c 0
 32 61 56 61 72 61 c 2
 109 61 l 1
 109 550 l 1
 72 550 l 2
 57 550 32 550 32 580 c 0
 32 611 56 611 72 611 c 2
 448 611 l 2
 482 611 488 601 488 570 c 2
 488 497 l 2
EndSplineSet
EndChar

StartChar: Delta
Encoding: 916 916 400
Width: 525
Flags: MW
LayerCount: 2
Fore
SplineSet
490 22 m 1
 490 0 470 0 455 0 c 2
 69 0 l 2
 54 0 34 0 34 22 c 1
 34 22 34 25 39 40 c 2
 207 590 l 2
 217 623 239 623 262 623 c 0
 295 623 307 620 317 587 c 2
 485 40 l 2
 490 26 490 22 490 22 c 1
405 67 m 1
 290 445 l 2
 273 499 266 527 263 540 c 1
 262 540 l 1
 234 445 l 1
 119 67 l 1
 405 67 l 1
EndSplineSet
EndChar

StartChar: Theta
Encoding: 920 920 404
Width: 525
Flags: MW
LayerCount: 2
Fore
SplineSet
468 305 m 0
 468 16 446 -11 262 -11 c 0
 77 -11 56 16 56 305 c 0
 56 595 77 622 262 622 c 0
 447 622 468 594 468 305 c 0
399 306 m 0
 399 360 399 428 390 479 c 0
 379 544 351 561 262 561 c 0
 170 561 148 541 135 486 c 1
 125 438 125 361 125 305 c 0
 125 251 125 183 134 132 c 0
 145 67 173 50 262 50 c 0
 354 50 376 70 389 125 c 1
 399 173 399 250 399 306 c 0
360 282 m 2
 360 262 360 241 325 241 c 0
 313 241 293 242 291 272 c 1
 233 272 l 1
 231 241 210 241 199 241 c 0
 164 241 164 262 164 282 c 2
 164 329 l 2
 164 349 164 370 199 370 c 0
 211 370 231 369 233 339 c 1
 291 339 l 1
 293 370 314 370 325 370 c 0
 360 370 360 349 360 329 c 2
 360 282 l 2
EndSplineSet
EndChar

StartChar: Lambda
Encoding: 923 923 407
Width: 525
Flags: MW
LayerCount: 2
Fore
SplineSet
495 30 m 0
 495 0 469 0 454 0 c 2
 346 0 l 2
 330 0 305 0 305 31 c 0
 305 61 331 61 346 61 c 2
 367 61 l 1
 279 452 l 2
 272 484 266 510 262 538 c 1
 261 538 l 1
 257 503 243 442 232 392 c 2
 157 61 l 1
 178 61 l 2
 194 61 219 61 219 30 c 0
 219 0 193 0 178 0 c 2
 70 0 l 2
 55 0 29 0 29 30 c 0
 29 61 50 61 86 61 c 1
 208 589 l 2
 216 623 237 623 257 623 c 2
 267 623 l 2
 288 623 308 623 317 586 c 2
 438 61 l 1
 474 61 495 61 495 30 c 0
EndSplineSet
EndChar

StartChar: Xi
Encoding: 926 926 410
Width: 525
Flags: MW
LayerCount: 2
Fore
SplineSet
487 551 m 2
 487 532 487 510 453 510 c 0
 418 510 418 530 418 552 c 1
 106 552 l 1
 106 530 106 510 71 510 c 0
 37 510 37 532 37 551 c 2
 37 570 l 2
 37 603 45 611 78 611 c 2
 447 611 l 2
 481 611 487 601 487 570 c 2
 487 551 l 2
415 293 m 2
 415 273 415 253 380 253 c 0
 356 253 346 263 346 288 c 1
 178 288 l 1
 178 263 168 253 144 253 c 0
 109 253 109 273 109 293 c 2
 109 342 l 2
 109 362 109 382 144 382 c 0
 168 382 178 372 178 347 c 1
 346 347 l 1
 346 372 356 382 380 382 c 0
 415 382 415 362 415 342 c 2
 415 293 l 2
491 41 m 2
 491 9 484 0 451 0 c 2
 74 0 l 2
 41 0 33 8 33 41 c 2
 33 65 l 2
 33 84 33 106 67 106 c 0
 102 106 102 87 102 59 c 1
 422 59 l 1
 422 87 422 106 457 106 c 0
 491 106 491 84 491 65 c 2
 491 41 l 2
EndSplineSet
EndChar

StartChar: Pi
Encoding: 928 928 412
Width: 525
Flags: MW
LayerCount: 2
Fore
SplineSet
502 30 m 0
 502 0 477 0 462 0 c 2
 343 0 l 2
 327 0 303 0 303 31 c 0
 303 61 328 61 343 61 c 2
 368 61 l 1
 368 550 l 1
 156 550 l 1
 156 61 l 1
 181 61 l 2
 197 61 221 61 221 30 c 0
 221 0 196 0 181 0 c 2
 62 0 l 2
 47 0 22 0 22 30 c 0
 22 61 46 61 62 61 c 2
 87 61 l 1
 87 550 l 1
 62 550 l 2
 47 550 22 550 22 580 c 0
 22 611 46 611 62 611 c 2
 462 611 l 2
 478 611 502 611 502 580 c 0
 502 550 477 550 462 550 c 2
 437 550 l 1
 437 61 l 1
 462 61 l 2
 478 61 502 61 502 30 c 0
EndSplineSet
EndChar

StartChar: Sigma
Encoding: 931 931 414
Width: 525
Flags: MW
LayerCount: 2
Fore
SplineSet
484 41 m 2
 484 9 477 0 444 0 c 2
 81 0 l 2
 68 0 40 0 40 28 c 0
 40 34 40 36 49 50 c 2
 197 305 l 1
 48 556 l 2
 40 569 40 575 40 580 c 0
 40 611 65 611 81 611 c 2
 444 611 l 2
 478 611 484 601 484 570 c 2
 484 497 l 2
 484 477 484 456 449 456 c 0
 415 456 415 478 415 497 c 2
 415 550 l 1
 132 550 l 1
 272 312 l 1
 272 300 272 298 263 283 c 2
 136 63 l 1
 415 63 l 1
 415 116 l 2
 415 136 415 157 450 157 c 0
 484 157 484 135 484 116 c 2
 484 41 l 2
EndSplineSet
EndChar

StartChar: Upsilon
Encoding: 933 933 416
Width: 525
Flags: MW
LayerCount: 2
Fore
SplineSet
486 493 m 0
 486 461 461 461 452 461 c 0
 439 461 418 461 417 494 c 0
 416 527 407 570 370 570 c 0
 297 570 297 409 297 356 c 2
 297 61 l 1
 332 61 l 2
 348 61 373 61 373 30 c 0
 373 0 347 0 332 0 c 2
 193 0 l 2
 178 0 152 0 152 30 c 0
 152 61 177 61 193 61 c 2
 228 61 l 1
 228 356 l 2
 228 408 228 570 154 570 c 0
 118 570 108 530 107 492 c 0
 106 461 83 461 72 461 c 0
 63 461 38 461 38 493 c 0
 38 551 81 622 153 622 c 0
 208 622 248 585 262 480 c 1
 263 480 l 1
 275 578 312 622 371 622 c 0
 444 622 486 550 486 493 c 0
EndSplineSet
EndChar

StartChar: Phi
Encoding: 934 934 417
Width: 525
Flags: MW
LayerCount: 2
Fore
SplineSet
484 305 m 0
 484 234 408 167 297 155 c 1
 297 61 l 1
 338 61 l 2
 353 61 379 61 379 30 c 0
 379 0 353 0 338 0 c 2
 187 0 l 2
 172 0 146 0 146 31 c 0
 146 61 172 61 187 61 c 2
 228 61 l 1
 228 155 l 1
 121 165 40 230 40 306 c 0
 40 378 117 445 228 456 c 1
 228 550 l 1
 187 550 l 2
 172 550 146 550 146 581 c 0
 146 611 172 611 187 611 c 2
 338 611 l 2
 353 611 379 611 379 580 c 0
 379 550 353 550 338 550 c 2
 297 550 l 1
 297 456 l 1
 405 445 484 380 484 305 c 0
415 306 m 0
 415 349 364 386 297 395 c 1
 297 216 l 1
 359 225 415 259 415 306 c 0
228 216 m 1
 228 395 l 1
 160 386 109 349 109 305 c 0
 109 264 156 226 228 216 c 1
EndSplineSet
EndChar

StartChar: Psi
Encoding: 936 936 419
Width: 525
Flags: MW
LayerCount: 2
Fore
SplineSet
486 452 m 0
 486 428 468 424 460 422 c 0
 446 419 446 382 446 368 c 0
 445 280 418 177 297 156 c 1
 297 61 l 1
 332 61 l 2
 348 61 373 61 373 30 c 0
 373 0 347 0 332 0 c 2
 193 0 l 2
 178 0 152 0 152 30 c 0
 152 61 177 61 193 61 c 2
 228 61 l 1
 228 156 l 1
 107 177 79 283 78 358 c 0
 78 385 77 419 64 422 c 0
 56 424 38 428 38 452 c 0
 38 483 64 483 74 483 c 0
 139 483 147 422 147 371 c 0
 147 311 157 240 228 219 c 1
 228 550 l 1
 193 550 l 2
 178 550 152 550 152 580 c 0
 152 611 177 611 193 611 c 2
 332 611 l 2
 348 611 373 611 373 580 c 0
 373 550 347 550 332 550 c 2
 297 550 l 1
 297 219 l 1
 368 241 377 315 377 370 c 0
 377 409 379 483 450 483 c 0
 460 483 486 483 486 452 c 0
EndSplineSet
EndChar

StartChar: Omega
Encoding: 937 937 420
Width: 525
Flags: MW
LayerCount: 2
Fore
SplineSet
492 41 m 2
 492 9 485 0 452 0 c 2
 349 0 l 2
 330 0 308 0 308 35 c 0
 308 100 340 173 361 221 c 0
 392 293 415 347 415 406 c 0
 415 496 343 561 262 561 c 0
 181 561 109 496 109 406 c 0
 109 348 133 293 161 226 c 1
 186 170 216 100 216 35 c 0
 216 0 195 0 176 0 c 2
 73 0 l 2
 40 0 32 8 32 41 c 2
 32 67 l 2
 32 81 32 108 60 108 c 0
 88 108 88 82 88 61 c 1
 152 61 l 1
 145 106 131 140 100 205 c 0
 70 270 40 335 40 406 c 0
 40 528 141 622 262 622 c 0
 383 622 484 528 484 406 c 0
 484 337 456 275 427 212 c 0
 395 145 379 110 372 61 c 1
 436 61 l 1
 436 82 436 108 464 108 c 0
 492 108 492 81 492 67 c 2
 492 41 l 2
EndSplineSet
EndChar

StartChar: uni0600
Encoding: 1536 1536 421
Width: 525
Flags: MW
LayerCount: 2
Fore
SplineSet
512 353 m 0
 512 326 492 310 470 310 c 0
 438 310 445 341 380 341 c 0
 362 341 322 314 322 259 c 0
 322 231 331 212 346 199 c 1
 502 199 l 2
 512 199 512 164 512 152 c 0
 512 141 512 110 502 110 c 2
 24 110 l 2
 14 110 14 144 14 156 c 0
 14 167 14 199 24 199 c 2
 271 199 l 1
 265 216 261 236 261 260 c 0
 261 358 356 409 431 409 c 0
 476 409 512 391 512 353 c 0
EndSplineSet
EndChar

StartChar: uni0601
Encoding: 1537 1537 422
Width: 525
Flags: MW
LayerCount: 2
Fore
SplineSet
495 131 m 0
 479 131 471 141 471 172 c 0
 471 178 470 191 466 191 c 0
 459 191 416 96 316 96 c 0
 259 96 240 129 228 155 c 1
 216 129 207 110 181 110 c 0
 111 110 155 265 115 265 c 0
 84 265 52 127 38 8 c 0
 37 -4 27 -9 22 -9 c 0
 15 -9 7 -3 7 8 c 0
 7 44 27 163 46 226 c 0
 68 300 82 348 122 348 c 0
 187 348 151 196 181 196 c 0
 206 196 206 244 206 266 c 2
 206 282 l 2
 206 313 214 323 230 323 c 0
 245 323 254 313 254 282 c 2
 254 260 l 2
 254 236 255 182 316 182 c 0
 409 182 436 242 452 275 c 0
 459 290 462 300 473 300 c 0
 517 300 518 221 518 172 c 0
 518 141 510 131 495 131 c 0
EndSplineSet
EndChar

StartChar: uni0602
Encoding: 1538 1538 423
Width: 525
Flags: MW
LayerCount: 2
Fore
SplineSet
132 268 m 0
 194 268 238 224 238 180 c 0
 238 152 230 118 210 86 c 1
 229 81 254 78 271 78 c 0
 372 78 407 124 434 157 c 0
 447 173 456 182 473 182 c 0
 495 182 515 166 515 139 c 0
 515 85 431 14 264 14 c 0
 184 14 109 40 59 78 c 0
 25 104 14 126 14 153 c 0
 14 219 66 268 132 268 c 0
EndSplineSet
EndChar

StartChar: uni0603
Encoding: 1539 1539 424
Width: 525
Flags: MW
LayerCount: 2
Fore
SplineSet
217 389 m 0
 237 389 241 380 241 348 c 0
 241 236 243 226 270 208 c 1
 278 236 289 267 303 295 c 0
 338 366 379 403 441 403 c 0
 485 403 503 352 503 310 c 0
 503 180 433 97 330 97 c 0
 286 97 243 116 222 155 c 1
 213 137 196 120 179 112 c 0
 143 96 112 96 29 96 c 0
 22 96 22 120 22 132 c 0
 22 143 22 165 29 165 c 0
 105 165 146 174 163 192 c 0
 190 221 191 254 191 348 c 0
 191 379 196 389 217 389 c 0
307 191 m 1
 320 187 328 186 346 186 c 0
 414 186 454 242 454 290 c 0
 454 306 451 334 432 334 c 0
 369 334 336 281 307 191 c 1
EndSplineSet
EndChar

StartChar: uni0604
Encoding: 1540 1540 425
Width: 525
Flags: MW
LayerCount: 2
Fore
SplineSet
21 182 m 2
 112 182 l 1
 102 201 98 221 98 250 c 0
 98 313 136 380 211 380 c 0
 296 380 276 311 333 311 c 0
 356 311 360 345 360 367 c 2
 360 425 l 2
 360 456 360 466 388 466 c 0
 416 466 416 456 416 425 c 2
 416 367 l 2
 416 345 423 311 447 311 c 0
 457 311 458 345 458 367 c 2
 458 466 l 2
 458 497 458 507 485 507 c 0
 513 507 514 497 514 466 c 2
 514 367 l 2
 514 325 514 242 447 242 c 0
 422 242 403 256 389 276 c 1
 376 256 358 242 333 242 c 0
 248 242 268 311 211 311 c 0
 183 311 159 294 159 250 c 0
 159 209 185 182 247 182 c 0
 278 182 288 174 288 146 c 2
 288 110 l 1
 21 110 l 2
 11 110 11 136 11 148 c 0
 11 159 11 182 21 182 c 2
EndSplineSet
EndChar

StartChar: uni0605
Encoding: 1541 1541 426
Width: 525
Flags: MW
LayerCount: 2
Fore
SplineSet
75 798 m 0
 116 798 165 738 277 738 c 0
 438 738 437 798 478 798 c 0
 496 798 511 786 511 765 c 0
 511 713 413 676 277 676 c 0
 148 676 86 734 75 734 c 0
 67 734 67 712 67 685 c 0
 67 662 62 655 41 655 c 0
 19 655 14 662 14 685 c 0
 14 721 15 798 75 798 c 0
EndSplineSet
EndChar

StartChar: uni0606
Encoding: 1542 1542 427
Width: 525
Flags: MW
LayerCount: 2
Fore
SplineSet
278 681 m 0
 295 681 309 660 316 649 c 0
 321 641 324 637 331 637 c 0
 350 637 350 672 374 672 c 0
 395 672 388 649 403 649 c 0
 415 649 404 681 427 681 c 0
 441 681 452 671 452 660 c 0
 452 640 430 612 403 612 c 0
 379 612 380 626 375 626 c 0
 369 626 371 604 337 604 c 1
 356 557 365 500 365 440 c 0
 365 427 354 421 344 421 c 0
 332 421 322 427 322 440 c 0
 322 563 285 619 264 645 c 0
 257 653 256 655 256 660 c 0
 256 669 266 681 278 681 c 0
-36 647 m 0
 -36 669 -20 682 7 682 c 2
 115 682 l 2
 141 682 151 669 160 645 c 2
 355 129 l 1
 426 333 l 2
 431 349 437 366 457 366 c 0
 475 366 489 352 500 341 c 0
 522 320 561 286 561 268 c 0
 561 253 545 237 530 237 c 0
 510 237 493 262 478 273 c 1
 397 36 l 2
 390 16 382 -6 359 -6 c 0
 332 -6 323 15 315 36 c 2
 157 454 l 2
 138 504 121 555 101 604 c 0
 98 611 92 612 86 612 c 2
 4 612 l 2
 -17 612 -36 622 -36 647 c 0
EndSplineSet
EndChar

StartChar: uni0607
Encoding: 1543 1543 428
Width: 525
Flags: MW
LayerCount: 2
Fore
SplineSet
274 474 m 0
 274 491 287 511 307 531 c 1
 282 542 262 567 262 599 c 0
 262 647 299 681 340 681 c 0
 363 681 381 672 381 656 c 0
 381 644 370 631 356 631 c 0
 347 631 343 633 339 637 c 0
 335 640 332 644 324 644 c 0
 314 644 301 636 301 599 c 0
 301 577 312 561 329 561 c 0
 339 561 350 564 360 567 c 0
 369 570 377 572 387 572 c 0
 394 572 404 562 404 552 c 0
 404 541 378 537 368 534 c 0
 339 526 316 494 316 474 c 0
 316 461 323 459 337 459 c 2
 404 459 l 2
 422 459 428 453 428 440 c 0
 428 427 422 421 404 421 c 2
 337 421 l 2
 290 421 274 440 274 474 c 0
-36 647 m 0
 -36 669 -20 682 7 682 c 2
 115 682 l 2
 141 682 151 669 160 645 c 2
 355 129 l 1
 426 333 l 2
 431 349 437 366 457 366 c 0
 475 366 489 352 500 341 c 0
 522 320 561 286 561 268 c 0
 561 253 545 237 530 237 c 0
 510 237 493 262 478 273 c 1
 397 36 l 2
 390 16 382 -6 359 -6 c 0
 332 -6 323 15 315 36 c 2
 157 454 l 2
 138 504 121 555 101 604 c 0
 98 611 92 612 86 612 c 2
 4 612 l 2
 -17 612 -36 622 -36 647 c 0
EndSplineSet
EndChar

StartChar: uni0608
Encoding: 1544 1544 429
Width: 525
Flags: MW
LayerCount: 2
Fore
SplineSet
218 243 m 0
 218 196 134 220 134 113 c 0
 134 48 171 -19 253 -19 c 0
 372 -19 378 103 378 213 c 2
 378 258 l 1
 365 255 350 254 332 254 c 0
 262 254 230 288 230 367 c 0
 230 431 286 494 365 494 c 0
 429 494 443 462 443 406 c 2
 443 346 l 1
 470 357 477 378 477 455 c 0
 477 484 477 494 501 494 c 0
 525 494 525 484 525 455 c 0
 525 343 506 295 443 276 c 1
 443 213 l 2
 443 96 432 -77 253 -77 c 0
 130 -77 68 3 68 113 c 0
 68 130 71 150 76 170 c 1
 58 162 l 2
 45 156 30 151 23 151 c 0
 10 151 0 180 0 193 c 0
 0 201 7 209 22 216 c 2
 142 273 l 2
 153 278 165 283 178 283 c 0
 203 283 218 264 218 243 c 0
378 406 m 2
 378 430 377 436 365 436 c 0
 315 436 288 406 288 367 c 0
 288 326 297 319 332 319 c 0
 353 319 369 320 378 324 c 1
 378 406 l 2
EndSplineSet
EndChar

StartChar: uni0609
Encoding: 1545 1545 430
Width: 525
Flags: HMW
LayerCount: 2
Fore
SplineSet
437 659 m 0
 437 652 435 647 431 637 c 2
 157 -54 l 2
 153 -65 146 -83 122 -83 c 0
 103 -83 87 -67 87 -48 c 0
 87 -41 89 -36 93 -26 c 2
 366 663 l 2
 371 675 378 694 402 694 c 0
 422 694 437 677 437 659 c 0
EndSplineSet
Refer: 516 1632 N 1 0 0 1 183 -194 2
Refer: 516 1632 N 1 0 0 1 27 -255 2
Refer: 516 1632 N 1 0 0 1 -140 256 2
EndChar

StartChar: uni060A
Encoding: 1546 1546 431
Width: 525
Flags: HMW
LayerCount: 2
Fore
SplineSet
129 23 m 0
 129 47 179 107 201 107 c 0
 222 107 273 46 273 23 c 0
 273 -4 221 -62 201 -62 c 0
 179 -62 129 -2 129 23 c 0
357 659 m 0
 357 652 355 647 351 637 c 2
 77 -54 l 2
 73 -65 66 -83 42 -83 c 0
 23 -83 7 -67 7 -48 c 0
 7 -41 9 -36 13 -26 c 2
 286 663 l 2
 291 675 298 694 322 694 c 0
 342 694 357 677 357 659 c 0
367 240 m 0
 367 264 417 324 439 324 c 0
 460 324 511 263 511 240 c 0
 511 213 459 155 439 155 c 0
 417 155 367 215 367 240 c 0
250 128 m 0
 250 152 300 212 322 212 c 0
 343 212 394 151 394 128 c 0
 394 101 342 43 322 43 c 0
 300 43 250 103 250 128 c 0
EndSplineSet
Refer: 516 1632 N 1 0 0 1 -140 256 2
EndChar

StartChar: uni060B
Encoding: 1547 1547 432
Width: 525
Flags: HMW
LayerCount: 2
Fore
SplineSet
244 360 m 0
 244 428 303 494 386 494 c 0
 454 494 469 461 469 402 c 2
 469 254 l 2
 469 201 452 166 440 149 c 0
 422 123 398 85 242 85 c 0
 187 85 56 85 56 162 c 0
 56 189 76 205 98 205 c 0
 122 205 125 182 153 169 c 0
 180 157 214 157 242 157 c 0
 391 157 399 197 400 246 c 1
 386 243 371 241 352 241 c 0
 278 241 244 277 244 360 c 0
400 402 m 2
 400 427 399 433 386 433 c 0
 334 433 305 402 305 360 c 0
 305 317 315 310 352 310 c 0
 374 310 400 311 400 334 c 2
 400 402 l 2
EndSplineSet
Refer: 512 1628 N 1 0 0 1 11.5 1105 2
Refer: 506 1622 N 1 0 0 1 12 193 2
EndChar

StartChar: uni060C
Encoding: 1548 1548 433
Width: 525
Flags: MW
LayerCount: 2
Fore
SplineSet
227 309 m 0
 227 278 251 269 262 269 c 0
 278 269 281 275 295 275 c 0
 307 275 327 253 327 227 c 0
 327 187 296 153 253 153 c 0
 203 153 150 191 150 271 c 0
 150 429 282 484 324 484 c 0
 344 484 354 474 354 456 c 0
 354 436 342 426 330 426 c 0
 298 426 227 392 227 309 c 0
EndSplineSet
EndChar

StartChar: uni060D
Encoding: 1549 1549 434
Width: 525
Flags: MW
LayerCount: 2
Fore
SplineSet
412 417 m 0
 412 390 402 388 374 388 c 0
 234 388 176 295 176 192 c 0
 176 162 170 154 143 154 c 0
 117 154 112 162 112 192 c 0
 112 352 234 445 374 445 c 0
 402 445 412 443 412 417 c 0
EndSplineSet
EndChar

StartChar: uni060E
Encoding: 1550 1550 435
Width: 525
Flags: MW
LayerCount: 2
Fore
SplineSet
130 209 m 0
 105 209 79 188 79 161 c 0
 79 152 83 144 94 135 c 0
 108 124 136 109 150 107 c 1
 154 110 157 115 161 121 c 0
 177 145 180 165 180 176 c 0
 180 198 153 209 130 209 c 0
132 268 m 0
 194 268 238 224 238 180 c 0
 238 152 230 118 210 86 c 1
 229 81 254 78 271 78 c 0
 372 78 407 124 434 157 c 0
 447 173 456 182 473 182 c 0
 495 182 515 166 515 139 c 0
 515 85 431 14 264 14 c 0
 184 14 109 40 59 78 c 0
 25 104 14 126 14 153 c 0
 14 219 66 268 132 268 c 0
EndSplineSet
EndChar

StartChar: uni060F
Encoding: 1551 1551 436
Width: 525
Flags: MW
LayerCount: 2
Fore
SplineSet
407 292 m 0
 468 292 493 241 493 199 c 0
 493 97 383 -1 250 -1 c 0
 236 -1 221 0 207 2 c 1
 207 -38 233 -59 233 -84 c 0
 233 -105 213 -124 193 -124 c 0
 154 -124 141 -74 141 -25 c 0
 141 -8 142 8 145 23 c 1
 72 56 34 129 34 228 c 0
 34 301 69 371 146 449 c 1
 85 461 39 505 39 588 c 0
 39 686 135 740 210 740 c 0
 255 740 291 722 291 684 c 0
 291 657 271 641 249 641 c 0
 217 641 223 669 158 669 c 0
 140 669 100 642 100 587 c 0
 100 529 141 506 187 506 c 0
 210 506 246 518 268 528 c 0
 291 539 340 562 346 562 c 0
 358 562 372 533 372 516 c 0
 372 511 370 507 367 505 c 0
 327 485 249 457 202 413 c 0
 148 361 103 298 103 228 c 0
 103 174 117 124 162 90 c 1
 196 193 268 292 407 292 c 0
394 223 m 0
 317 223 253 173 222 99 c 0
 217 86 214 75 212 65 c 1
 229 60 245 57 262 57 c 0
 346 57 424 121 424 179 c 0
 424 195 421 223 394 223 c 0
EndSplineSet
EndChar

StartChar: uni0610
Encoding: 1552 1552 437
Width: 0
Flags: HMW
LayerCount: 2
Fore
SplineSet
338 785 m 0
 380 785 410 759 410 715 c 0
 410 639 383 562 278 562 c 0
 243 562 215 569 189 586 c 1
 188 499 180 475 153 475 c 0
 135 475 122 492 122 510 c 0
 122 546 147 539 147 581 c 2
 147 647 l 2
 147 706 115 689 115 733 c 0
 115 752 128 768 146 768 c 0
 166 768 182 748 187 691 c 1
 221 739 281 785 338 785 c 0
329 724 m 0
 269 724 220 678 194 635 c 1
 218 623 243 619 276 619 c 0
 349 619 359 662 359 695 c 0
 359 713 351 724 329 724 c 0
EndSplineSet
EndChar

StartChar: uni0611
Encoding: 1553 1553 438
Width: 0
Flags: HMW
LayerCount: 2
Fore
SplineSet
163 599 m 1
 220 599 l 1
 213 613 211 630 211 651 c 0
 211 736 278 778 357 778 c 0
 389 778 414 764 414 734 c 0
 414 711 400 697 384 697 c 0
 362 697 357 718 322 718 c 0
 287 718 256 699 256 651 c 0
 256 617 278 599 331 599 c 0
 371 599 392 618 414 618 c 0
 422 618 434 597 434 578 c 0
 434 566 391 539 331 539 c 2
 165 539 l 1
 165 477 l 2
 165 404 156 383 129 383 c 0
 111 383 98 400 98 418 c 0
 98 454 123 447 123 489 c 2
 123 555 l 2
 123 614 91 597 91 641 c 0
 91 660 104 676 122 676 c 0
 145 676 158 649 163 599 c 1
EndSplineSet
EndChar

StartChar: uni0612
Encoding: 1554 1554 439
Width: 0
Flags: HMW
LayerCount: 2
Fore
SplineSet
84 778 m 2
 317 778 l 2
 340 778 347 773 347 748 c 0
 347 723 340 718 317 718 c 2
 253 718 l 1
 218 691 l 2
 164 650 88 585 85 518 c 0
 84 493 73 484 61 484 c 0
 34 484 34 505 34 518 c 0
 34 583 76 645 166 718 c 1
 84 718 l 1
 80 710 79 704 79 697 c 0
 79 678 72 665 53 665 c 0
 34 665 27 678 27 697 c 0
 27 722 34 778 84 778 c 2
439 656 m 0
 439 696 424 706 411 714 c 0
 401 719 393 725 393 745 c 0
 393 763 404 779 424 779 c 0
 478 779 498 720 498 656 c 0
 498 533 398 458 293 458 c 0
 228 458 184 486 184 514 c 0
 184 535 199 548 214 548 c 0
 250 548 229 514 293 514 c 0
 397 514 439 581 439 656 c 0
EndSplineSet
EndChar

StartChar: uni0613
Encoding: 1555 1555 440
Width: 0
Flags: HMW
LayerCount: 2
Fore
SplineSet
443.5 656 m 0
 443.5 696 428.5 706 415.5 714 c 0
 405.5 719 397.5 725 397.5 745 c 0
 397.5 763 408.5 779 428.5 779 c 0
 482.5 779 502.5 720 502.5 656 c 0
 502.5 533 402.5 458 297.5 458 c 0
 232.5 458 188.5 486 188.5 514 c 0
 188.5 535 203.5 548 218.5 548 c 0
 254.5 548 233.5 514 297.5 514 c 0
 401.5 514 443.5 581 443.5 656 c 0
EndSplineSet
Refer: 437 1552 N 1 0 0 1 -92.5 0 2
EndChar

StartChar: uni0614
Encoding: 1556 1556 441
Width: 0
Flags: HMW
LayerCount: 2
Fore
SplineSet
338.5 747 m 0
 365.5 747 365.5 738 365.5 711 c 2
 365.5 686 l 2
 365.5 671 370.5 644 412.5 644 c 0
 440.5 644 441.5 667 441.5 681 c 2
 441.5 735 l 2
 441.5 761 442.5 770 467.5 770 c 0
 495.5 770 495.5 761 495.5 735 c 2
 495.5 681 l 2
 495.5 648 485.5 582 412.5 582 c 0
 372.5 582 352.5 591 338.5 605 c 1
 332.5 596 328.5 591 306.5 583 c 0
 273.5 571 242.5 573 38.5 572 c 0
 29.5 572 29.5 592 29.5 604 c 0
 29.5 614 29.5 633 38.5 633 c 0
 234.5 633 280.5 641 296.5 653 c 0
 309.5 663 310.5 677 310.5 686 c 2
 310.5 711 l 2
 310.5 738 310.5 747 338.5 747 c 0
EndSplineSet
EndChar

StartChar: uni0615
Encoding: 1557 1557 442
Width: 0
Flags: HMW
LayerCount: 2
Fore
SplineSet
99 555 m 0
 99 574 113 585 129 585 c 0
 163 585 158 544 197 544 c 1
 197 791 l 2
 197 813 202 820 222 820 c 0
 241 820 246 813 246 791 c 2
 246 615 l 1
 280 672 313 702 359 702 c 0
 409 702 426 653 426 623 c 0
 426 555 365 494 246 494 c 2
 197 494 l 2
 156 494 99 517 99 555 c 0
246 544 m 1
 333 544 378 575 378 609 c 0
 378 621 376 647 350 647 c 0
 312 647 270 599 246 544 c 1
EndSplineSet
EndChar

StartChar: uni0616
Encoding: 1558 1558 443
Width: 0
Flags: HMW
LayerCount: 2
Fore
SplineSet
168.5 575 m 0
 197.5 575 199.5 595 199.5 605 c 2
 199.5 749 l 2
 199.5 771 204.5 778 222.5 778 c 0
 242.5 778 248.5 771 248.5 749 c 2
 248.5 601 l 2
 248.5 591 245.5 566 222.5 543 c 0
 210.5 531 189.5 523 168.5 523 c 0
 149.5 523 140.5 509 140.5 497 c 0
 140.5 489 144.5 482 151.5 482 c 2
 407.5 482 l 2
 427.5 482 434.5 478 434.5 456 c 0
 434.5 435 427.5 431 407.5 431 c 2
 129.5 431 l 2
 106.5 431 90.5 461 90.5 493 c 0
 90.5 532 112.5 575 168.5 575 c 0
348.5 778 m 0
 370.5 778 373.5 768 373.5 737 c 2
 373.5 564 l 2
 373.5 533 368.5 523 347.5 523 c 0
 328.5 523 322.5 533 322.5 564 c 2
 322.5 737 l 2
 322.5 768 328.5 778 348.5 778 c 0
EndSplineSet
EndChar

StartChar: uni0617
Encoding: 1559 1559 444
Width: 0
Flags: HMW
LayerCount: 2
Fore
SplineSet
360.5 540 m 0
 360.5 580 345.5 590 332.5 598 c 0
 322.5 603 314.5 609 314.5 629 c 0
 314.5 647 325.5 663 345.5 663 c 0
 399.5 663 419.5 604 419.5 540 c 0
 419.5 417 319.5 342 214.5 342 c 0
 149.5 342 105.5 370 105.5 398 c 0
 105.5 419 120.5 432 135.5 432 c 0
 171.5 432 150.5 398 214.5 398 c 0
 318.5 398 360.5 465 360.5 540 c 0
EndSplineSet
Refer: 749 2282 N 1 0 0 1 -29 -69 2
EndChar

StartChar: uni0618
Encoding: 1560 1560 445
Width: 0
Flags: HMW
LayerCount: 2
Fore
SplineSet
338.5 891 m 0
 359.5 891 382.5 861 382.5 843 c 0
 382.5 833 375.5 822 363.5 811 c 2
 226.5 696 l 2
 209.5 682 193.5 671 183.5 671 c 0
 167.5 671 142.5 702 142.5 717 c 0
 142.5 726 151.5 738 164.5 750 c 2
 300.5 867 l 2
 312.5 878 328.5 891 338.5 891 c 0
EndSplineSet
EndChar

StartChar: uni0619
Encoding: 1561 1561 446
Width: 0
Flags: HMW
LayerCount: 2
Fore
SplineSet
278 764 m 0
 278 782 262 791 252 791 c 0
 237 791 237 783 217 783 c 0
 198 783 190 803 190 827 c 0
 190 863 216 890 259 890 c 0
 300 890 342 859 342 794 c 0
 342 657 262 632 209 632 c 0
 193 632 183 643 183 658 c 0
 183 681 194 689 205 689 c 0
 247 689 278 711 278 764 c 0
EndSplineSet
EndChar

StartChar: uni061C
Encoding: 1564 1564 449
Width: 525
Flags: MW
LayerCount: 2
Fore
SplineSet
254 708 m 2
 426 708 l 2
 442 708 448 701 448 683 c 0
 448 662 442 658 426 658 c 2
 380 658 l 1
 376 655 372 651 366 647 c 0
 330 620 270 572 270 454 c 0
 270 433 261 427 250 427 c 0
 231 427 231 445 231 454 c 0
 231 518 246 593 316 658 c 1
 256 658 l 1
 253 649 251 640 251 630 c 0
 251 608 247 602 231 602 c 0
 216 602 212 608 212 630 c 0
 212 655 217 708 254 708 c 2
216 429 m 1
 216 428 l 1
 212 425 207 422 201 419 c 0
 181 407 152 390 135 367 c 0
 108 332 85 291 85 246 c 0
 85 222 77 216 67 216 c 0
 47 216 47 235 47 246 c 0
 47 294 63 341 101 390 c 1
 70 399 50 430 50 485 c 0
 50 552 99 586 137 586 c 0
 161 586 180 575 180 548 c 0
 180 530 169 517 156 517 c 0
 150 517 147 520 142 525 c 0
 136 531 131 538 111 538 c 0
 103 538 84 519 84 485 c 0
 84 447 103 432 126 432 c 0
 135 432 148 436 158 441 c 1
 172 451 199 470 204 470 c 0
 211 470 220 448 220 437 c 0
 220 433 217 430 216 429 c 1
472 429 m 1
 472 428 l 1
 468 425 463 422 457 419 c 0
 436 407 407 390 391 367 c 1
 364 332 341 291 341 246 c 0
 341 222 332 216 322 216 c 0
 302 216 302 235 302 246 c 0
 302 294 318 341 357 390 c 1
 325 399 305 430 305 485 c 0
 305 552 355 586 393 586 c 0
 416 586 435 575 435 548 c 0
 435 530 424 517 411 517 c 0
 405 517 402 520 398 525 c 0
 392 531 387 538 367 538 c 0
 359 538 340 519 340 485 c 0
 340 447 359 432 382 432 c 0
 391 432 403 436 413 441 c 1
 427 451 455 470 460 470 c 0
 467 470 476 448 476 437 c 0
 476 433 473 430 472 429 c 1
495 449 m 1
 525 449 l 1
 525 346 l 1
 495 346 l 1
 495 449 l 1
495 314 m 1
 525 314 l 1
 525 213 l 1
 495 213 l 1
 495 314 l 1
495 717 m 1
 525 717 l 1
 525 616 l 1
 495 616 l 1
 495 717 l 1
495 584 m 1
 525 584 l 1
 525 481 l 1
 495 481 l 1
 495 584 l 1
249 141 m 1
 249 110 l 1
 174 110 l 1
 174 141 l 1
 249 141 l 1
75 789 m 1
 75 820 l 1
 149 820 l 1
 149 789 l 1
 75 789 l 1
448 141 m 1
 448 110 l 1
 374 110 l 1
 374 141 l 1
 448 141 l 1
174 789 m 1
 174 820 l 1
 249 820 l 1
 249 789 l 1
 174 789 l 1
349 141 m 1
 349 110 l 1
 274 110 l 1
 274 141 l 1
 349 141 l 1
274 789 m 1
 274 820 l 1
 349 820 l 1
 349 789 l 1
 274 789 l 1
149 141 m 1
 149 110 l 1
 75 110 l 1
 75 141 l 1
 149 141 l 1
374 789 m 1
 374 820 l 1
 448 820 l 1
 448 789 l 1
 374 789 l 1
0 584 m 1
 29 584 l 1
 29 481 l 1
 0 481 l 1
 0 584 l 1
0 717 m 1
 29 717 l 1
 29 616 l 1
 0 616 l 1
 0 717 l 1
0 314 m 1
 29 314 l 1
 29 213 l 1
 0 213 l 1
 0 314 l 1
0 449 m 1
 29 449 l 1
 29 346 l 1
 0 346 l 1
 0 449 l 1
525 110 m 1
 474 110 l 1
 474 141 l 1
 495 141 l 1
 495 179 l 1
 525 179 l 1
 525 110 l 1
525 820 m 1
 525 751 l 1
 495 751 l 1
 495 789 l 1
 474 789 l 1
 474 820 l 1
 525 820 l 1
0 820 m 1
 50 820 l 1
 50 789 l 1
 29 789 l 1
 29 751 l 1
 0 751 l 1
 0 820 l 1
0 110 m 1
 0 179 l 1
 29 179 l 1
 29 141 l 1
 50 141 l 1
 50 110 l 1
 0 110 l 1
EndSplineSet
EndChar

StartChar: uni061F
Encoding: 1567 1567 451
Width: 525
Flags: HMW
LayerCount: 2
Fore
SplineSet
272 727 m 0
 387 727 462 677 462 605 c 0
 462 578 442 562 420 562 c 0
 352 562 420 666 272 666 c 0
 170 666 131 634 131 603 c 0
 131 577 153 565 172 555 c 0
 317 475 317 386 317 346 c 0
 317 307 317 294 277 294 c 0
 247 294 237 300 237 334 c 2
 237 351 l 2
 237 398 221 455 128 506 c 0
 99 522 62 551 62 603 c 0
 62 640 87 727 272 727 c 0
EndSplineSet
Refer: 512 1628 N 1 0 0 1 14.5 583 2
EndChar

StartChar: uni0621
Encoding: 1569 1569 453
Width: 525
Flags: MW
LayerCount: 2
Fore
SplineSet
273 459 m 0
 312 459 377 444 377 383 c 0
 377 356 357 340 335 340 c 0
 286 340 315 398 273 398 c 0
 241 398 202 363 202 323 c 0
 202 291 245 265 272 265 c 0
 292 265 319 269 331 276 c 0
 353 288 368 296 380 296 c 0
 392 296 408 267 408 252 c 0
 408 243 373 233 300 182 c 0
 248 146 220 117 186 66 c 0
 178 54 166 46 147 46 c 0
 131 46 117 57 117 80 c 0
 117 116 175 156 233 206 c 1
 203 212 146 259 146 309 c 0
 146 381 206 459 273 459 c 0
EndSplineSet
EndChar

StartChar: uni0623
Encoding: 1571 1571 455
Width: 525
Flags: HMW
LayerCount: 2
Fore
SplineSet
305 592 m 0
 333 592 339 582 339 551 c 2
 339 151 l 2
 339 120 332 110 304 110 c 0
 276 110 270 120 270 151 c 2
 270 551 l 2
 270 582 277 592 305 592 c 0
EndSplineSet
Refer: 504 1620 N 1 0 0 1 41.5 -3 2
EndChar

StartChar: uni0627
Encoding: 1575 1575 459
Width: 525
Flags: MW
LayerCount: 2
Fore
SplineSet
305 721 m 0
 333 721 339 711 339 680 c 2
 339 151 l 2
 339 120 332 110 304 110 c 0
 276 110 270 120 270 151 c 2
 270 680 l 2
 270 711 277 721 305 721 c 0
EndSplineSet
EndChar

StartChar: uni062D
Encoding: 1581 1581 465
Width: 525
Flags: MW
LayerCount: 2
Fore
SplineSet
103 375 m 2
 448 375 l 2
 479 375 489 367 489 339 c 0
 489 311 479 303 448 303 c 2
 353 303 l 1
 296 251 97 139 97 -2 c 0
 97 -85 136 -167 263 -167 c 0
 371 -167 402 -123 426 -90 c 0
 438 -74 448 -65 465 -65 c 0
 487 -65 507 -81 507 -108 c 0
 507 -162 420 -237 263 -237 c 0
 121 -237 28 -155 28 -2 c 0
 28 98 103 188 250 303 c 1
 103 303 l 1
 96 289 93 276 93 262 c 0
 93 231 86 221 58 221 c 0
 30 221 24 231 24 262 c 0
 24 297 34 375 103 375 c 2
EndSplineSet
EndChar

StartChar: uni062F
Encoding: 1583 1583 467
Width: 525
Flags: MW
LayerCount: 2
Fore
SplineSet
84 202 m 0
 108 202 112 175 139 159 c 0
 166 143 193 140 235 140 c 0
 385 140 393 205 393 257 c 0
 393 347 342 402 291 443 c 0
 275 456 266 468 266 485 c 0
 266 507 282 527 309 527 c 0
 328 527 349 516 368 495 c 0
 411 448 462 352 462 257 c 0
 462 204 448 176 438 159 c 0
 428 142 388 70 235 70 c 0
 159 70 42 92 42 159 c 0
 42 186 62 202 84 202 c 0
EndSplineSet
EndChar

StartChar: uni0631
Encoding: 1585 1585 469
Width: 525
Flags: MW
LayerCount: 2
Fore
SplineSet
393 207 m 0
 393 315 327 277 327 333 c 0
 327 355 343 375 370 375 c 0
 436 375 465 294 465 207 c 0
 465 36 345 -83 189 -83 c 0
 89 -83 28 -39 28 3 c 0
 28 30 48 46 70 46 c 0
 119 46 98 -14 189 -14 c 0
 338 -14 393 96 393 207 c 0
EndSplineSet
EndChar

StartChar: uni0633
Encoding: 1587 1587 471
Width: 525
Flags: MW
LayerCount: 2
Fore
SplineSet
286 180 m 0
 316 180 329 206 329 235 c 2
 329 390 l 2
 329 421 330 431 355 431 c 0
 380 431 381 421 381 390 c 2
 381 235 l 2
 381 206 394 180 424 180 c 0
 452 180 453 213 453 235 c 2
 453 440 l 2
 453 471 455 481 479 481 c 0
 506 481 509 471 509 440 c 2
 509 235 l 2
 509 193 496 110 424 110 c 0
 382 110 365 131 355 152 c 1
 346 131 321 110 286 110 c 2
 261 110 l 1
 261 -32 259 -161 144 -161 c 0
 60 -161 7 -68 7 85 c 0
 7 153 10 278 81 278 c 0
 108 278 124 258 124 236 c 0
 124 190 76 224 76 85 c 0
 76 -41 108 -91 144 -91 c 0
 194 -91 196 -15 196 110 c 2
 196 440 l 2
 196 471 199 481 226 481 c 0
 253 481 257 471 257 440 c 2
 257 235 l 2
 257 213 258 180 286 180 c 0
EndSplineSet
EndChar

StartChar: uni0635
Encoding: 1589 1589 473
Width: 525
Flags: MW
LayerCount: 2
Fore
SplineSet
144 -91 m 0
 194 -91 197 -15 197 110 c 2
 197 207 l 2
 197 389 151 368 151 417 c 0
 151 439 167 459 194 459 c 0
 227 459 245 397 251 294 c 1
 277 355 330 459 418 459 c 0
 479 459 512 408 512 352 c 0
 512 202 415 114 262 110 c 1
 262 -32 259 -161 144 -161 c 0
 60 -161 7 -68 7 85 c 0
 7 153 10 278 81 278 c 0
 108 278 124 258 124 236 c 0
 124 190 76 224 76 85 c 0
 76 -41 108 -91 144 -91 c 0
262 182 m 1
 373 182 442 247 442 331 c 0
 442 361 432 389 405 389 c 0
 343 389 274 250 262 182 c 1
EndSplineSet
EndChar

StartChar: uni0637
Encoding: 1591 1591 475
Width: 525
Flags: MW
LayerCount: 2
Fore
SplineSet
202 110 m 2
 133 110 l 2
 67 110 7 140 7 201 c 0
 7 228 27 244 49 244 c 0
 98 244 70 180 133 180 c 1
 133 737 l 2
 133 768 140 778 168 778 c 0
 196 778 202 768 202 737 c 2
 202 286 l 1
 231 339 293 459 404 459 c 0
 465 459 498 408 498 352 c 0
 498 236 420 110 202 110 c 2
218 180 m 1
 390 180 428 271 428 331 c 0
 428 361 418 389 391 389 c 0
 314 389 251 262 218 180 c 1
EndSplineSet
EndChar

StartChar: uni0639
Encoding: 1593 1593 477
Width: 525
Flags: MW
LayerCount: 2
Fore
SplineSet
471 -65 m 0
 493 -65 513 -81 513 -108 c 0
 513 -162 426 -237 269 -237 c 0
 127 -237 34 -155 34 -2 c 0
 34 71 69 141 146 219 c 1
 85 231 34 275 34 372 c 0
 34 484 130 535 210 535 c 0
 255 535 291 517 291 479 c 0
 291 452 271 436 249 436 c 0
 217 436 223 467 158 467 c 0
 135 467 95 440 95 371 c 0
 95 300 135 277 186 277 c 0
 209 277 234 284 256 293 c 0
 289 306 336 331 345 331 c 0
 357 331 372 302 372 285 c 0
 372 280 370 277 367 275 c 0
 327 255 249 227 202 183 c 0
 148 131 103 68 103 -2 c 0
 103 -85 142 -167 269 -167 c 0
 377 -167 408 -123 432 -90 c 0
 444 -74 454 -65 471 -65 c 0
EndSplineSet
EndChar

StartChar: uni0640
Encoding: 1600 1600 484
Width: 525
Flags: MW
LayerCount: 2
Fore
SplineSet
0 180 m 1
 0 110 l 1
 -17 110 -17 128 -17 145 c 0
 -17 162 -17 180 0 180 c 1
525 180 m 1
 525 110 l 1
 0 110 l 1
 0 180 l 1
 525 180 l 1
EndSplineSet
EndChar

StartChar: uni0643
Encoding: 1603 1603 487
Width: 525
Flags: MW
LayerCount: 2
Fore
SplineSet
432 180 m 1
 432 737 l 2
 432 768 439 778 467 778 c 0
 495 778 501 768 501 737 c 2
 501 151 l 2
 501 120 494 110 466 110 c 2
 97 110 l 2
 38 110 28 152 28 204 c 0
 28 240 58 322 112 322 c 0
 139 322 155 302 155 280 c 0
 155 235 101 242 101 202 c 0
 101 196 103 188 107 180 c 1
 432 180 l 1
194 571 m 1
 330 571 334 517 334 478 c 0
 334 393 247 390 158 390 c 2
 140 390 l 2
 119 390 112 403 112 418 c 0
 112 434 119 446 140 446 c 2
 180 446 l 2
 226 446 278 449 278 478 c 0
 278 513 222 515 166 515 c 0
 150 515 138 522 138 543 c 2
 138 571 l 2
 138 646 196 687 272 687 c 0
 293 687 300 674 300 659 c 0
 300 643 293 631 272 631 c 0
 219 631 194 613 194 571 c 1
EndSplineSet
EndChar

StartChar: uni0644
Encoding: 1604 1604 488
Width: 525
Flags: MW
LayerCount: 2
Fore
SplineSet
249 -99 m 0
 416 -99 422 -8 422 108 c 2
 422 737 l 2
 422 768 429 778 457 778 c 0
 485 778 491 768 491 737 c 2
 491 108 l 2
 491 -15 479 -169 249 -169 c 0
 107 -169 14 -94 14 59 c 0
 14 127 39 280 115 280 c 0
 142 280 158 260 158 238 c 0
 158 200 122 204 107 175 c 0
 89 141 83 95 83 59 c 0
 83 -21 131 -99 249 -99 c 0
EndSplineSet
EndChar

StartChar: uni0645
Encoding: 1605 1605 489
Width: 525
Flags: MW
LayerCount: 2
Fore
SplineSet
111 110 m 1
 111 -229 l 2
 111 -260 104 -270 76 -270 c 0
 48 -270 42 -260 42 -229 c 2
 42 139 l 2
 42 170 49 180 77 180 c 2
 181 180 l 1
 188 254 287 348 349 348 c 0
 436 348 495 261 495 173 c 0
 495 89 433 -1 348 -1 c 0
 295 -1 230 57 200 110 c 1
 111 110 l 1
349 276 m 0
 310 276 248 212 248 173 c 0
 248 139 313 71 348 71 c 0
 385 71 428 125 428 173 c 0
 428 225 383 276 349 276 c 0
EndSplineSet
EndChar

StartChar: uni0647
Encoding: 1607 1607 491
Width: 525
Flags: HMW
LayerCount: 2
Fore
SplineSet
115 505 m 0
 115 543 151 561 196 561 c 0
 256 561 294 528 335 494 c 1
 261 460 l 1
 246 470 235 477 205 477 c 0
 187 477 179 462 157 462 c 0
 135 462 115 478 115 505 c 0
EndSplineSet
Refer: 633 1749 N 1 0 0 1 0 0 2
EndChar

StartChar: uni0648
Encoding: 1608 1608 492
Width: 525
Flags: MW
LayerCount: 2
Fore
SplineSet
403 110 m 1
 392 109 359 108 348 108 c 0
 276 108 226 125 226 222 c 0
 226 287 263 398 396 398 c 0
 443 398 486 372 486 285 c 2
 486 207 l 2
 486 172 482 140 477 110 c 0
 455 -32 343 -126 203 -126 c 0
 103 -126 42 -84 42 -42 c 0
 42 -15 62 1 84 1 c 0
 133 1 112 -56 203 -56 c 0
 328 -56 388 20 403 110 c 1
417 285 m 2
 417 318 412 337 396 337 c 0
 308 337 292 267 292 222 c 0
 292 184 318 178 360 178 c 0
 366 178 380 178 388 179 c 0
 405 181 417 188 417 198 c 2
 417 285 l 2
EndSplineSet
EndChar

StartChar: uni0649
Encoding: 1609 1609 493
Width: 525
Flags: MW
LayerCount: 2
Fore
SplineSet
506 136 m 0
 506 20 419 -64 240 -64 c 0
 98 -64 19 11 19 136 c 0
 19 204 44 343 120 343 c 0
 147 343 163 323 163 301 c 0
 163 263 127 267 112 238 c 0
 94 204 88 172 88 136 c 0
 88 81 113 6 240 6 c 0
 399 6 437 74 437 136 c 0
 437 171 416 184 371 184 c 0
 226 184 222 238 222 314 c 0
 222 398 299 497 394 497 c 0
 453 497 506 467 506 413 c 0
 506 386 486 370 464 370 c 0
 415 370 449 436 393 436 c 0
 347 436 291 377 291 314 c 0
 291 280 295 245 371 245 c 0
 469 245 506 218 506 136 c 0
EndSplineSet
EndChar

StartChar: uni064E
Encoding: 1614 1614 498
Width: 0
Flags: HMW
LayerCount: 2
Fore
SplineSet
336 804 m 2
 349 815 356 820 366 820 c 0
 380 820 402 796 402 780 c 0
 402 772 395 763 384 753 c 2
 187 577 l 2
 175 567 167 561 157 561 c 0
 143 561 123 585 123 601 c 0
 123 609 130 616 142 627 c 2
 336 804 l 2
EndSplineSet
EndChar

StartChar: uni064F
Encoding: 1615 1615 499
Width: 0
Flags: HMW
LayerCount: 2
Fore
SplineSet
287.5 734 m 0
 287.5 765 263.5 774 252.5 774 c 0
 236.5 774 233.5 768 219.5 768 c 0
 207.5 768 187.5 790 187.5 816 c 0
 187.5 856 218.5 890 261.5 890 c 0
 311.5 890 364.5 852 364.5 772 c 0
 364.5 614 232.5 559 190.5 559 c 0
 170.5 559 160.5 569 160.5 587 c 0
 160.5 607 172.5 617 184.5 617 c 0
 216.5 617 287.5 651 287.5 734 c 0
EndSplineSet
EndChar

StartChar: uni0651
Encoding: 1617 1617 501
Width: 0
Flags: HMW
LayerCount: 2
Fore
SplineSet
262.5 890 m 0
 290.5 890 293.5 865 293.5 842 c 0
 293.5 794 293.5 741 332.5 741 c 0
 357.5 741 368.5 766 368.5 795 c 0
 368.5 844 366.5 846 366.5 867 c 0
 366.5 879 373.5 890 389.5 890 c 0
 422.5 890 430.5 857 430.5 790 c 0
 430.5 738 406.5 674 332.5 674 c 0
 299.5 674 273.5 700 262.5 720 c 1
 251.5 700 225.5 674 192.5 674 c 0
 118.5 674 94.5 738 94.5 790 c 0
 94.5 857 102.5 890 135.5 890 c 0
 151.5 890 158.5 879 158.5 867 c 0
 158.5 846 156.5 844 156.5 795 c 0
 156.5 766 167.5 741 192.5 741 c 0
 231.5 741 231.5 794 231.5 842 c 0
 231.5 865 234.5 890 262.5 890 c 0
EndSplineSet
EndChar

StartChar: uni0652
Encoding: 1618 1618 502
Width: 0
Flags: HMW
LayerCount: 2
Fore
SplineSet
287 890 m 0
 300 890 386 819 386 695 c 0
 386 670 382 580 252 580 c 0
 196 580 139 604 139 673 c 0
 139 737 167 781 200 820 c 0
 229 853 275 890 287 890 c 0
319 695 m 0
 319 746 300 784 274 813 c 1
 232 781 198 735 198 687 c 0
 198 660 217 647 252 647 c 0
 298 647 319 665 319 695 c 0
EndSplineSet
EndChar

StartChar: uni0654
Encoding: 1620 1620 504
Width: 0
Flags: HMW
LayerCount: 2
Fore
SplineSet
261.5 890 m 0
 292.5 890 344.5 886 344.5 835 c 0
 344.5 813 328.5 800 309.5 800 c 0
 272.5 800 293.5 828 261.5 828 c 0
 232.5 828 217.5 810 217.5 779 c 0
 217.5 755 247.5 733 281.5 733 c 0
 318.5 733 331.5 754 353.5 754 c 0
 362.5 754 376.5 726 376.5 714 c 0
 376.5 703 332.5 681 284.5 654 c 0
 261.5 641 190.5 603 173.5 603 c 0
 160.5 603 148.5 615 148.5 634 c 0
 148.5 660 183.5 672 226.5 694 c 1
 186.5 706 161.5 739 161.5 779 c 0
 161.5 828 201.5 890 261.5 890 c 0
EndSplineSet
EndChar

StartChar: uni0656
Encoding: 1622 1622 506
Width: 0
Flags: HMW
LayerCount: 2
Fore
SplineSet
259 -218 m 0
 291 -218 299 -231 299 -266 c 2
 299 -509 l 2
 299 -542 295 -556 265 -556 c 0
 235 -556 226 -543 226 -509 c 2
 226 -266 l 2
 226 -232 228 -218 259 -218 c 0
EndSplineSet
EndChar

StartChar: uni0658
Encoding: 1624 1624 508
Width: 0
Flags: HMW
LayerCount: 2
Fore
SplineSet
403 890 m 0
 425 890 431 882 431 858 c 2
 431 771 l 2
 431 690 419 590 265 590 c 0
 179 590 94 632 94 742 c 0
 94 810 127 890 186 890 c 0
 206 890 219 874 219 857 c 0
 219 828 183 831 171 808 c 0
 157 783 155 770 155 742 c 0
 155 686 190 652 265 652 c 0
 355 652 370 696 370 771 c 2
 370 858 l 2
 370 882 381 890 403 890 c 0
EndSplineSet
EndChar

StartChar: uni0659
Encoding: 1625 1625 509
Width: 0
Flags: HMW
LayerCount: 2
Fore
SplineSet
391.5 889 m 2
 425.5 889 435.5 887 435.5 855 c 0
 435.5 823 425.5 817 391.5 817 c 2
 132.5 817 l 2
 99.5 817 89.5 819 89.5 850 c 0
 89.5 881 98.5 889 132.5 889 c 2
 391.5 889 l 2
EndSplineSet
EndChar

StartChar: uni065A
Encoding: 1626 1626 510
Width: 0
Flags: HMW
LayerCount: 2
Fore
SplineSet
365.5 885 m 2
 370.5 888 376.5 890 381.5 890 c 0
 398.5 890 410.5 876 410.5 860 c 0
 410.5 851 406.5 842 396.5 835 c 2
 278.5 760 l 2
 273.5 757 268.5 755 263.5 755 c 0
 258.5 755 252.5 757 248.5 760 c 2
 128.5 836 l 2
 118.5 842 114.5 851 114.5 860 c 0
 114.5 875 127.5 890 143.5 890 c 0
 148.5 890 153.5 888 159.5 885 c 2
 262.5 823 l 1
 365.5 885 l 2
EndSplineSet
EndChar

StartChar: uni065B
Encoding: 1627 1627 511
Width: 0
Flags: HMW
LayerCount: 2
Fore
SplineSet
365.5 759 m 2
 262.5 821 l 1
 159.5 759 l 2
 153.5 756 148.5 754 143.5 754 c 0
 127.5 754 114.5 769 114.5 784 c 0
 114.5 793 118.5 802 128.5 808 c 2
 248.5 884 l 2
 252.5 887 258.5 889 263.5 889 c 0
 268.5 889 273.5 887 278.5 884 c 2
 396.5 809 l 2
 406.5 802 410.5 793 410.5 784 c 0
 410.5 768 398.5 754 381.5 754 c 0
 376.5 754 370.5 756 365.5 759 c 2
EndSplineSet
EndChar

StartChar: uni065C
Encoding: 1628 1628 512
Width: 0
Flags: HMW
LayerCount: 2
Fore
SplineSet
196.5 -430 m 0
 196.5 -409 245.5 -359 262.5 -359 c 0
 279.5 -359 328.5 -411 328.5 -430 c 0
 328.5 -452 278.5 -500 262.5 -500 c 0
 244.5 -500 196.5 -450 196.5 -430 c 0
EndSplineSet
EndChar

StartChar: uni065D
Encoding: 1629 1629 513
Width: 0
Flags: HMW
LayerCount: 2
Fore
SplineSet
237.5 734 m 0
 237.5 651 308.5 617 340.5 617 c 0
 352.5 617 364.5 607 364.5 587 c 0
 364.5 569 354.5 559 334.5 559 c 0
 292.5 559 160.5 614 160.5 772 c 0
 160.5 852 213.5 890 263.5 890 c 0
 306.5 890 337.5 856 337.5 816 c 0
 337.5 790 317.5 768 305.5 768 c 0
 291.5 768 288.5 774 272.5 774 c 0
 261.5 774 237.5 765 237.5 734 c 0
EndSplineSet
EndChar

StartChar: uni065F
Encoding: 1631 1631 515
Width: 0
Flags: HMW
LayerCount: 2
Fore
SplineSet
181.5 -397 m 0
 231.5 -397 237.5 -429 259.5 -438 c 0
 266.5 -441 278.5 -445 290.5 -445 c 0
 298.5 -445 306.5 -443 309.5 -437 c 1
 273.5 -426 250.5 -396 250.5 -360 c 0
 250.5 -315 287.5 -259 341.5 -259 c 0
 369.5 -259 417.5 -263 417.5 -309 c 0
 417.5 -329 402.5 -341 385.5 -341 c 0
 351.5 -341 370.5 -315 341.5 -315 c 0
 315.5 -315 301.5 -332 301.5 -360 c 0
 301.5 -382 328.5 -402 359.5 -402 c 0
 393.5 -402 405.5 -383 425.5 -383 c 0
 433.5 -383 446.5 -408 446.5 -419 c 0
 446.5 -429 406.5 -449 362.5 -473 c 0
 350.5 -480 314.5 -500 289.5 -500 c 0
 259.5 -500 241.5 -499 216.5 -476 c 0
 207.5 -467 201.5 -456 180.5 -456 c 0
 156.5 -456 138.5 -469 117.5 -489 c 0
 112.5 -493 108.5 -496 100.5 -496 c 0
 89.5 -496 78.5 -473 78.5 -462 c 0
 78.5 -444 123.5 -397 181.5 -397 c 0
EndSplineSet
EndChar

StartChar: uni0660
Encoding: 1632 1632 516
Width: 525
Flags: MW
LayerCount: 2
Fore
SplineSet
183 305 m 0
 183 332 239 398 263 398 c 0
 286 398 342 331 342 305 c 0
 342 276 285 212 263 212 c 0
 238 212 183 278 183 305 c 0
EndSplineSet
EndChar

StartChar: uni0661
Encoding: 1633 1633 517
Width: 525
Flags: MW
LayerCount: 2
Fore
SplineSet
183 611 m 0
 193 611 203 608 213 599 c 0
 310 509 376 288 376 40 c 0
 376 12 359 0 342 0 c 0
 325 0 307 12 307 40 c 0
 307 334 217 471 163 535 c 0
 151 549 148 553 148 569 c 0
 148 591 164 611 183 611 c 0
EndSplineSet
EndChar

StartChar: uni0662
Encoding: 1634 1634 518
Width: 525
Flags: MW
LayerCount: 2
Fore
SplineSet
120 611 m 0
 148 611 169 578 186 557 c 0
 202 538 220 523 278 523 c 0
 376 523 348 611 397 611 c 0
 419 611 439 595 439 568 c 0
 439 514 365 454 278 454 c 0
 266 454 254 454 241 456 c 1
 286 346 313 199 313 40 c 0
 313 12 296 0 279 0 c 0
 262 0 244 12 244 40 c 0
 244 334 154 471 100 535 c 0
 88 549 85 553 85 569 c 0
 85 591 101 611 120 611 c 0
EndSplineSet
EndChar

StartChar: uni0663
Encoding: 1635 1635 519
Width: 525
Flags: MW
LayerCount: 2
Fore
SplineSet
78 611 m 0
 106 611 127 578 144 557 c 0
 162 535 183 526 208 526 c 0
 252 526 249 611 296 611 c 0
 344 611 336 530 384 530 c 0
 414 530 404 611 446 611 c 0
 468 611 488 595 488 568 c 0
 488 524 438 458 384 458 c 0
 303 458 316 539 296 539 c 0
 282 539 289 454 236 454 c 0
 224 454 210 457 195 464 c 1
 243 347 271 205 271 40 c 0
 271 12 254 0 237 0 c 0
 220 0 202 12 202 40 c 0
 202 334 112 471 58 535 c 0
 46 549 43 553 43 569 c 0
 43 591 59 611 78 611 c 0
EndSplineSet
EndChar

StartChar: uni0664
Encoding: 1636 1636 520
Width: 525
Flags: MW
LayerCount: 2
Fore
SplineSet
331 555 m 0
 331 528 311 512 289 512 c 0
 257 512 263 539 212 539 c 0
 180 539 140 507 140 420 c 0
 140 365 173 319 225 319 c 0
 250 319 293 327 311 332 c 0
 331 338 350 345 363 345 c 0
 373 345 387 325 387 300 c 0
 387 277 348 271 331 266 c 0
 250 244 176 167 176 110 c 0
 176 75 197 71 242 71 c 2
 405 71 l 2
 436 71 446 64 446 36 c 0
 446 8 436 -1 405 -1 c 2
 242 -1 l 2
 144 -1 107 28 107 110 c 0
 107 153 140 208 189 254 c 1
 119 271 79 337 79 420 c 0
 79 532 161 611 250 611 c 0
 295 611 331 593 331 555 c 0
EndSplineSet
EndChar

StartChar: uni0665
Encoding: 1637 1637 521
Width: 525
Flags: MW
LayerCount: 2
Fore
SplineSet
293 555 m 0
 331 555 460 421 460 233 c 0
 460 200 455 55 251 55 c 0
 137 55 65 114 65 205 c 0
 65 368 232 555 293 555 c 0
390 233 m 0
 390 352 310 469 281 469 c 0
 237 469 129 316 129 205 c 0
 129 170 152 125 251 125 c 0
 374 125 390 193 390 233 c 0
EndSplineSet
EndChar

StartChar: uni0666
Encoding: 1638 1638 522
Width: 525
Flags: MW
LayerCount: 2
Fore
SplineSet
399 611 m 0
 419 611 439 590 439 567 c 0
 439 560 437 554 432 543 c 0
 413 498 389 442 389 335 c 0
 389 275 396 205 416 122 c 0
 422 95 440 45 440 35 c 0
 440 15 428 0 406 0 c 0
 392 0 378 8 371 30 c 0
 334 152 316 263 316 366 c 0
 316 407 319 443 324 475 c 1
 294 465 288 464 258 464 c 0
 171 464 84 514 84 568 c 0
 84 595 104 611 126 611 c 0
 175 611 160 536 258 536 c 0
 335 536 343 560 365 590 c 0
 375 604 385 611 399 611 c 0
EndSplineSet
EndChar

StartChar: uni0667
Encoding: 1639 1639 523
Width: 525
Flags: MW
LayerCount: 2
Fore
SplineSet
64 611 m 0
 74 611 84 608 94 599 c 0
 137 557 215 382 262 206 c 1
 310 382 387 557 431 599 c 0
 441 608 451 611 461 611 c 0
 480 611 496 591 496 569 c 0
 496 553 492 550 481 535 c 0
 467 516 309 292 297 40 c 0
 296 13 280 0 263 0 c 0
 246 0 229 12 228 40 c 0
 216 292 58 516 44 535 c 0
 33 550 29 553 29 569 c 0
 29 591 45 611 64 611 c 0
EndSplineSet
EndChar

StartChar: uni0668
Encoding: 1640 1640 524
Width: 525
Flags: MW
LayerCount: 2
Fore
SplineSet
64 0 m 0
 45 0 29 20 29 42 c 0
 29 58 33 61 44 76 c 0
 58 95 216 319 228 571 c 0
 229 599 246 611 263 611 c 0
 280 611 296 598 297 571 c 0
 309 319 467 95 481 76 c 0
 492 61 496 58 496 42 c 0
 496 20 480 0 461 0 c 0
 451 0 441 3 431 12 c 0
 387 54 310 229 262 405 c 1
 215 229 137 54 94 12 c 0
 84 3 74 0 64 0 c 0
EndSplineSet
EndChar

StartChar: uni0669
Encoding: 1641 1641 525
Width: 525
Flags: MW
LayerCount: 2
Fore
SplineSet
386 494 m 2
 386 335 l 2
 386 275 393 205 413 122 c 0
 419 95 437 45 437 35 c 0
 437 15 425 0 403 0 c 0
 389 0 375 8 368 30 c 0
 337 133 322 219 318 307 c 1
 287 299 275 298 228 298 c 0
 151 298 87 355 87 454 c 0
 87 552 148 611 251 611 c 0
 349 611 386 576 386 494 c 2
317 494 m 2
 317 529 296 539 251 539 c 0
 193 539 148 533 148 453 c 0
 148 396 181 370 228 370 c 0
 275 370 290 372 317 380 c 1
 317 494 l 2
EndSplineSet
EndChar

StartChar: uni066A
Encoding: 1642 1642 526
Width: 525
Flags: HMW
LayerCount: 2
Fore
SplineSet
436 659 m 0
 436 652 434 647 430 637 c 2
 156 -54 l 2
 152 -65 145 -83 121 -83 c 0
 102 -83 86 -67 86 -48 c 0
 86 -41 88 -36 92 -26 c 2
 365 663 l 2
 370 675 377 694 401 694 c 0
 421 694 436 677 436 659 c 0
EndSplineSet
Refer: 516 1632 N 1 0 0 1 140 -255 2
Refer: 516 1632 N 1 0 0 1 -140 256 2
EndChar

StartChar: uni066B
Encoding: 1643 1643 527
Width: 525
Flags: MW
LayerCount: 2
Fore
SplineSet
112 -97 m 0
 112 -70 122 -68 150 -68 c 0
 290 -68 348 25 348 128 c 0
 348 158 354 166 381 166 c 0
 407 166 412 158 412 128 c 0
 412 -32 290 -125 150 -125 c 0
 122 -125 112 -123 112 -97 c 0
EndSplineSet
EndChar

StartChar: uni066C
Encoding: 1644 1644 528
Width: 525
Flags: MW
LayerCount: 2
Fore
SplineSet
274 229 m 0
 274 255 254 269 248 269 c 0
 235 269 232 264 221 264 c 0
 211 264 194 283 194 304 c 0
 194 338 220 366 256 366 c 0
 294 366 331 334 331 268 c 0
 331 142 248 110 219 110 c 0
 202 110 194 118 194 133 c 0
 194 150 204 158 214 158 c 0
 235 158 274 173 274 229 c 0
EndSplineSet
EndChar

StartChar: uni066D
Encoding: 1645 1645 529
Width: 525
Flags: MW
LayerCount: 2
Fore
SplineSet
523 259 m 0
 523 245 515 236 502 231 c 0
 465 217 427 205 390 191 c 1
 366 183 342 172 318 166 c 1
 344 123 376 83 403 41 c 0
 414 23 435 4 435 -17 c 1
 434 -32 421 -42 407 -42 c 0
 394 -42 386 -34 378 -24 c 2
 273 112 l 2
 271 115 267 122 263 122 c 0
 259 122 255 115 253 112 c 2
 148 -24 l 2
 140 -34 132 -42 119 -42 c 0
 105 -42 92 -32 91 -17 c 1
 91 4 112 23 123 41 c 0
 150 83 182 123 208 166 c 1
 184 172 160 183 136 191 c 1
 99 205 61 217 24 231 c 0
 11 236 2 246 2 259 c 0
 2 275 16 286 31 286 c 0
 44 286 58 280 70 277 c 2
 229 230 l 1
 234 406 l 1
 234 411 l 2
 234 429 236 456 264 456 c 0
 290 456 292 428 292 410 c 2
 292 405 l 2
 292 347 296 288 297 230 c 1
 456 277 l 2
 468 280 482 286 495 286 c 0
 511 286 523 275 523 259 c 0
EndSplineSet
EndChar

StartChar: uni066E
Encoding: 1646 1646 530
Width: 525
Flags: MW
LayerCount: 2
Fore
SplineSet
112 431 m 0
 139 431 155 411 155 389 c 0
 155 340 97 361 97 263 c 0
 97 212 101 195 108 180 c 1
 432 180 l 1
 432 390 l 2
 432 421 439 431 467 431 c 0
 495 431 501 421 501 390 c 2
 501 151 l 2
 501 120 494 110 466 110 c 2
 107 110 l 2
 38 110 28 193 28 263 c 0
 28 350 58 431 112 431 c 0
EndSplineSet
EndChar

StartChar: uni066F
Encoding: 1647 1647 531
Width: 525
Flags: MW
LayerCount: 2
Fore
SplineSet
259 6 m 0
 426 6 432 97 432 213 c 2
 432 244 l 1
 418 241 400 239 381 239 c 0
 286 239 252 278 252 361 c 0
 252 443 300 537 418 537 c 0
 486 537 501 504 501 445 c 2
 501 213 l 2
 501 90 489 -64 259 -64 c 0
 117 -64 24 11 24 164 c 0
 24 232 49 385 125 385 c 0
 152 385 168 365 168 343 c 0
 168 305 132 309 117 280 c 0
 99 246 93 200 93 164 c 0
 93 81 132 6 259 6 c 0
432 445 m 2
 432 470 431 476 418 476 c 0
 331 476 313 403 313 361 c 0
 313 318 323 309 381 309 c 0
 403 309 429 310 432 333 c 1
 432 445 l 2
EndSplineSet
EndChar

StartChar: uni0671
Encoding: 1649 1649 533
Width: 525
Flags: MW
LayerCount: 2
Fore
SplineSet
305 644 m 0
 333 644 339 634 339 603 c 2
 339 151 l 2
 339 120 332 110 304 110 c 0
 276 110 270 120 270 151 c 2
 270 603 l 2
 270 634 277 644 305 644 c 0
202 808 m 0
 254 808 259 775 283 763 c 1
 307 836 355 887 450 887 c 0
 493 887 510 839 510 809 c 0
 510 738 449 683 349 683 c 0
 306 683 262 709 237 732 c 0
 228 741 222 752 201 752 c 0
 177 752 159 739 138 719 c 0
 133 715 129 712 121 712 c 0
 110 712 99 735 99 746 c 0
 99 761 144 808 202 808 c 0
327 743 m 1
 338 739 352 738 363 738 c 0
 415 738 462 761 462 795 c 0
 462 807 460 833 441 833 c 0
 379 833 345 812 327 743 c 1
EndSplineSet
EndChar

StartChar: uni0672
Encoding: 1650 1650 534
Width: 525
Flags: HMW
LayerCount: 2
Fore
SplineSet
305 592 m 0
 333 592 339 582 339 551 c 2
 339 151 l 2
 339 120 332 110 304 110 c 0
 276 110 270 120 270 151 c 2
 270 551 l 2
 270 582 277 592 305 592 c 0
EndSplineSet
Refer: 515 1631 N 1 0 0 1 1.5 1146 2
EndChar

StartChar: uni0675
Encoding: 1653 1653 537
Width: 525
Flags: HMW
LayerCount: 2
Fore
SplineSet
263 592 m 0
 291 592 297 582 297 551 c 2
 297 151 l 2
 297 120 290 110 262 110 c 0
 234 110 228 120 228 151 c 2
 228 551 l 2
 228 582 235 592 263 592 c 0
EndSplineSet
Refer: 504 1620 N 1 0 0 1 138.5 -3 2
EndChar

StartChar: uni06A1
Encoding: 1697 1697 581
Width: 525
Flags: MW
LayerCount: 2
Fore
SplineSet
112 431 m 0
 139 431 155 411 155 389 c 0
 155 340 97 361 97 263 c 0
 97 212 101 195 108 180 c 1
 432 180 l 1
 432 273 l 1
 418 270 396 268 377 268 c 0
 277 268 243 307 243 389 c 0
 243 473 302 536 418 536 c 0
 486 536 501 503 501 444 c 2
 501 151 l 2
 501 120 494 110 466 110 c 2
 107 110 l 2
 38 110 28 193 28 263 c 0
 28 350 58 431 112 431 c 0
432 444 m 2
 432 469 431 475 418 475 c 0
 338 475 309 432 309 389 c 0
 309 347 319 338 377 338 c 0
 399 338 429 341 432 364 c 1
 432 444 l 2
EndSplineSet
EndChar

StartChar: uni06A9
Encoding: 1705 1705 589
Width: 525
Flags: MW
LayerCount: 2
Fore
SplineSet
112 319 m 0
 139 319 155 299 155 277 c 0
 155 232 101 241 101 201 c 0
 101 195 103 187 107 179 c 1
 432 179 l 1
 432 194 429 198 421 206 c 2
 239 391 l 2
 205 426 187 451 187 477 c 0
 187 505 208 534 251 577 c 2
 434 760 l 2
 446 772 455 778 464 778 c 0
 477 778 501 754 501 741 c 0
 501 732 495 723 483 711 c 2
 299 528 l 2
 276 506 266 491 266 477 c 0
 266 465 274 454 288 440 c 2
 477 248 l 2
 494 231 501 215 501 179 c 2
 501 151 l 2
 501 120 494 110 466 110 c 2
 97 110 l 2
 38 110 28 152 28 201 c 0
 28 237 58 319 112 319 c 0
EndSplineSet
EndChar

StartChar: uni06AA
Encoding: 1706 1706 590
Width: 525
Flags: MW
LayerCount: 2
Fore
SplineSet
154 342 m 0
 154 397 260 495 425 495 c 0
 456 495 466 489 466 461 c 0
 466 433 456 426 425 426 c 0
 279 426 215 370 215 342 c 0
 215 322 281 316 371 316 c 0
 469 316 506 279 506 218 c 0
 506 157 469 110 371 110 c 2
 160 110 l 2
 101 110 20 143 20 197 c 0
 20 224 40 240 62 240 c 0
 111 240 90 180 160 180 c 2
 371 180 l 2
 416 180 437 183 437 218 c 0
 437 253 416 255 371 255 c 0
 212 255 154 266 154 342 c 0
EndSplineSet
EndChar

StartChar: uni06AD
Encoding: 1709 1709 593
Width: 525
Flags: HMW
LayerCount: 2
Fore
SplineSet
432 180 m 1
 432 737 l 2
 432 768 439 778 467 778 c 0
 495 778 501 768 501 737 c 2
 501 151 l 2
 501 120 494 110 466 110 c 2
 97 110 l 2
 38 110 28 152 28 204 c 0
 28 240 58 322 112 322 c 0
 139 322 155 302 155 280 c 0
 155 235 101 242 101 202 c 0
 101 196 103 188 107 180 c 1
 432 180 l 1
265 445 m 1
 401 445 405 391 405 352 c 0
 405 267 318 264 229 264 c 2
 211 264 l 2
 190 264 183 277 183 292 c 0
 183 308 190 320 211 320 c 2
 251 320 l 2
 297 320 349 323 349 352 c 0
 349 387 293 389 237 389 c 0
 221 389 209 396 209 417 c 2
 209 445 l 2
 209 520 267 561 343 561 c 0
 364 561 371 548 371 533 c 0
 371 517 364 505 343 505 c 0
 290 505 265 487 265 445 c 1
EndSplineSet
Refer: 450 1566 N 1 0 0 1 -8 424 2
EndChar

StartChar: uni06AF
Encoding: 1711 1711 595
Width: 525
Flags: HMW
LayerCount: 2
Fore
SplineSet
101 594 m 2
 266 760 l 2
 279 773 285 778 295 778 c 0
 310 778 332 753 332 739 c 0
 332 731 326 722 316 712 c 2
 149 546 l 2
 141 539 129 527 121 527 c 0
 107 527 84 551 84 565 c 0
 84 573 90 583 101 594 c 2
EndSplineSet
Refer: 589 1705 N 1 0 0 1 0 0 2
EndChar

StartChar: uni06B1
Encoding: 1713 1713 597
Width: 525
Flags: HMW
LayerCount: 2
Fore
SplineSet
113 594 m 2
 278 760 l 2
 291 773 297 778 307 778 c 0
 322 778 344 753 344 739 c 0
 344 731 338 722 328 712 c 2
 161 546 l 2
 153 539 141 527 133 527 c 0
 119 527 96 551 96 565 c 0
 96 573 102 583 113 594 c 2
EndSplineSet
Refer: 1077 64436 N 1 0 0 1 -118 279 2
Refer: 589 1705 N 1 0 0 1 0 0 2
EndChar

StartChar: uni06B4
Encoding: 1716 1716 600
Width: 525
Flags: HMW
LayerCount: 2
Fore
SplineSet
101 636 m 2
 266 802 l 2
 279 815 285 820 295 820 c 0
 310 820 332 795 332 781 c 0
 332 773 326 764 316 754 c 2
 149 588 l 2
 141 581 129 569 121 569 c 0
 107 569 84 593 84 607 c 0
 84 615 90 625 101 636 c 2
EndSplineSet
Refer: 589 1705 N 1 0 0 1 0 0 2
Refer: 450 1566 N 1 0 0 1 -183 112 2
EndChar

StartChar: uni06BA
Encoding: 1722 1722 606
Width: 525
Flags: MW
LayerCount: 2
Fore
SplineSet
467 388 m 0
 495 388 501 378 501 347 c 2
 501 203 l 2
 501 80 489 -74 259 -74 c 0
 117 -74 24 1 24 154 c 0
 24 222 49 375 125 375 c 0
 152 375 168 355 168 333 c 0
 168 295 132 299 117 270 c 0
 99 236 93 190 93 154 c 0
 93 71 132 -4 259 -4 c 0
 426 -4 432 87 432 203 c 2
 432 347 l 2
 432 378 439 388 467 388 c 0
EndSplineSet
EndChar

StartChar: uni06BE
Encoding: 1726 1726 610
Width: 525
Flags: MW
LayerCount: 2
Fore
SplineSet
11 67 m 0
 11 94 31 110 53 110 c 0
 102 110 74 68 144 68 c 0
 187 68 220 88 259 134 c 1
 191 151 132 190 132 266 c 0
 132 368 244 453 329 453 c 1
 313 465 297 486 270 486 c 0
 250 486 235 472 217 472 c 0
 195 472 175 488 175 515 c 0
 175 553 211 571 256 571 c 0
 366 571 521 391 521 228 c 0
 521 148 450 124 355 124 c 0
 344 124 334 124 323 125 c 1
 268 46 202 7 130 7 c 0
 51 7 11 32 11 67 c 0
201 266 m 0
 201 220 245 199 294 190 c 1
 314 231 328 282 328 347 c 0
 328 361 328 375 327 390 c 1
 264 374 201 332 201 266 c 0
382 397 m 1
 384 376 385 356 385 337 c 0
 385 278 374 227 355 184 c 1
 364 184 l 2
 421 184 452 189 452 228 c 0
 452 286 416 349 382 397 c 1
EndSplineSet
EndChar

StartChar: uni06C1
Encoding: 1729 1729 613
Width: 525
Flags: HMW
LayerCount: 2
Fore
SplineSet
115 505 m 0
 115 543 151 561 196 561 c 0
 248 561 283 536 319 508 c 1
 348 530 382 552 412 552 c 0
 457 552 493 534 493 496 c 0
 493 469 473 453 451 453 c 0
 428 453 421 470 398 470 c 0
 389 470 378 467 362 460 c 1
 309 481 l 1
 261 460 l 1
 246 470 235 477 205 477 c 0
 187 477 179 462 157 462 c 0
 135 462 115 478 115 505 c 0
EndSplineSet
Refer: 633 1749 N 1 0 0 1 0 0 2
EndChar

StartChar: uni06C2
Encoding: 1730 1730 614
Width: 525
Flags: HMW
LayerCount: 2
Fore
SplineSet
444 240 m 0
 416 240 410 250 410 281 c 0
 410 345 379 367 337 367 c 0
 210 367 152 229 102 110 c 0
 97 98 82 93 73 93 c 0
 61 93 46 99 46 110 c 0
 46 146 109 265 158 328 c 0
 214 399 264 436 350 436 c 0
 439 436 479 376 479 281 c 0
 479 250 472 240 444 240 c 0
EndSplineSet
Refer: 504 1620 N 1 0 0 1 -40.5 -97 2
EndChar

StartChar: uni06C3
Encoding: 1731 1731 615
Width: 525
Flags: HMW
LayerCount: 2
Fore
SplineSet
444 240 m 0
 416 240 410 250 410 281 c 0
 410 345 379 367 337 367 c 0
 210 367 152 229 102 110 c 0
 97 98 82 93 73 93 c 0
 61 93 46 99 46 110 c 0
 46 146 109 265 158 328 c 0
 214 399 264 436 350 436 c 0
 439 436 479 376 479 281 c 0
 479 250 472 240 444 240 c 0
EndSplineSet
Refer: 1077 64436 N 1 0 0 1 0 87 2
EndChar

StartChar: uni06C5
Encoding: 1733 1733 617
Width: 525
Flags: HMW
LayerCount: 2
Fore
SplineSet
68 94 m 2
 248 94 l 2
 279 94 292 91 292 62 c 0
 292 34 280 25 248 25 c 2
 68 25 l 2
 39 25 26 29 26 56 c 0
 26 84 38 94 68 94 c 2
EndSplineSet
Refer: 492 1608 N 1 0 0 1 0 0 2
EndChar

StartChar: uni06CD
Encoding: 1741 1741 625
Width: 525
Flags: HMW
LayerCount: 2
Fore
SplineSet
131 341 m 0
 145 341 163 317 163 302 c 0
 163 293 156 283 141 276 c 2
 -9 206 l 2
 -23 200 -38 195 -46 195 c 0
 -60 195 -70 225 -70 239 c 0
 -70 248 -63 255 -47 263 c 2
 102 335 l 2
 114 341 120 341 131 341 c 0
EndSplineSet
Refer: 493 1609 N 1 0 0 1 0 0 2
EndChar

StartChar: uni06D2
Encoding: 1746 1746 630
Width: 525
Flags: MW
LayerCount: 2
Fore
SplineSet
501 145 m 0
 501 117 491 110 460 110 c 2
 65 110 l 2
 37 110 24 123 24 152 c 0
 24 169 26 180 30 198 c 0
 44 260 203 478 324 478 c 0
 434 478 466 416 466 323 c 0
 466 292 459 282 431 282 c 0
 403 282 397 292 397 323 c 0
 397 387 366 409 324 409 c 0
 230 409 104 228 92 199 c 0
 90 194 88 189 88 180 c 1
 460 180 l 2
 491 180 501 173 501 145 c 0
EndSplineSet
EndChar

StartChar: uni06D4
Encoding: 1748 1748 632
Width: 525
Flags: MW
LayerCount: 2
Fore
SplineSet
415 207 m 1
 415 110 l 1
 110 110 l 1
 110 207 l 1
 415 207 l 1
EndSplineSet
EndChar

StartChar: uni06D5
Encoding: 1749 1749 633
Width: 525
Flags: MW
LayerCount: 2
Fore
SplineSet
320 503 m 0
 337 503 425 410 425 250 c 0
 425 207 413 91 244 91 c 0
 172 91 100 121 100 222 c 0
 100 293 154 366 204 418 c 0
 241 457 304 503 320 503 c 0
299 420 m 1
 248 380 161 309 161 222 c 0
 161 181 187 161 244 161 c 0
 332 161 356 203 356 250 c 0
 356 328 327 380 299 420 c 1
EndSplineSet
EndChar

StartChar: uni06D6
Encoding: 1750 1750 634
Width: 0
Flags: HMW
LayerCount: 2
Fore
SplineSet
125.5 565 m 0
 107.5 565 99.5 551 99.5 539 c 0
 99.5 531 103.5 524 109.5 524 c 2
 366.5 524 l 2
 384.5 524 390.5 520 390.5 498 c 0
 390.5 477 384.5 473 366.5 473 c 2
 89.5 473 l 2
 68.5 473 54.5 503 54.5 535 c 0
 54.5 574 74.5 617 125.5 617 c 0
 151.5 617 151.5 637 151.5 647 c 2
 151.5 791 l 2
 151.5 813 155.5 820 172.5 820 c 0
 190.5 820 193.5 813 193.5 791 c 2
 193.5 643 l 2
 193.5 633 193.5 617 217.5 617 c 0
 234.5 617 238.5 634 238.5 645 c 2
 238.5 678 l 2
 238.5 700 240.5 707 257.5 707 c 0
 274.5 707 275.5 700 275.5 678 c 2
 275.5 647 l 2
 275.5 634 283.5 624 294.5 617 c 1
 300.5 634 308.5 649 317.5 661 c 0
 344.5 699 377.5 722 421.5 722 c 0
 456.5 722 470.5 690 470.5 665 c 0
 470.5 606 416.5 559 339.5 559 c 0
 322.5 559 302.5 561 283.5 569 c 0
 275.5 573 268.5 580 258.5 589 c 1
 248.5 576 233.5 565 217.5 565 c 0
 199.5 565 182.5 575 172.5 585 c 1
 160.5 575 144.5 565 125.5 565 c 0
415.5 670 m 0
 370.5 670 342.5 647 326.5 608 c 1
 333.5 607 341.5 606 350.5 606 c 0
 400.5 606 429.5 632 429.5 655 c 0
 429.5 660 427.5 670 415.5 670 c 0
EndSplineSet
EndChar

StartChar: uni06D7
Encoding: 1751 1751 635
Width: 0
Flags: HMW
LayerCount: 2
Fore
SplineSet
305.5 706 m 0
 305.5 747 337.5 786 383.5 786 c 0
 421.5 786 430.5 764 430.5 729 c 2
 430.5 594 l 2
 430.5 572 426.5 565 409.5 565 c 2
 257.5 565 l 2
 239.5 565 222.5 575 212.5 585 c 1
 200.5 575 184.5 565 165.5 565 c 0
 147.5 565 139.5 551 139.5 539 c 0
 139.5 531 143.5 524 149.5 524 c 2
 406.5 524 l 2
 424.5 524 430.5 520 430.5 498 c 0
 430.5 477 424.5 473 406.5 473 c 2
 129.5 473 l 2
 108.5 473 94.5 503 94.5 535 c 0
 94.5 574 114.5 617 165.5 617 c 0
 191.5 617 191.5 637 191.5 647 c 2
 191.5 791 l 2
 191.5 813 195.5 820 212.5 820 c 0
 230.5 820 233.5 813 233.5 791 c 2
 233.5 643 l 2
 233.5 633 233.5 617 257.5 617 c 2
 388.5 617 l 1
 388.5 637 l 1
 382.5 635 374.5 635 364.5 635 c 0
 324.5 635 305.5 657 305.5 706 c 0
388.5 729 m 2
 388.5 736 387.5 738 383.5 738 c 0
 356.5 738 341.5 724 341.5 706 c 0
 341.5 690 347.5 687 364.5 687 c 0
 376.5 687 388.5 688 388.5 694 c 2
 388.5 729 l 2
EndSplineSet
EndChar

StartChar: uni06D8
Encoding: 1752 1752 636
Width: 0
Flags: HMW
LayerCount: 2
Fore
SplineSet
287.5 726 m 0
 309.5 761 338.5 819 385.5 819 c 0
 423.5 819 463.5 789 463.5 721 c 0
 463.5 657 419.5 625 385.5 625 c 0
 362.5 625 325.5 642 304.5 668 c 1
 266.5 625 211.5 605 157.5 605 c 0
 100.5 605 61.5 629 61.5 654 c 0
 61.5 675 75.5 688 89.5 688 c 0
 124.5 688 107.5 659 157.5 659 c 0
 210.5 659 257.5 679 287.5 726 c 0
385.5 761 m 0
 355.5 761 341.5 736 332.5 718 c 1
 335.5 705 370.5 683 385.5 683 c 0
 399.5 683 417.5 687 417.5 721 c 0
 417.5 755 400.5 761 385.5 761 c 0
EndSplineSet
EndChar

StartChar: uni06D9
Encoding: 1753 1753 637
Width: 0
Flags: HMW
LayerCount: 2
Fore
SplineSet
354.5 819 m 0
 378.5 819 394.5 788 394.5 733 c 0
 394.5 711 390.5 673 378.5 635 c 0
 373.5 620 367.5 605 360.5 591 c 1
 373.5 563 383.5 535 383.5 507 c 2
 383.5 494 l 2
 383.5 477 378.5 472 361.5 472 c 2
 255.5 472 l 2
 247.5 472 247.5 485 247.5 491 c 0
 247.5 496 247.5 503 252.5 507 c 0
 270.5 525 297.5 555 318.5 591 c 1
 272.5 664 183.5 735 145.5 760 c 0
 135.5 767 130.5 771 130.5 781 c 0
 130.5 792 140.5 803 156.5 803 c 0
 159.5 803 164.5 803 169.5 801 c 0
 196.5 788 283.5 714 338.5 632 c 1
 339.5 635 l 1
 351.5 675 354.5 711 354.5 733 c 0
 354.5 763 346.5 771 338.5 777 c 1
 334.5 783 328.5 787 328.5 796 c 0
 328.5 809 338.5 819 354.5 819 c 0
338.5 552 m 1
 328.5 538 316.5 522 302.5 508 c 1
 348.5 508 l 1
 348.5 522 345.5 538 338.5 552 c 1
EndSplineSet
EndChar

StartChar: uni06DA
Encoding: 1754 1754 638
Width: 0
Flags: HMW
LayerCount: 2
Fore
SplineSet
173.5 820 m 2
 364.5 820 l 2
 383.5 820 388.5 814 388.5 792 c 0
 388.5 773 384.5 765 370.5 765 c 2
 328.5 765 l 1
 301.5 744 l 2
 259.5 712 186.5 655 186.5 609 c 0
 186.5 567 199.5 534 265.5 534 c 0
 319.5 534 334.5 552 351.5 571 c 0
 359.5 581 365.5 588 374.5 588 c 0
 386.5 588 400.5 578 400.5 552 c 0
 400.5 519 344.5 479 265.5 479 c 0
 195.5 479 137.5 514 137.5 609 c 0
 137.5 662 180.5 710 247.5 764 c 1
 173.5 764 l 1
 167.5 742 171.5 720 147.5 720 c 0
 129.5 720 124.5 728 124.5 750 c 0
 124.5 771 133.5 820 173.5 820 c 2
EndSplineSet
Refer: 749 2282 N 1 0 0 1 19 -206 2
EndChar

StartChar: uni06DC
Encoding: 1756 1756 640
Width: 0
Flags: HMW
LayerCount: 2
Fore
SplineSet
311.5 742 m 0
 326.5 742 331.5 760 331.5 772 c 2
 331.5 840 l 2
 331.5 860 332.5 866 354.5 866 c 0
 376.5 866 377.5 860 377.5 840 c 2
 377.5 772 l 2
 377.5 760 380.5 742 397.5 742 c 0
 411.5 742 415.5 760 415.5 772 c 2
 415.5 864 l 2
 415.5 884 416.5 890 438.5 890 c 0
 459.5 890 463.5 884 463.5 864 c 2
 463.5 772 l 2
 463.5 747 457.5 697 397.5 697 c 0
 378.5 697 364.5 708 354.5 720 c 1
 343.5 708 329.5 697 297.5 697 c 2
 288.5 697 l 1
 288.5 612 286.5 529 185.5 529 c 0
 96.5 529 61.5 586 61.5 650 c 0
 61.5 691 80.5 782 135.5 782 c 0
 156.5 782 169.5 770 169.5 757 c 0
 169.5 743 159.5 737 150.5 732 c 0
 144.5 729 137.5 725 132.5 718 c 0
 119.5 698 115.5 671 115.5 650 c 0
 115.5 607 137.5 579 185.5 579 c 0
 243.5 579 244.5 624 244.5 698 c 2
 244.5 864 l 2
 244.5 884 246.5 890 269.5 890 c 0
 291.5 890 292.5 884 292.5 864 c 2
 292.5 772 l 2
 292.5 760 297.5 742 311.5 742 c 0
EndSplineSet
EndChar

StartChar: uni06DD
Encoding: 1757 1757 641
Width: 525
Flags: HMW
LayerCount: 2
Fore
SplineSet
29 268 m 0
 6 296 -10 327 -10 375 c 0
 -10 423 6 453 29 481 c 0
 59 518 102 538 150 545 c 0
 171 548 187 550 205 557 c 0
 245 574 244 616 262 616 c 0
 280 616 280 574 320 557 c 0
 338 550 354 548 375 545 c 0
 423 538 466 518 496 481 c 0
 519 453 535 423 535 375 c 0
 535 327 519 296 496 268 c 0
 466 231 423 211 375 204 c 0
 354 201 338 199 320 192 c 0
 280 175 280 133 262 133 c 0
 244 133 245 175 205 192 c 0
 187 199 171 201 150 204 c 0
 102 211 59 231 29 268 c 0
262 539 m 1
 237 501 188 493 150 488 c 0
 75 478 34 426 34 375 c 0
 34 323 76 272 153 262 c 0
 191 257 237 249 262 211 c 1
 287 249 337 257 375 262 c 0
 450 272 490 324 490 375 c 0
 490 427 449 478 372 488 c 0
 334 493 287 501 262 539 c 1
436 630 m 0
 436 602 413 579 386 579 c 0
 358 579 335 602 335 630 c 0
 335 657 358 680 386 680 c 0
 413 680 436 657 436 630 c 0
188 630 m 0
 188 602 165 579 138 579 c 0
 110 579 87 602 87 630 c 0
 87 657 110 680 138 680 c 0
 165 680 188 657 188 630 c 0
188 120 m 0
 188 92 165 68 138 68 c 0
 110 68 87 92 87 120 c 0
 87 147 110 169 138 169 c 0
 165 169 188 147 188 120 c 0
436 120 m 0
 436 92 413 68 386 68 c 0
 358 68 335 92 335 120 c 0
 335 147 358 169 386 169 c 0
 413 169 436 147 436 120 c 0
EndSplineSet
EndChar

StartChar: uni06DE
Encoding: 1758 1758 642
Width: 525
Flags: HMW
LayerCount: 2
Fore
SplineSet
262 661 m 1
 346 577 l 1
 465 577 l 1
 465 459 l 1
 549 375 l 1
 465 291 l 1
 465 173 l 1
 346 173 l 1
 262 89 l 1
 178 173 l 1
 60 173 l 1
 60 291 l 1
 -24 375 l 1
 60 459 l 1
 60 577 l 1
 178 577 l 1
 262 661 l 1
93 445 m 1
 93 305 l 1
 192 206 l 1
 332 206 l 1
 432 305 l 1
 432 445 l 1
 332 544 l 1
 192 544 l 1
 93 445 l 1
379 206 m 1
 432 206 l 1
 432 258 l 1
 379 206 l 1
432 544 m 1
 379 544 l 1
 432 492 l 1
 432 544 l 1
93 544 m 1
 93 492 l 1
 146 544 l 1
 93 544 l 1
146 206 m 1
 93 258 l 1
 93 206 l 1
 146 206 l 1
262 614 m 1
 225 577 l 1
 300 577 l 1
 262 614 l 1
502 375 m 1
 465 412 l 1
 465 338 l 1
 502 375 l 1
23 375 m 1
 60 338 l 1
 60 412 l 1
 23 375 l 1
225 173 m 1
 262 136 l 1
 300 173 l 1
 225 173 l 1
185 506 m 2
 343 506 l 2
 359 506 364 502 364 483 c 0
 364 468 359 463 349 463 c 2
 308 463 l 1
 285 445 l 2
 251 418 190 372 190 334 c 0
 190 298 206 265 261 265 c 0
 312 265 318 282 333 297 c 1
 339 305 344 311 351 311 c 0
 361 311 372 301 372 286 c 0
 372 259 333 226 261 226 c 0
 197 226 155 260 155 334 c 0
 155 372 191 418 246 462 c 1
 185 462 l 1
 180 444 185 425 165 425 c 0
 150 425 146 432 146 450 c 0
 146 468 152 506 185 506 c 2
EndSplineSet
EndChar

StartChar: uni06DF
Encoding: 1759 1759 643
Width: 0
Flags: HMW
LayerCount: 2
Fore
SplineSet
194.5 822 m 0
 194.5 859 225.5 890 262.5 890 c 0
 299.5 890 330.5 859 330.5 822 c 0
 330.5 785 299.5 754 262.5 754 c 0
 225.5 754 194.5 785 194.5 822 c 0
EndSplineSet
EndChar

StartChar: uni06E0
Encoding: 1760 1760 644
Width: 0
Flags: HMW
LayerCount: 2
Fore
SplineSet
356.5 755 m 0
 356.5 680 311.5 622 262.5 622 c 0
 214.5 622 168.5 678 168.5 756 c 0
 168.5 831 213.5 889 262.5 889 c 0
 310.5 889 356.5 833 356.5 755 c 0
300.5 756 m 0
 300.5 797 282.5 827 262.5 827 c 0
 242.5 827 224.5 797 224.5 756 c 0
 224.5 712 243.5 684 262.5 684 c 0
 281.5 684 300.5 712 300.5 756 c 0
EndSplineSet
EndChar

StartChar: uni06E1
Encoding: 1761 1761 645
Width: 0
Flags: HMW
LayerCount: 2
Fore
SplineSet
143.5 781 m 0
 124.5 781 111.5 796 111.5 813 c 0
 111.5 866 188.5 886 222.5 886 c 0
 287.5 886 381.5 861 423.5 832 c 0
 431.5 827 436.5 815 436.5 804 c 0
 436.5 798 435.5 792 431.5 786 c 0
 368.5 696 276.5 607 124.5 607 c 0
 106.5 607 88.5 614 88.5 640 c 0
 88.5 658 103.5 672 120.5 672 c 0
 243.5 672 300.5 719 357.5 792 c 1
 305.5 811 198.5 839 171.5 796 c 0
 165.5 786 154.5 781 143.5 781 c 0
EndSplineSet
EndChar

StartChar: uni06E2
Encoding: 1762 1762 646
Width: 0
Flags: HMW
LayerCount: 2
Fore
SplineSet
160 748 m 1
 160 537 l 2
 160 517 155 511 136 511 c 0
 118 511 113 517 113 537 c 2
 113 767 l 2
 113 788 118 794 137 794 c 2
 220 794 l 1
 226 829 281 890 321 890 c 0
 371 890 412 844 412 788 c 0
 412 735 369 686 320 686 c 0
 291 686 253 721 233 748 c 1
 160 748 l 1
321 841 m 0
 299 841 268 806 268 788 c 0
 268 771 299 736 320 736 c 0
 338 736 364 759 364 788 c 0
 364 817 338 841 321 841 c 0
EndSplineSet
EndChar

StartChar: uni06E4
Encoding: 1764 1764 648
Width: 0
Flags: HMW
LayerCount: 2
Fore
SplineSet
131 868 m 0
 172 868 193 808 277 808 c 0
 410 808 381 868 422 868 c 0
 440 868 455 856 455 835 c 0
 455 783 385 740 277 740 c 0
 176 740 142 798 131 798 c 0
 126 798 126 782 126 752 c 0
 126 729 120 722 99 722 c 0
 77 722 70 729 70 752 c 0
 70 791 71 868 131 868 c 0
EndSplineSet
EndChar

StartChar: uni06E5
Encoding: 1765 1765 649
Width: 525
Flags: HMW
LayerCount: 2
Fore
SplineSet
256.5 735 m 0
 256.5 769 291.5 820 340.5 820 c 0
 371.5 820 398.5 801 398.5 756 c 2
 398.5 720 l 2
 398.5 611 333.5 551 223.5 551 c 0
 165.5 551 126.5 581 126.5 607 c 0
 126.5 627 140.5 640 155.5 640 c 0
 166.5 640 172.5 634 180.5 625 c 0
 186.5 617 200.5 603 230.5 603 c 0
 307.5 603 330.5 633 336.5 656 c 1
 329.5 655 316.5 654 310.5 654 c 0
 275.5 654 256.5 680 256.5 735 c 0
351.5 725 m 2
 351.5 756 l 2
 351.5 764 348.5 768 340.5 768 c 0
 317.5 768 297.5 750 297.5 735 c 0
 297.5 721 298.5 705 316.5 705 c 0
 321.5 705 333.5 705 340.5 707 c 0
 346.5 709 351.5 717 351.5 725 c 2
EndSplineSet
EndChar

StartChar: uni06E6
Encoding: 1766 1766 650
Width: 525
Flags: HMW
LayerCount: 2
Fore
SplineSet
411 579 m 0
 411 556 403 551 384 551 c 2
 143 551 l 2
 122 551 114 560 114 583 c 0
 114 592 117 607 120 615 c 0
 134 657 200 820 301 820 c 0
 370 820 398 779 398 718 c 0
 398 695 391 686 373 686 c 0
 353 686 347 695 347 718 c 0
 347 753 326 766 301 766 c 0
 223 766 173 625 168 607 c 1
 384 607 l 2
 403 607 411 603 411 579 c 0
EndSplineSet
EndChar

StartChar: uni06E9
Encoding: 1769 1769 653
Width: 525
Flags: HMW
LayerCount: 2
Fore
SplineSet
483 -112 m 1
 483 -49 l 1
 356 -49 l 1
 356 405 l 1
 478 530 l 1
 262 745 l 1
 48 530 l 1
 168 405 l 1
 168 -49 l 1
 42 -49 l 1
 42 -112 l 1
 483 -112 l 1
525 0 m 1
 525 -161 l 1
 0 -161 l 1
 0 0 l 1
 118 0 l 1
 118 385 l 1
 -26 530 l 1
 262 820 l 1
 552 532 l 1
 406 385 l 1
 406 0 l 1
 525 0 l 1
280 550 m 0
 289 550 292 562 292 569 c 2
 292 612 l 2
 292 625 292 628 306 628 c 0
 320 628 322 625 322 612 c 2
 322 569 l 2
 322 562 323 550 334 550 c 0
 343 550 344 562 344 569 c 2
 344 627 l 2
 344 640 346 644 360 644 c 0
 373 644 376 640 376 627 c 2
 376 569 l 2
 376 554 372 522 334 522 c 0
 322 522 312 529 306 536 c 1
 299 529 290 522 270 522 c 2
 264 522 l 1
 264 468 263 416 200 416 c 0
 143 416 122 452 122 492 c 0
 122 518 133 576 168 576 c 0
 181 576 190 568 190 560 c 0
 190 551 184 547 178 544 c 0
 175 542 169 540 166 535 c 0
 158 523 156 506 156 492 c 0
 156 465 169 448 200 448 c 0
 236 448 238 476 238 523 c 2
 238 627 l 2
 238 640 238 644 252 644 c 0
 266 644 268 640 268 627 c 2
 268 569 l 2
 268 562 271 550 280 550 c 0
EndSplineSet
EndChar

StartChar: uni06EA
Encoding: 1770 1770 654
Width: 0
Flags: HMW
LayerCount: 2
Fore
SplineSet
262 -209 m 1
 156 -316 l 1
 262 -422 l 1
 369 -315 l 1
 262 -209 l 1
262 -131 m 1
 447 -315 l 1
 262 -500 l 1
 78 -316 l 1
 262 -131 l 1
EndSplineSet
EndChar

StartChar: uni06EC
Encoding: 1772 1772 656
Width: 0
Flags: HMW
LayerCount: 2
Fore
SplineSet
139 766 m 0
 139 834 194 890 262 890 c 0
 330 890 386 834 386 766 c 0
 386 698 330 643 262 643 c 0
 194 643 139 698 139 766 c 0
EndSplineSet
EndChar

StartChar: uni06F4
Encoding: 1780 1780 664
Width: 525
Flags: MW
LayerCount: 2
Fore
SplineSet
379 611 m 0
 438 611 505 581 505 527 c 0
 505 500 485 484 463 484 c 0
 414 484 449 542 379 542 c 0
 336 542 300 518 300 448 c 0
 300 396 339 361 384 361 c 0
 471 361 460 417 485 417 c 0
 495 417 511 392 511 367 c 0
 511 353 478 292 384 292 c 0
 335 292 291 311 257 337 c 1
 279 249 291 147 291 40 c 0
 291 12 274 0 257 0 c 0
 240 0 222 12 222 40 c 0
 222 334 132 471 78 535 c 0
 66 549 63 553 63 569 c 0
 63 591 79 611 98 611 c 0
 108 611 118 608 128 599 c 0
 159 570 186 528 210 477 c 0
 219 456 231 434 249 415 c 1
 247 425 246 436 246 448 c 0
 246 560 311 611 379 611 c 0
EndSplineSet
EndChar

StartChar: uni06F5
Encoding: 1781 1781 665
Width: 525
Flags: MW
LayerCount: 2
Fore
SplineSet
293 559 m 0
 317 559 453 452 453 278 c 0
 453 176 414 110 368 110 c 0
 282 110 272 167 254 167 c 0
 237 167 222 110 149 110 c 0
 122 110 72 142 72 236 c 0
 72 406 263 559 293 559 c 0
384 264 m 0
 384 376 298 473 282 473 c 0
 260 473 141 360 141 236 c 0
 141 201 152 188 161 188 c 0
 218 188 240 245 264 245 c 0
 289 245 306 188 356 188 c 0
 374 188 384 219 384 264 c 0
EndSplineSet
EndChar

StartChar: uni06F6
Encoding: 1782 1782 666
Width: 525
Flags: MW
LayerCount: 2
Fore
SplineSet
393 555 m 0
 393 528 373 512 351 512 c 0
 319 512 333 536 267 536 c 0
 244 536 188 518 188 427 c 0
 188 381 220 351 271 349 c 1
 313 381 355 399 387 399 c 0
 408 399 421 381 421 361 c 0
 421 338 410 329 389 322 c 0
 290 288 250 245 194 144 c 0
 181 120 159 71 152 63 c 0
 144 54 135 50 126 50 c 0
 108 50 95 66 95 87 c 0
 95 105 125 162 161 222 c 0
 178 251 197 277 217 299 c 1
 163 316 127 363 127 427 c 0
 127 553 216 611 312 611 c 0
 357 611 393 593 393 555 c 0
EndSplineSet
EndChar

StartChar: uni0750
Encoding: 1872 1872 676
Width: 525
Flags: HMW
LayerCount: 2
Fore
SplineSet
71 -101 m 0
 71 -80 120 -30 138 -30 c 0
 155 -30 204 -81 204 -101 c 0
 204 -123 154 -171 138 -171 c 0
 119 -171 71 -121 71 -101 c 0
220 -86 m 0
 220 -65 269 -15 286 -15 c 0
 303 -15 352 -66 352 -86 c 0
 352 -108 302 -156 286 -156 c 0
 268 -156 220 -106 220 -86 c 0
220 -86 m 0
 220 -65 269 -15 286 -15 c 0
 303 -15 352 -66 352 -86 c 0
 352 -108 302 -156 286 -156 c 0
 268 -156 220 -106 220 -86 c 0
368 -70 m 0
 368 -50 417 0 434 0 c 0
 452 0 501 -51 501 -70 c 0
 501 -92 451 -141 434 -141 c 0
 415 -141 368 -91 368 -70 c 0
EndSplineSet
Refer: 530 1646 N 1 0 0 1 0 0 2
EndChar

StartChar: uni0755
Encoding: 1877 1877 681
Width: 525
Flags: MW
LayerCount: 2
Fore
SplineSet
382 -130 m 2
 387 -133 393 -135 398 -135 c 0
 415 -135 427 -121 427 -105 c 0
 427 -96 423 -87 413 -80 c 2
 295 -5 l 2
 290 -2 285 0 280 0 c 0
 275 0 269 -2 265 -5 c 2
 145 -81 l 2
 135 -87 131 -96 131 -105 c 0
 131 -120 144 -135 160 -135 c 0
 165 -135 170 -133 176 -130 c 2
 279 -68 l 1
 382 -130 l 2
112 431 m 0
 139 431 155 411 155 389 c 0
 155 340 97 361 97 263 c 0
 97 212 101 195 108 180 c 1
 432 180 l 1
 432 390 l 2
 432 421 439 431 467 431 c 0
 495 431 501 421 501 390 c 2
 501 151 l 2
 501 120 494 110 466 110 c 2
 107 110 l 2
 38 110 28 193 28 263 c 0
 28 350 58 431 112 431 c 0
EndSplineSet
EndChar

StartChar: uni075A
Encoding: 1882 1882 686
Width: 525
Flags: HMW
LayerCount: 2
Fore
SplineSet
84 202 m 0
 108 202 112 175 139 159 c 0
 166 143 193 140 235 140 c 0
 385 140 393 205 393 257 c 0
 393 347 342 402 291 443 c 0
 275 456 266 468 266 485 c 0
 266 507 282 527 309 527 c 0
 328 527 349 516 368 495 c 0
 411 448 462 352 462 257 c 0
 462 204 448 176 438 159 c 0
 428 142 388 70 235 70 c 0
 159 70 42 92 42 159 c 0
 42 186 62 202 84 202 c 0
369 -152 m 2
 374 -155 380 -157 385 -157 c 0
 402 -157 414 -143 414 -127 c 0
 414 -118 410 -109 400 -102 c 2
 282 -27 l 2
 277 -24 272 -22 267 -22 c 0
 262 -22 256 -24 252 -27 c 2
 132 -103 l 2
 122 -109 118 -118 118 -127 c 0
 118 -142 131 -157 147 -157 c 0
 152 -157 157 -155 163 -152 c 2
 266 -90 l 1
 369 -152 l 2
EndSplineSet
Refer: 442 1557 N 1 0 0 1 -70 80 2
EndChar

